<?xml version="1.0" encoding="utf-8"?>
<!-- Generator: Adobe Illustrator 18.0.0, SVG Export Plug-In . SVG Version: 6.00 Build 0)  -->
<!DOCTYPE svg PUBLIC "-//W3C//DTD SVG 1.1//EN" "http://www.w3.org/Graphics/SVG/1.1/DTD/svg11.dtd">
<svg version="1.1" id="Layer_1" xmlns="http://www.w3.org/2000/svg" xmlns:xlink="http://www.w3.org/1999/xlink" x="0px" y="0px"
	 viewBox="0 0 1146 757" enable-background="new 0 0 1146 757" xml:space="preserve">
<g opacity="0.5">
	<defs>
		<rect id="SVGID_1_" opacity="0.5" width="1146" height="755"/>
	</defs>
	<clipPath id="SVGID_2_">
		<use xlink:href="#SVGID_1_"  overflow="visible"/>
	</clipPath>
	<g clip-path="url(#SVGID_2_)">
		<rect x="-356.8" y="-73" fill="#C5DFCA" width="1905.2" height="1071.7"/>
		<g>
			<ellipse fill="#0EA797" cx="-151.8" cy="504.6" rx="16.3" ry="5.5"/>
			<path fill="#8D7755" d="M-162.2,486.9v16c0,0,11.2,9.2,20.8,0v-17.5L-162.2,486.9z"/>
			<path opacity="0.54" fill="#D4B080" d="M-162.2,489.8c0,0,12.7,8.7,20.8,0v-4.4l-20.8-1.1V489.8z"/>
			<path opacity="0.54" fill="#D4B080" d="M-162.2,492.4c0,0,12.7,8.7,20.8,0V488l-20.8-1.1V492.4z"/>
			<path fill="#6EC38C" d="M-175.7,455.8l-12.2,16.5c-1.1,1.4-0.7,3.5,0.7,4.5c9.5,6.5,43.1,26.1,70.9-0.7c1.2-1.1,1.3-2.9,0.3-4.2
				l-12.3-16.2c-0.6-0.8-1.5-1.2-2.5-1.2h-42.4C-174.2,454.5-175.1,455-175.7,455.8z"/>
			<path fill="#6EC38C" d="M-167.4,441.7l-7.9,10c-0.7,1-0.9,2.3-0.3,3.3c1.9,3.6,7.5,11.2,21,12.3c13.8,1.1,22.6-7.5,25.9-11.5
				c0.9-1.1,0.9-2.6,0.1-3.8l-6.9-9.5c-0.6-0.8-1.4-1.2-2.4-1.3l-27,0C-165.9,441.3-166.8,440.9-167.4,441.7z"/>
			<path fill="#B8D887" d="M-169.9,444.8c0,0,19.1,10.6,36,0l-2.5-3.5h-15.5h-15.3L-169.9,444.8z"/>
			<path opacity="0.54" fill="#D4B080" d="M-141.4,497.3v2.5c-8.2,8.7-20.8,0-20.8,0v-2.5C-162.2,497.3-149.5,506-141.4,497.3z"/>
			<path fill="#129280" d="M-175.6,455c0,0,21.5,15.3,46.9,0.8l4.1,4.8c0,0-15.8,21.9-55.3,0.6L-175.6,455z"/>
			<path fill="#0EA797" d="M-155.8,420.1l-11.1,18.8c-1.3,2.2-0.3,5.1,2.2,5.9c5.1,1.7,14.3,3.5,25.5-0.1c2.5-0.8,3.6-3.8,2.2-6
				l-11.9-18.7C-150.5,417.4-154.3,417.5-155.8,420.1z"/>
		</g>
		<g>
			<rect x="1156.6" y="54.6" fill="#D0EBE7" width="303.9" height="112.9"/>
			<path fill="#FEE06B" d="M1450.1,290.7h-283.3c-8.5,0-15.5-7-15.5-15.5V161.4h314.2v113.8C1465.5,283.7,1458.6,290.7,1450.1,290.7
				z"/>
			<rect x="1151.3" y="185.8" fill="#EE806C" width="314.2" height="9.3"/>
			<path opacity="0.69" fill="#BAE1DB" d="M1450.7,50.5h-283.5c-8.7,0-15.9,7.1-15.9,15.9v78.7h11.9V78.9c0-8.7,7.1-15.9,15.9-15.9
				h261.7c8.7,0,15.9,7.1,15.9,15.9v66.1h9.9V66.4C1466.5,57.6,1459.4,50.5,1450.7,50.5z"/>
			<path fill="#A8DBD3" d="M1450.7,58.3h-283.5c-8.7,0-15.9,7.1-15.9,15.9v70.9h11.9V86.7c0-8.7,7.1-15.9,15.9-15.9h261.7
				c8.7,0,15.9,7.1,15.9,15.9v58.4h9.9V74.1C1466.5,65.4,1459.4,58.3,1450.7,58.3z"/>
			<path opacity="0.69" fill="#F79A1F" d="M1341.3,290.7h-66.7v-55c0-2.6,2.1-4.7,4.7-4.7h57.4c2.6,0,4.7,2.1,4.7,4.7V290.7z"/>
			<g>
				<path opacity="0.69" fill="#F0633E" d="M1393.5,220.3h-31c-2,0-3.7,1.7-3.7,3.7v47.8c0,2,1.7,3.7,3.7,3.7h31
					c2,0,3.7-1.7,3.7-3.7V224C1397.2,222,1395.6,220.3,1393.5,220.3z M1394.7,270.1c0,1.7-1.4,3.2-3.2,3.2h-27
					c-1.7,0-3.2-1.4-3.2-3.2v-44.4c0-1.7,1.4-3.2,3.2-3.2h27c1.7,0,3.2,1.4,3.2,3.2V270.1z"/>
				<path opacity="0.69" fill="#F3A768" d="M1394.7,225.7v44.4c0,1.7-1.4,3.2-3.2,3.2h-27c-1.7,0-3.2-1.4-3.2-3.2v-44.4
					c0-1.7,1.4-3.2,3.2-3.2h27C1393.3,222.5,1394.7,224,1394.7,225.7z"/>
				<path opacity="0.28" fill="#FFFFFF" d="M1361.4,225.7l30.2,47.6h-27.2c-1.7,0-3-1.3-3-3V225.7z"/>
				<path opacity="0.28" fill="#FFFFFF" d="M1387.6,273.3h-23.3c-1.7,0-3-1.3-3-3v-38.5L1387.6,273.3z"/>
			</g>
			<g>
				<path opacity="0.69" fill="#F0633E" d="M1446.4,220.3h-31c-2,0-3.7,1.7-3.7,3.7v47.8c0,2,1.7,3.7,3.7,3.7h31
					c2,0,3.7-1.7,3.7-3.7V224C1450.1,222,1448.4,220.3,1446.4,220.3z M1447.5,270.1c0,1.7-1.4,3.2-3.2,3.2h-27
					c-1.7,0-3.2-1.4-3.2-3.2v-44.4c0-1.7,1.4-3.2,3.2-3.2h27c1.7,0,3.2,1.4,3.2,3.2V270.1z"/>
				<path opacity="0.69" fill="#F3A768" d="M1447.5,225.7v44.4c0,1.7-1.4,3.2-3.2,3.2h-27c-1.7,0-3.2-1.4-3.2-3.2v-44.4
					c0-1.7,1.4-3.2,3.2-3.2h27C1446.1,222.5,1447.5,224,1447.5,225.7z"/>
				<path opacity="0.28" fill="#FFFFFF" d="M1414.2,225.7l30.2,47.6h-27.2c-1.7,0-3-1.3-3-3V225.7z"/>
				<path opacity="0.28" fill="#FFFFFF" d="M1440.5,273.3h-23.3c-1.7,0-3-1.3-3-3v-38.5L1440.5,273.3z"/>
			</g>
			<g>
				<path opacity="0.69" fill="#F0633E" d="M1200.8,219.4h-31c-2,0-3.7,1.7-3.7,3.7v47.8c0,2,1.7,3.7,3.7,3.7h31
					c2,0,3.7-1.7,3.7-3.7v-47.8C1204.5,221,1202.8,219.4,1200.8,219.4z M1201.9,269.2c0,1.7-1.4,3.2-3.2,3.2h-27
					c-1.7,0-3.2-1.4-3.2-3.2v-44.4c0-1.7,1.4-3.2,3.2-3.2h27c1.7,0,3.2,1.4,3.2,3.2V269.2z"/>
				<path opacity="0.69" fill="#F3A768" d="M1201.9,224.7v44.4c0,1.7-1.4,3.2-3.2,3.2h-27c-1.7,0-3.2-1.4-3.2-3.2v-44.4
					c0-1.7,1.4-3.2,3.2-3.2h27C1200.5,221.6,1201.9,223,1201.9,224.7z"/>
				<path opacity="0.28" fill="#FFFFFF" d="M1168.6,224.7l30.2,47.6h-27.2c-1.7,0-3-1.3-3-3V224.7z"/>
				<path opacity="0.28" fill="#FFFFFF" d="M1194.9,272.3h-23.3c-1.7,0-3-1.3-3-3v-38.5L1194.9,272.3z"/>
			</g>
			<g>
				<path opacity="0.69" fill="#F0633E" d="M1253.6,219.4h-31c-2,0-3.7,1.7-3.7,3.7v47.8c0,2,1.7,3.7,3.7,3.7h31
					c2,0,3.7-1.7,3.7-3.7v-47.8C1257.3,221,1255.7,219.4,1253.6,219.4z M1254.8,269.2c0,1.7-1.4,3.2-3.2,3.2h-27
					c-1.7,0-3.2-1.4-3.2-3.2v-44.4c0-1.7,1.4-3.2,3.2-3.2h27c1.7,0,3.2,1.4,3.2,3.2V269.2z"/>
				<path opacity="0.69" fill="#F3A768" d="M1254.8,224.7v44.4c0,1.7-1.4,3.2-3.2,3.2h-27c-1.7,0-3.2-1.4-3.2-3.2v-44.4
					c0-1.7,1.4-3.2,3.2-3.2h27C1253.4,221.6,1254.8,223,1254.8,224.7z"/>
				<path opacity="0.28" fill="#FFFFFF" d="M1221.4,224.7l30.2,47.6h-27.2c-1.7,0-3-1.3-3-3V224.7z"/>
				<path opacity="0.28" fill="#FFFFFF" d="M1247.7,272.3h-23.3c-1.7,0-3-1.3-3-3v-38.5L1247.7,272.3z"/>
			</g>
			<path opacity="0.69" fill="#FBBD16" d="M1337.2,290.7h-58.7V240c0-2.3,1.9-4.2,4.2-4.2h50.2c2.3,0,4.2,1.9,4.2,4.2V290.7z"/>
			<rect x="1307.1" y="235.8" fill="#0A4B7E" width="1.6" height="54.9"/>
			<circle fill="#0A4B7E" cx="1315.2" cy="267.8" r="1.9"/>
			<circle fill="#0A4B7E" cx="1299.2" cy="267.8" r="1.9"/>
			<g opacity="0.18">
				<rect x="1161" y="55.4" fill="none" stroke="#064C7D" stroke-miterlimit="10" width="299.5" height="112"/>
				<line fill="none" stroke="#064C7D" stroke-miterlimit="10" x1="1161" y1="130.1" x2="1460.5" y2="130.1"/>
				<line fill="none" stroke="#064C7D" stroke-miterlimit="10" x1="1161" y1="92.8" x2="1460.5" y2="92.8"/>
				<line fill="none" stroke="#064C7D" stroke-miterlimit="10" x1="1417.7" y1="55.4" x2="1417.7" y2="167.5"/>
				<line fill="none" stroke="#064C7D" stroke-miterlimit="10" x1="1374.9" y1="55.4" x2="1374.9" y2="167.5"/>
				<line fill="none" stroke="#064C7D" stroke-miterlimit="10" x1="1332.1" y1="55.4" x2="1332.1" y2="167.5"/>
				<line fill="none" stroke="#064C7D" stroke-miterlimit="10" x1="1289.3" y1="55.4" x2="1289.3" y2="167.5"/>
				<line fill="none" stroke="#064C7D" stroke-miterlimit="10" x1="1246.6" y1="55.4" x2="1246.6" y2="167.5"/>
				<line fill="none" stroke="#064C7D" stroke-miterlimit="10" x1="1203.8" y1="55.4" x2="1203.8" y2="167.5"/>
			</g>
			<path fill="#EE806C" d="M1450.7,46.4h-283.5c-8.7,0-15.9,7.1-15.9,15.9v95.8c0,8.7,7.1,15.9,15.9,15.9h283.5
				c8.7,0,15.9-7.1,15.9-15.9V62.2C1466.5,53.5,1459.4,46.4,1450.7,46.4z M1456.6,146.2c0,8.7-7.1,15.9-15.9,15.9h-261.7
				c-8.7,0-15.9-7.1-15.9-15.9V74.8c0-8.7,7.1-15.9,15.9-15.9h261.7c8.7,0,15.9,7.1,15.9,15.9V146.2z"/>
		</g>
		<polygon fill="#B8D887" points="211.8,615.8 -356.5,615.8 -356.8,615.3 -356.8,565.6 185.5,565.6 198.7,590.7 210.3,613.1 		"/>
		<g>
			<ellipse fill="#0EA797" cx="-159.1" cy="252.8" rx="20.3" ry="6.8"/>
			<path fill="#8D7755" d="M-172,230.7v19.9c0,0,13.8,11.4,25.9,0V229L-172,230.7z"/>
			<path opacity="0.54" fill="#D4B080" d="M-172,234.4c0,0,15.7,10.8,25.9,0V229l-25.9-1.4V234.4z"/>
			<path opacity="0.54" fill="#D4B080" d="M-172,237.6c0,0,15.7,10.8,25.9,0v-5.4l-25.9-1.4V237.6z"/>
			<path fill="#6EC38C" d="M-188.9,192.1l-15.2,20.5c-1.3,1.8-0.9,4.3,0.9,5.6c11.8,8.1,53.5,32.4,88.1-0.8c1.4-1.4,1.6-3.6,0.4-5.2
				l-15.3-20.1c-0.7-1-1.9-1.6-3.1-1.6h-52.6C-186.9,190.5-188.1,191.1-188.9,192.1z"/>
			<path fill="#6EC38C" d="M-178.6,174.6l-9.8,12.4c-0.9,1.2-1.1,2.8-0.4,4.1c2.4,4.5,9.3,13.9,26.1,15.2
				c17.1,1.3,28.1-9.4,32.2-14.3c1.1-1.3,1.2-3.3,0.1-4.7l-8.6-11.8c-0.7-1-1.8-1.5-3-1.6l-33.6,0.1
				C-176.7,174.2-177.8,173.7-178.6,174.6z"/>
			<path fill="#B8D887" d="M-181.6,178.5c0,0,23.7,13.2,44.8,0l-3.2-4.3h-19.3h-19L-181.6,178.5z"/>
			<path opacity="0.54" fill="#D4B080" d="M-146.2,243.7v3.2c-10.1,10.8-25.9,0-25.9,0v-3.2C-172,243.7-156.3,254.5-146.2,243.7z"/>
			<path fill="#129280" d="M-188.7,191.2c0,0,26.7,19,58.3,1l5.2,6c0,0-19.6,27.2-68.7,0.8L-188.7,191.2z"/>
			<path fill="#0EA797" d="M-164.1,147.8l-13.7,23.4c-1.6,2.7-0.3,6.3,2.7,7.3c6.4,2.2,17.8,4.3,31.7-0.1c3.1-1,4.5-4.7,2.7-7.5
				l-14.8-23.2C-157.6,144.4-162.2,144.5-164.1,147.8z"/>
		</g>
		<ellipse opacity="0.49" fill="#B8D887" cx="576.4" cy="240.8" rx="37.6" ry="14.9"/>
		<g>
			<ellipse opacity="0.49" fill="#B8D887" cx="486" cy="86" rx="37.6" ry="14.9"/>
			<g>
				<ellipse fill="#0EA797" cx="485.3" cy="86" rx="26.5" ry="8.9"/>
				<path fill="#8D7755" d="M468.5,57.3v26c0,0,18.1,14.9,33.7,0V55L468.5,57.3z"/>
				<path opacity="0.54" fill="#D4B080" d="M468.5,62.1c0,0,20.5,14.1,33.7,0V55l-33.7-1.8V62.1z"/>
				<path opacity="0.54" fill="#D4B080" d="M468.5,66.2c0,0,20.5,14.1,33.7,0v-7.1l-33.7-1.8V66.2z"/>
				<path fill="#6EC38C" d="M446.5,6.9l-19.8,26.8c-1.7,2.3-1.2,5.6,1.2,7.3c15.4,10.6,69.8,42.3,114.9-1.1c1.9-1.8,2.1-4.7,0.5-6.8
					l-20-26.2c-1-1.3-2.5-2-4.1-2h-68.7C449,4.8,447.5,5.6,446.5,6.9z"/>
				<path fill="#6EC38C" d="M460-15.9L447.2,0.3c-1.2,1.5-1.4,3.7-0.5,5.4c3.1,5.8,12.1,18.2,34,19.9c22.4,1.7,36.7-12.2,42-18.6
					c1.5-1.8,1.5-4.3,0.2-6.1l-11.2-15.3c-0.9-1.2-2.3-2-3.9-2l-43.8,0.1C462.5-16.5,461-17.1,460-15.9z"/>
				<path fill="#B8D887" d="M456-10.8c0,0,30.9,17.2,58.4,0l-4.1-5.6h-25.1h-24.7L456-10.8z"/>
				<path opacity="0.54" fill="#D4B080" d="M502.2,74.3v4.1c-13.2,14.1-33.7,0-33.7,0v-4.1C468.5,74.3,489,88.3,502.2,74.3z"/>
				<path fill="#129280" d="M446.7,5.7c0,0,34.9,24.8,76.1,1.3l6.7,7.9c0,0-25.6,35.5-89.6,1L446.7,5.7z"/>
				<path fill="#0EA797" d="M478.8-50.9l-17.9,30.5c-2.1,3.6-0.4,8.2,3.5,9.5c8.3,2.8,23.2,5.7,41.4-0.1c4.1-1.3,5.8-6.2,3.5-9.8
					L490-51.1C487.4-55.3,481.3-55.2,478.8-50.9z"/>
			</g>
		</g>
		<polygon fill="#B8D887" points="685.8,573 597.6,573 280.4,353.3 368.7,353.3 		"/>
		<polygon fill="#B8D887" points="724.2,573 635.9,573 318.8,353.3 407,353.3 		"/>
		<polygon fill="#6EC38C" points="724.2,573 708.7,573 391.6,353.3 407,353.3 		"/>
		<polygon fill="#6EC38C" points="597.6,573 582.1,573 264.9,353.3 280.4,353.3 		"/>
		<polygon fill="#B8D887" points="733.7,358.3 165.4,358.3 139.2,308.1 707.4,308.1 732.2,355.6 		"/>
		<g>
			<path fill="#FED38B" d="M478,262.9h-209c-3.4,0-6.2-2.8-6.2-6.2v-97.1h221.4v97.1C484.2,260.1,481.4,262.9,478,262.9z"/>
			<g opacity="0.54">
				<path fill="#FAAC1B" d="M481.5,186.1c-2.8,0-4.9-1.6-6.3-4c-1.5,2.4-3.5,4-6.3,4s-4.9-1.6-6.3-4c-1.5,2.4-3.5,4-6.3,4
					c-2.8,0-4.9-1.6-6.3-4c-1.5,2.4-3.5,4-6.3,4c-2.8,0-4.9-1.6-6.3-4c-1.5,2.4-3.5,4-6.3,4c-2.8,0-4.9-1.6-6.3-4
					c-1.5,2.4-3.5,4-6.3,4c-2.8,0-4.9-1.6-6.3-4c-1.5,2.4-3.5,4-6.3,4c-2.8,0-4.9-1.6-6.3-4c-1.5,2.4-3.5,4-6.3,4
					c-2.8,0-4.9-1.6-6.3-4c-1.5,2.4-3.5,4-6.3,4c-2.8,0-4.9-1.6-6.3-4c-1.5,2.4-3.5,4-6.3,4c-2.8,0-4.9-1.6-6.3-4
					c-1.5,2.4-3.5,4-6.3,4c-2.8,0-4.9-1.6-6.3-4c-1.5,2.4-3.5,4-6.3,4c-2.8,0-4.9-1.6-6.3-4c-1.5,2.4-3.5,4-6.3,4
					c-2.8,0-4.9-1.6-6.3-4c-1.5,2.4-3.5,4-6.3,4c-2.8,0-4.9-1.6-6.3-4c-1.5,2.4-3.5,4-6.3,4s-4.9-1.6-6.3-4c-1.5,2.4-3.5,4-6.3,4
					c-2.8,0-4.9-1.6-6.3-4c-1.5,2.4-3.5,4-6.3,4c-2.8,0-4.9-1.6-6.3-4c-1.5,2.4-3.5,4-6.3,4c-11.7,0-9.9-27-9.9-27h235.2
					C491.4,159.2,493.2,186.1,481.5,186.1z"/>
			</g>
			<g opacity="0.41">
				<path fill="#9C7F2E" d="M475.4,175.5c-2.7,0-4.6-0.8-6-2c-1.4,1.2-3.3,2-6,2c-2.7,0-4.6-0.8-6-2c-1.4,1.2-3.3,2-6,2
					s-4.6-0.8-6-2c-1.4,1.2-3.3,2-6,2c-2.7,0-4.6-0.8-6-2c-1.4,1.2-3.3,2-6,2c-2.7,0-4.6-0.8-6-2c-1.4,1.2-3.3,2-6,2
					c-2.7,0-4.6-0.8-6-2c-1.4,1.2-3.3,2-6,2c-2.7,0-4.6-0.8-6-2c-1.4,1.2-3.3,2-6,2c-2.7,0-4.6-0.8-6-2c-1.4,1.2-3.3,2-6,2
					s-4.6-0.8-6-2c-1.4,1.2-3.3,2-6,2c-2.7,0-4.6-0.8-6-2c-1.4,1.2-3.3,2-6,2s-4.6-0.8-6-2c-1.4,1.2-3.3,2-6,2c-2.7,0-4.6-0.8-6-2
					c-1.4,1.2-3.3,2-6,2c-2.7,0-4.6-0.8-6-2c-1.4,1.2-3.3,2-6,2c-2.7,0-4.6-0.8-6-2c-1.4,1.2-3.3,2-6,2s-4.6-0.8-6-2
					c-1.4,1.2-3.3,2-6,2c-2.7,0-4.6-0.8-6-2c-1.4,1.2-3.3,2-6,2c-2.7,0-4.6-0.8-6-2c-1.4,1.2-3.3,2-6,2c-11,0-9.3-13.4-9.3-13.4
					h221.8C484.7,162.1,486.4,175.5,475.4,175.5z"/>
			</g>
			<path fill="#F0774A" d="M348.7,262.9h-46.3v-52.8c0-1.1,0.9-1.9,1.9-1.9h42.5c1.1,0,1.9,0.9,1.9,1.9V262.9z"/>
			<path fill="#EF522A" d="M483.8,159.6H263.1c-4.1,0-7.4-3.3-7.4-7.4V38.4c0-5,4.1-9.1,9.1-9.1h217.2c5,0,9.1,4.1,9.1,9.1v113.8
				C491.2,156.3,487.9,159.6,483.8,159.6z"/>
			<polygon fill="#FFCC5E" points="255,58.5 490.5,58.5 494.3,67.4 251.9,66.7 			"/>
			<rect x="255.7" y="69.6" opacity="0.51" fill="#F68E6E" width="235.5" height="5"/>
			<rect x="262.7" y="159.6" opacity="0.49" fill="#DCA031" width="221.4" height="4.9"/>
			<rect x="262.7" y="159.6" opacity="0.67" fill="#DCA031" width="221.4" height="2.5"/>
			<path fill="#EF522A" d="M491.2,69.6v82.6c0,4.1-3.3,7.4-7.4,7.4H263.1c-4.1,0-7.4-3.3-7.4-7.4V69.6H491.2z"/>
			<rect x="255.7" y="74.6" opacity="0.49" fill="#F58573" width="235.5" height="7.1"/>
			<rect x="255.7" y="78.2" opacity="0.49" fill="#F58573" width="235.5" height="10.7"/>
			<polygon fill="#FBB82F" points="494.3,67.4 490.5,72.1 255,72.1 251.9,66.7 			"/>
			<rect x="271.8" y="88.9" opacity="0.49" fill="#F58573" width="5.6" height="70.7"/>
			<rect x="271.8" y="29" opacity="0.49" fill="#F58573" width="5.6" height="29.5"/>
			<rect x="282.5" y="29" opacity="0.49" fill="#F58573" width="5.6" height="29.5"/>
			<rect x="293.3" y="29" opacity="0.49" fill="#F58573" width="5.6" height="29.5"/>
			<rect x="304" y="29" opacity="0.49" fill="#F58573" width="5.6" height="29.5"/>
			<rect x="314.8" y="29" opacity="0.49" fill="#F58573" width="5.6" height="29.5"/>
			<rect x="325.5" y="29" opacity="0.49" fill="#F58573" width="5.6" height="29.5"/>
			<rect x="336.3" y="29" opacity="0.49" fill="#F58573" width="5.6" height="29.5"/>
			<rect x="347" y="29" opacity="0.49" fill="#F58573" width="5.6" height="29.5"/>
			<rect x="357.7" y="29" opacity="0.49" fill="#F58573" width="5.6" height="29.5"/>
			<rect x="368.5" y="29" opacity="0.49" fill="#F58573" width="5.6" height="29.5"/>
			<rect x="379.2" y="29" opacity="0.49" fill="#F58573" width="5.6" height="29.5"/>
			<rect x="390" y="29" opacity="0.49" fill="#F58573" width="5.6" height="29.5"/>
			<rect x="400.7" y="29" opacity="0.49" fill="#F58573" width="5.6" height="29.5"/>
			<rect x="411.4" y="29" opacity="0.49" fill="#F58573" width="5.6" height="29.5"/>
			<rect x="422.2" y="29" opacity="0.49" fill="#F58573" width="5.6" height="29.5"/>
			<rect x="432.9" y="29" opacity="0.49" fill="#F58573" width="5.6" height="29.5"/>
			<rect x="443.7" y="29" opacity="0.49" fill="#F58573" width="5.6" height="29.5"/>
			<rect x="454.4" y="29" opacity="0.49" fill="#F58573" width="5.6" height="29.5"/>
			<rect x="465.2" y="29" opacity="0.49" fill="#F58573" width="5.6" height="29.5"/>
			<rect x="282.5" y="88.9" opacity="0.49" fill="#F58573" width="5.6" height="70.7"/>
			<rect x="293.3" y="88.9" opacity="0.49" fill="#F58573" width="5.6" height="70.7"/>
			<rect x="304" y="88.9" opacity="0.49" fill="#F58573" width="5.6" height="70.7"/>
			<rect x="314.8" y="88.9" opacity="0.49" fill="#F58573" width="5.6" height="70.7"/>
			<rect x="325.5" y="88.9" opacity="0.49" fill="#F58573" width="5.6" height="70.7"/>
			<rect x="336.3" y="88.9" opacity="0.49" fill="#F58573" width="5.6" height="70.7"/>
			<rect x="347" y="88.9" opacity="0.49" fill="#F58573" width="5.6" height="70.7"/>
			<rect x="357.7" y="88.9" opacity="0.49" fill="#F58573" width="5.6" height="70.7"/>
			<rect x="368.5" y="88.9" opacity="0.49" fill="#F58573" width="5.6" height="70.7"/>
			<rect x="379.2" y="88.9" opacity="0.49" fill="#F58573" width="5.6" height="70.7"/>
			<rect x="390" y="88.9" opacity="0.49" fill="#F58573" width="5.6" height="70.7"/>
			<rect x="400.7" y="88.9" opacity="0.49" fill="#F58573" width="5.6" height="70.7"/>
			<rect x="411.4" y="88.9" opacity="0.49" fill="#F58573" width="5.6" height="70.7"/>
			<rect x="422.2" y="88.9" opacity="0.49" fill="#F58573" width="5.6" height="70.7"/>
			<rect x="432.9" y="88.9" opacity="0.49" fill="#F58573" width="5.6" height="70.7"/>
			<rect x="443.7" y="88.9" opacity="0.49" fill="#F58573" width="5.6" height="70.7"/>
			<rect x="454.4" y="88.9" opacity="0.49" fill="#F58573" width="5.6" height="70.7"/>
			<rect x="465.2" y="88.9" opacity="0.49" fill="#F58573" width="5.6" height="70.7"/>
			<path opacity="0.49" fill="#E9E1E0" d="M345,262.9h-38.9v-48.9c0-0.9,0.8-1.7,1.7-1.7h35.6c0.9,0,1.7,0.8,1.7,1.7V262.9z"/>
			<rect x="323.8" y="212.3" opacity="0.27" fill="#C87F2A" width="3.5" height="50.6"/>
			<rect x="323.2" y="212.3" opacity="0.27" fill="#C87F2A" width="0.6" height="50.6"/>
			<rect x="327.2" y="212.3" opacity="0.27" fill="#C87F2A" width="0.6" height="50.6"/>
			<rect x="325.5" y="212.3" fill="#AE5335" width="0.5" height="50.6"/>
			<rect x="325" y="212.3" fill="#AE5335" width="0.5" height="50.6"/>
			<circle opacity="0.3" fill="#4E1C1B" cx="319.6" cy="241" r="0.8"/>
			<circle opacity="0.3" fill="#4E1C1B" cx="331.7" cy="241" r="0.8"/>
			<path fill="#F68E6E" d="M457.6,248.6h-70.8c-1.4,0-2.5-1.1-2.5-2.5v-30.9c0-1.4,1.1-2.5,2.5-2.5h70.8c1.4,0,2.5,1.1,2.5,2.5v30.9
				C460.2,247.5,459,248.6,457.6,248.6z"/>
			<g>
				<path fill="#F68E6E" d="M255.9,152.5c0,0-1.8,27,9.9,27c11.7,0,9.9-27,9.9-27H255.9z"/>
				<path fill="#F68E6E" d="M268.6,152.5c0,0-1.8,27,9.9,27s9.9-27,9.9-27H268.6z"/>
				<path fill="#F68E6E" d="M281.3,152.5c0,0-1.8,27,9.9,27s9.9-27,9.9-27H281.3z"/>
				<path fill="#F68E6E" d="M293.9,152.5c0,0-1.8,27,9.9,27s9.9-27,9.9-27H293.9z"/>
				<path fill="#F68E6E" d="M306.6,152.5c0,0-1.8,27,9.9,27c11.7,0,9.9-27,9.9-27H306.6z"/>
				<path fill="#F68E6E" d="M319.3,152.5c0,0-1.8,27,9.9,27s9.9-27,9.9-27H319.3z"/>
				<path fill="#F68E6E" d="M332,152.5c0,0-1.8,27,9.9,27s9.9-27,9.9-27H332z"/>
				<path fill="#F68E6E" d="M344.6,152.5c0,0-1.8,27,9.9,27s9.9-27,9.9-27H344.6z"/>
				<path fill="#F68E6E" d="M357.3,152.5c0,0-1.8,27,9.9,27s9.9-27,9.9-27H357.3z"/>
				<path fill="#F68E6E" d="M370,152.5c0,0-1.8,27,9.9,27s9.9-27,9.9-27H370z"/>
				<path fill="#F68E6E" d="M382.6,152.5c0,0-1.8,27,9.9,27s9.9-27,9.9-27H382.6z"/>
				<path fill="#F68E6E" d="M395.3,152.5c0,0-1.8,27,9.9,27s9.9-27,9.9-27H395.3z"/>
				<path fill="#F68E6E" d="M408,152.5c0,0-1.8,27,9.9,27s9.9-27,9.9-27H408z"/>
				<path fill="#F68E6E" d="M420.7,152.5c0,0-1.8,27,9.9,27s9.9-27,9.9-27H420.7z"/>
				<path fill="#F68E6E" d="M433.3,152.5c0,0-1.8,27,9.9,27s9.9-27,9.9-27H433.3z"/>
				<path fill="#F68E6E" d="M446,152.5c0,0-1.8,27,9.9,27s9.9-27,9.9-27H446z"/>
				<path fill="#F68E6E" d="M458.7,152.5c0,0-1.8,27,9.9,27s9.9-27,9.9-27H458.7z"/>
				<path fill="#F68E6E" d="M471.4,152.5c0,0-1.8,27,9.9,27s9.9-27,9.9-27H471.4z"/>
			</g>
			<rect x="255.9" y="152.5" fill="#F0774A" width="235.3" height="6.8"/>
			<g opacity="0.22">
				<path fill="#FFFFFF" d="M452.8,229.3c0,6.4-5.1,11.5-11.5,11.5c-6.4,0-11.5-5.1-11.5-11.5"/>
				<path fill="#FFFFFF" d="M452.1,229.3c0,6.4-5.1,11.5-11.5,11.5s-11.5-5.1-11.5-11.5"/>
				<path fill="#FFFFFF" d="M452.6,229.3c-1.8,0-3.3,1.5-3.3,3.3c0,1.8,1.5,3.3,3.3,3.3s3.3-1.5,3.3-3.3
					C455.9,230.8,454.4,229.3,452.6,229.3z M452.6,235c-1.3,0-2.4-1.1-2.4-2.4c0-1.3,1.1-2.4,2.4-2.4c1.3,0,2.4,1.1,2.4,2.4
					C455,233.9,453.9,235,452.6,235z"/>
				<rect x="429.1" y="228" fill="#FFFFFF" width="23.7" height="1.3"/>
				<line fill="#FFFFFF" x1="445.5" y1="240.2" x2="437.2" y2="240.2"/>
				<polygon fill="#FFFFFF" points="445.9,241.5 436.4,241.5 437,240.1 445.3,240.1 				"/>
			</g>
			<text transform="matrix(1.1397 0 0 1 393.8496 228.9463)"><tspan x="0" y="0" fill="#AE5335" font-family="'Pixel-Noir-Regular'" font-size="5.9271">Sophie</tspan><tspan x="0" y="13.8" fill="#AE5335" font-family="'Pixel-Noir-Regular'" font-size="5.9271">Cafe</tspan></text>
			<path opacity="0.34" fill="#FFFFFF" d="M439.7,227.8c0,0,1.1-0.5,0.7-1.7c-0.5-1.1-1.4-3.1,0-4.2c0,0-1.2,2,1.1,3
				C443.7,225.8,442.9,228.8,439.7,227.8z"/>
			<g>
				<path fill="#F0774A" d="M457.6,212.6c1.4,0,2.6,1.1,2.6,2.6V246c0,1.4-1.1,2.6-2.6,2.6h-70.8c-1.4,0-2.6-1.1-2.6-2.6v-30.9
					c0-1.4,1.1-2.6,2.6-2.6H457.6 M457.6,209.8h-70.8c-3,0-5.4,2.4-5.4,5.4V246c0,3,2.4,5.4,5.4,5.4h70.8c3,0,5.4-2.4,5.4-5.4v-30.9
					C463,212.2,460.6,209.8,457.6,209.8L457.6,209.8z"/>
			</g>
			<polygon opacity="0.22" fill="#FFFFFF" points="460.2,248.6 384.2,212.6 460.2,212.6 			"/>
		</g>
		<g>
			<ellipse opacity="0.49" fill="#B8D887" cx="926.4" cy="113.7" rx="37.6" ry="14.9"/>
			<ellipse fill="#0EA797" cx="926.7" cy="113.5" rx="26.5" ry="8.9"/>
			<path fill="#8D7755" d="M909.8,84.8v26c0,0,18.1,14.9,33.7,0V82.5L909.8,84.8z"/>
			<path opacity="0.54" fill="#D4B080" d="M909.8,89.6c0,0,20.5,14.1,33.7,0v-7.1l-33.7-1.8V89.6z"/>
			<path opacity="0.54" fill="#D4B080" d="M909.8,93.7c0,0,20.5,14.1,33.7,0v-7.1l-33.7-1.8V93.7z"/>
			<path fill="#6EC38C" d="M887.9,34.4l-19.8,26.8c-1.7,2.3-1.2,5.6,1.2,7.3c15.4,10.6,69.8,42.3,114.9-1.1c1.9-1.8,2.1-4.7,0.5-6.8
				l-20-26.2c-1-1.3-2.5-2-4.1-2H892C890.4,32.3,888.8,33.1,887.9,34.4z"/>
			<path fill="#6EC38C" d="M901.3,11.5l-12.8,16.2c-1.2,1.5-1.4,3.7-0.5,5.4c3.1,5.8,12.1,18.2,34,19.9c22.4,1.7,36.7-12.2,42-18.6
				c1.5-1.8,1.5-4.3,0.2-6.1L953,13c-0.9-1.2-2.3-2-3.9-2L905.4,11C903.8,11,902.3,10.3,901.3,11.5z"/>
			<path fill="#B8D887" d="M897.3,16.6c0,0,30.9,17.2,58.4,0l-4.1-5.6h-25.1h-24.7L897.3,16.6z"/>
			<path opacity="0.54" fill="#D4B080" d="M943.5,101.7v4.1c-13.2,14.1-33.7,0-33.7,0v-4.1C909.8,101.7,930.3,115.8,943.5,101.7z"/>
			<path fill="#129280" d="M888,33.2c0,0,34.9,24.8,76.1,1.3l6.7,7.9c0,0-25.6,35.5-89.6,1L888,33.2z"/>
			<path fill="#0EA797" d="M920.1-23.5L902.2,7c-2.1,3.6-0.4,8.2,3.5,9.5c8.3,2.8,23.2,5.7,41.4-0.1c4.1-1.3,5.8-6.2,3.5-9.8
				l-19.3-30.3C928.7-27.8,922.6-27.7,920.1-23.5z"/>
		</g>
		<g>
			<ellipse opacity="0.49" fill="#B8D887" cx="786.1" cy="102.4" rx="28.9" ry="11.4"/>
			<g>
				<ellipse fill="#0EA797" cx="785.6" cy="102.8" rx="19.8" ry="6.7"/>
				<path fill="#8D7755" d="M773,81.2v19.5c0,0,13.5,11.2,25.3,0V79.5L773,81.2z"/>
				<path opacity="0.54" fill="#D4B080" d="M773,84.8c0,0,15.4,10.5,25.3,0v-5.3L773,78.2V84.8z"/>
				<path opacity="0.54" fill="#D4B080" d="M773,87.9c0,0,15.4,10.5,25.3,0v-5.3L773,81.3V87.9z"/>
				<path fill="#6EC38C" d="M756.5,43.5l-14.8,20.1c-1.3,1.7-0.9,4.2,0.9,5.4c11.6,7.9,52.3,31.7,86.1-0.8c1.4-1.4,1.6-3.6,0.4-5.1
					l-15-19.7c-0.7-1-1.9-1.5-3.1-1.5h-51.5C758.4,41.9,757.2,42.5,756.5,43.5z"/>
				<path fill="#6EC38C" d="M766.6,26.4L757,38.5c-0.9,1.2-1.1,2.7-0.4,4c2.3,4.4,9.1,13.6,25.5,14.9c16.8,1.3,27.5-9.1,31.5-14
					c1.1-1.3,1.1-3.2,0.1-4.6l-8.4-11.5c-0.7-0.9-1.8-1.5-2.9-1.5L769.6,26C768.4,25.9,767.3,25.4,766.6,26.4z"/>
				<path fill="#B8D887" d="M763.6,30.2c0,0,23.2,12.9,43.8,0l-3.1-4.2h-18.8h-18.5L763.6,30.2z"/>
				<path opacity="0.54" fill="#D4B080" d="M798.2,93.9V97c-9.9,10.5-25.3,0-25.3,0v-3.1C773,93.9,788.3,104.5,798.2,93.9z"/>
				<path fill="#129280" d="M756.6,42.6c0,0,26.1,18.6,57,1l5,5.9c0,0-19.2,26.6-67.1,0.8L756.6,42.6z"/>
				<path fill="#0EA797" d="M780.7,0.1L767.2,23c-1.6,2.7-0.3,6.2,2.6,7.1c6.2,2.1,17.4,4.2,31-0.1c3.1-1,4.4-4.6,2.6-7.3L789.1,0
					C787.1-3.1,782.6-3.1,780.7,0.1z"/>
			</g>
		</g>
		<g>
			<ellipse fill="#0EA797" cx="175.6" cy="255.4" rx="19.8" ry="6.7"/>
			<path fill="#8D7755" d="M163,233.9v19.5c0,0,13.5,11.2,25.3,0v-21.2L163,233.9z"/>
			<path opacity="0.54" fill="#D4B080" d="M163,237.5c0,0,15.4,10.5,25.3,0v-5.3l-25.3-1.3V237.5z"/>
			<path opacity="0.54" fill="#D4B080" d="M163,240.6c0,0,15.4,10.5,25.3,0v-5.3L163,234V240.6z"/>
			<path fill="#6EC38C" d="M146.5,196.1l-14.8,20.1c-1.3,1.7-0.9,4.2,0.9,5.4c11.6,7.9,52.3,31.7,86.1-0.8c1.4-1.4,1.6-3.6,0.4-5.1
				l-15-19.7c-0.7-1-1.9-1.5-3.1-1.5h-51.5C148.4,194.6,147.3,195.2,146.5,196.1z"/>
			<path fill="#6EC38C" d="M156.6,179l-9.6,12.2c-0.9,1.2-1.1,2.7-0.4,4c2.3,4.4,9.1,13.6,25.5,14.9c16.8,1.3,27.5-9.1,31.5-14
				c1.1-1.3,1.1-3.2,0.1-4.6l-8.4-11.5c-0.7-0.9-1.8-1.5-2.9-1.5l-32.8,0.1C158.5,178.6,157.4,178.1,156.6,179z"/>
			<path fill="#B8D887" d="M153.6,182.8c0,0,23.2,12.9,43.8,0l-3.1-4.2h-18.8h-18.5L153.6,182.8z"/>
			<path opacity="0.54" fill="#D4B080" d="M188.3,246.6v3.1c-9.9,10.5-25.3,0-25.3,0v-3.1C163,246.6,178.4,257.1,188.3,246.6z"/>
			<path fill="#129280" d="M146.7,195.2c0,0,26.1,18.6,57,1l5,5.9c0,0-19.2,26.6-67.1,0.8L146.7,195.2z"/>
			<path fill="#0EA797" d="M170.7,152.8l-13.4,22.9c-1.6,2.7-0.3,6.2,2.6,7.1c6.2,2.1,17.4,4.2,31-0.1c3.1-1,4.4-4.6,2.6-7.3
				l-14.5-22.7C177.1,149.5,172.6,149.6,170.7,152.8z"/>
		</g>
		<g>
			<ellipse fill="#0EA797" cx="-273.3" cy="279.5" rx="19.8" ry="6.7"/>
			<path fill="#8D7755" d="M-285.9,258v19.5c0,0,13.5,11.2,25.3,0v-21.2L-285.9,258z"/>
			<path opacity="0.54" fill="#D4B080" d="M-285.9,261.6c0,0,15.4,10.5,25.3,0v-5.3l-25.3-1.3V261.6z"/>
			<path opacity="0.54" fill="#D4B080" d="M-285.9,264.6c0,0,15.4,10.5,25.3,0v-5.3l-25.3-1.3V264.6z"/>
			<path fill="#6EC38C" d="M-302.4,220.2l-14.8,20.1c-1.3,1.7-0.9,4.2,0.9,5.4c11.6,7.9,52.3,31.7,86.1-0.8c1.4-1.4,1.6-3.6,0.4-5.1
				l-15-19.7c-0.7-1-1.9-1.5-3.1-1.5h-51.5C-300.5,218.6-301.7,219.2-302.4,220.2z"/>
			<path fill="#6EC38C" d="M-292.3,203.1l-9.6,12.2c-0.9,1.2-1.1,2.7-0.4,4c2.3,4.4,9.1,13.6,25.5,14.9c16.8,1.3,27.5-9.1,31.5-14
				c1.1-1.3,1.1-3.2,0.1-4.6l-8.4-11.5c-0.7-0.9-1.8-1.5-2.9-1.5l-32.8,0.1C-290.5,202.6-291.6,202.2-292.3,203.1z"/>
			<path fill="#B8D887" d="M-295.3,206.9c0,0,23.2,12.9,43.8,0l-3.1-4.2h-18.8H-292L-295.3,206.9z"/>
			<path opacity="0.54" fill="#D4B080" d="M-260.7,270.7v3.1c-9.9,10.5-25.3,0-25.3,0v-3.1C-285.9,270.7-270.6,281.2-260.7,270.7z"
				/>
			<path fill="#129280" d="M-302.3,219.3c0,0,26.1,18.6,57,1l5,5.9c0,0-19.2,26.6-67.1,0.8L-302.3,219.3z"/>
			<path fill="#0EA797" d="M-278.2,176.8l-13.4,22.9c-1.6,2.7-0.3,6.2,2.6,7.1c6.2,2.1,17.4,4.2,31-0.1c3.1-1,4.4-4.6,2.6-7.3
				l-14.5-22.7C-271.8,173.6-276.3,173.7-278.2,176.8z"/>
		</g>
		<g>
			<ellipse fill="#0EA797" cx="718.5" cy="209.1" rx="14.7" ry="4.9"/>
			<path fill="#8D7755" d="M709.2,193.1v14.4c0,0,10,8.3,18.7,0v-15.7L709.2,193.1z"/>
			<path opacity="0.54" fill="#D4B080" d="M709.2,195.8c0,0,11.4,7.8,18.7,0v-3.9l-18.7-1V195.8z"/>
			<path opacity="0.54" fill="#D4B080" d="M709.2,198.1c0,0,11.4,7.8,18.7,0v-3.9l-18.7-1V198.1z"/>
			<path fill="#6EC38C" d="M697,165.2l-11,14.9c-1,1.3-0.7,3.1,0.7,4c8.6,5.9,38.7,23.4,63.7-0.6c1-1,1.2-2.6,0.3-3.8l-11.1-14.5
				c-0.5-0.7-1.4-1.1-2.3-1.1h-38.1C698.4,164.1,697.6,164.5,697,165.2z"/>
			<path fill="#6EC38C" d="M704.5,152.6l-7.1,9c-0.7,0.9-0.8,2-0.3,3c1.7,3.2,6.7,10.1,18.9,11c12.4,1,20.3-6.8,23.3-10.3
				c0.8-1,0.8-2.4,0.1-3.4l-6.2-8.5c-0.5-0.7-1.3-1.1-2.1-1.1l-24.3,0C705.9,152.2,705,151.9,704.5,152.6z"/>
			<path fill="#B8D887" d="M702.3,155.4c0,0,17.1,9.6,32.4,0l-2.3-3.1h-13.9h-13.7L702.3,155.4z"/>
			<path opacity="0.54" fill="#D4B080" d="M727.9,202.5v2.3c-7.3,7.8-18.7,0-18.7,0v-2.3C709.2,202.5,720.6,210.3,727.9,202.5z"/>
			<path fill="#129280" d="M697.1,164.5c0,0,19.3,13.7,42.2,0.7l3.7,4.4c0,0-14.2,19.7-49.6,0.6L697.1,164.5z"/>
			<path fill="#0EA797" d="M714.9,133.1l-9.9,16.9c-1.2,2-0.2,4.6,2,5.3c4.6,1.6,12.9,3.1,22.9-0.1c2.3-0.7,3.2-3.4,2-5.4L721.1,133
				C719.6,130.7,716.3,130.8,714.9,133.1z"/>
		</g>
		<g>
			<ellipse fill="#0EA797" cx="370" cy="541.9" rx="16.3" ry="5.5"/>
			<path fill="#8D7755" d="M359.6,524.2v16c0,0,11.2,9.2,20.8,0v-17.5L359.6,524.2z"/>
			<path opacity="0.54" fill="#D4B080" d="M359.6,527.2c0,0,12.7,8.7,20.8,0v-4.4l-20.8-1.1V527.2z"/>
			<path opacity="0.54" fill="#D4B080" d="M359.6,529.7c0,0,12.7,8.7,20.8,0v-4.4l-20.8-1.1V529.7z"/>
			<path fill="#6EC38C" d="M346.1,493.1l-12.2,16.5c-1.1,1.4-0.7,3.5,0.7,4.5c9.5,6.5,43.1,26.1,70.9-0.7c1.2-1.1,1.3-2.9,0.3-4.2
				l-12.3-16.2c-0.6-0.8-1.5-1.2-2.5-1.2h-42.4C347.6,491.8,346.7,492.3,346.1,493.1z"/>
			<path fill="#6EC38C" d="M354.4,479l-7.9,10c-0.7,1-0.9,2.3-0.3,3.3c1.9,3.6,7.5,11.2,21,12.3c13.8,1.1,22.6-7.5,25.9-11.5
				c0.9-1.1,0.9-2.6,0.1-3.8l-6.9-9.5c-0.6-0.8-1.4-1.2-2.4-1.3l-27,0C355.9,478.6,355,478.2,354.4,479z"/>
			<path fill="#B8D887" d="M351.9,482.1c0,0,19.1,10.6,36,0l-2.5-3.5h-15.5h-15.3L351.9,482.1z"/>
			<path opacity="0.54" fill="#D4B080" d="M380.4,534.7v2.5c-8.2,8.7-20.8,0-20.8,0v-2.5C359.6,534.7,372.3,543.3,380.4,534.7z"/>
			<path fill="#129280" d="M346.2,492.4c0,0,21.5,15.3,46.9,0.8l4.1,4.8c0,0-15.8,21.9-55.3,0.6L346.2,492.4z"/>
			<path fill="#0EA797" d="M366,457.4l-11.1,18.8c-1.3,2.2-0.3,5.1,2.2,5.9c5.1,1.7,14.3,3.5,25.5-0.1c2.5-0.8,3.6-3.8,2.2-6
				l-11.9-18.7C371.3,454.7,367.5,454.8,366,457.4z"/>
		</g>
		<g>
			<ellipse fill="#0EA797" cx="-46.3" cy="275.6" rx="16.3" ry="5.5"/>
			<path fill="#8D7755" d="M-56.7,257.9v16c0,0,11.2,9.2,20.8,0v-17.5L-56.7,257.9z"/>
			<path opacity="0.54" fill="#D4B080" d="M-56.7,260.8c0,0,12.7,8.7,20.8,0v-4.4l-20.8-1.1V260.8z"/>
			<path opacity="0.54" fill="#D4B080" d="M-56.7,263.4c0,0,12.7,8.7,20.8,0V259l-20.8-1.1V263.4z"/>
			<path fill="#6EC38C" d="M-70.2,226.7l-12.2,16.5c-1.1,1.4-0.7,3.5,0.7,4.5c9.5,6.5,43.1,26.1,70.9-0.7c1.2-1.1,1.3-2.9,0.3-4.2
				l-12.3-16.2c-0.6-0.8-1.5-1.2-2.5-1.2h-42.4C-68.7,225.5-69.6,225.9-70.2,226.7z"/>
			<path fill="#6EC38C" d="M-61.9,212.7l-7.9,10c-0.7,1-0.9,2.3-0.3,3.3c1.9,3.6,7.5,11.2,21,12.3c13.8,1.1,22.6-7.5,25.9-11.5
				c0.9-1.1,0.9-2.6,0.1-3.8l-6.9-9.5c-0.6-0.8-1.4-1.2-2.4-1.3l-27,0C-60.4,212.3-61.3,211.9-61.9,212.7z"/>
			<path fill="#B8D887" d="M-64.4,215.8c0,0,19.1,10.6,36,0l-2.5-3.5h-15.5h-15.3L-64.4,215.8z"/>
			<path opacity="0.54" fill="#D4B080" d="M-35.8,268.3v2.5c-8.2,8.7-20.8,0-20.8,0v-2.5C-56.7,268.3-44,277-35.8,268.3z"/>
			<path fill="#129280" d="M-70.1,226c0,0,21.5,15.3,46.9,0.8l4.1,4.8c0,0-15.8,21.9-55.3,0.6L-70.1,226z"/>
			<path fill="#0EA797" d="M-50.3,191l-11.1,18.8c-1.3,2.2-0.3,5.1,2.2,5.9c5.1,1.7,14.3,3.5,25.5-0.1c2.5-0.8,3.6-3.8,2.2-6
				l-11.9-18.7C-45,188.4-48.8,188.4-50.3,191z"/>
		</g>
		<g>
			<ellipse fill="#0EA797" cx="-204.7" cy="386.2" rx="16.3" ry="5.5"/>
			<path fill="#8D7755" d="M-215.1,368.5v16c0,0,11.2,9.2,20.8,0v-17.5L-215.1,368.5z"/>
			<path opacity="0.54" fill="#D4B080" d="M-215.1,371.4c0,0,12.7,8.7,20.8,0v-4.4l-20.8-1.1V371.4z"/>
			<path opacity="0.54" fill="#D4B080" d="M-215.1,374c0,0,12.7,8.7,20.8,0v-4.4l-20.8-1.1V374z"/>
			<path fill="#6EC38C" d="M-228.6,337.4l-12.2,16.5c-1.1,1.4-0.7,3.5,0.7,4.5c9.5,6.5,43.1,26.1,70.9-0.7c1.2-1.1,1.3-2.9,0.3-4.2
				l-12.3-16.2c-0.6-0.8-1.5-1.2-2.5-1.2h-42.4C-227.1,336.1-228,336.6-228.6,337.4z"/>
			<path fill="#6EC38C" d="M-220.3,323.3l-7.9,10c-0.7,1-0.9,2.3-0.3,3.3c1.9,3.6,7.5,11.2,21,12.3c13.8,1.1,22.6-7.5,25.9-11.5
				c0.9-1.1,0.9-2.6,0.1-3.8l-6.9-9.5c-0.6-0.8-1.4-1.2-2.4-1.3l-27,0C-218.8,322.9-219.7,322.5-220.3,323.3z"/>
			<path fill="#B8D887" d="M-222.8,326.4c0,0,19.1,10.6,36,0l-2.5-3.5h-15.5H-220L-222.8,326.4z"/>
			<path opacity="0.54" fill="#D4B080" d="M-194.2,378.9v2.5c-8.2,8.7-20.8,0-20.8,0v-2.5C-215.1,378.9-202.4,387.6-194.2,378.9z"/>
			<path fill="#129280" d="M-228.5,336.6c0,0,21.5,15.3,46.9,0.8l4.1,4.8c0,0-15.8,21.9-55.3,0.6L-228.5,336.6z"/>
			<path fill="#0EA797" d="M-208.7,301.7l-11.1,18.8c-1.3,2.2-0.3,5.1,2.2,5.9c5.1,1.7,14.3,3.5,25.5-0.1c2.5-0.8,3.6-3.8,2.2-6
				l-11.9-18.7C-203.4,299-207.2,299-208.7,301.7z"/>
		</g>
		<g>
			<ellipse fill="#0EA797" cx="-273.6" cy="519.1" rx="16.3" ry="5.5"/>
			<path fill="#8D7755" d="M-284,501.4v16c0,0,11.2,9.2,20.8,0V500L-284,501.4z"/>
			<path opacity="0.54" fill="#D4B080" d="M-284,504.4c0,0,12.7,8.7,20.8,0V500l-20.8-1.1V504.4z"/>
			<path opacity="0.54" fill="#D4B080" d="M-284,506.9c0,0,12.7,8.7,20.8,0v-4.4l-20.8-1.1V506.9z"/>
			<path fill="#6EC38C" d="M-297.6,470.3l-12.2,16.5c-1.1,1.4-0.7,3.5,0.7,4.5c9.5,6.5,43.1,26.1,70.9-0.7c1.2-1.1,1.3-2.9,0.3-4.2
				l-12.3-16.2c-0.6-0.8-1.5-1.2-2.5-1.2H-295C-296,469-297,469.5-297.6,470.3z"/>
			<path fill="#6EC38C" d="M-289.3,456.2l-7.9,10c-0.7,1-0.9,2.3-0.3,3.3c1.9,3.6,7.5,11.2,21,12.3c13.8,1.1,22.6-7.5,25.9-11.5
				c0.9-1.1,0.9-2.6,0.1-3.8l-6.9-9.5c-0.6-0.8-1.4-1.2-2.4-1.3l-27,0C-287.7,455.8-288.7,455.4-289.3,456.2z"/>
			<path fill="#B8D887" d="M-291.7,459.3c0,0,19.1,10.6,36,0l-2.5-3.5h-15.5H-289L-291.7,459.3z"/>
			<path opacity="0.54" fill="#D4B080" d="M-263.2,511.9v2.5c-8.2,8.7-20.8,0-20.8,0v-2.5C-284,511.9-271.4,520.5-263.2,511.9z"/>
			<path fill="#129280" d="M-297.5,469.5c0,0,21.5,15.3,46.9,0.8l4.1,4.8c0,0-15.8,21.9-55.3,0.6L-297.5,469.5z"/>
			<path fill="#0EA797" d="M-277.7,434.6l-11.1,18.8c-1.3,2.2-0.3,5.1,2.2,5.9c5.1,1.7,14.3,3.5,25.5-0.1c2.5-0.8,3.6-3.8,2.2-6
				l-11.9-18.7C-272.4,431.9-276.1,432-277.7,434.6z"/>
		</g>
		<g>
			<ellipse fill="#0EA797" cx="235.4" cy="544.1" rx="19.8" ry="6.7"/>
			<path fill="#8D7755" d="M222.7,522.6v19.5c0,0,13.5,11.2,25.3,0v-21.2L222.7,522.6z"/>
			<path opacity="0.54" fill="#D4B080" d="M222.7,526.2c0,0,15.4,10.5,25.3,0v-5.3l-25.3-1.3V526.2z"/>
			<path opacity="0.54" fill="#D4B080" d="M222.7,529.3c0,0,15.4,10.5,25.3,0V524l-25.3-1.3V529.3z"/>
			<path fill="#6EC38C" d="M206.3,484.8l-14.8,20.1c-1.3,1.7-0.9,4.2,0.9,5.4c11.6,7.9,52.3,31.7,86.1-0.8c1.4-1.4,1.6-3.6,0.4-5.1
				l-15-19.7c-0.7-1-1.9-1.5-3.1-1.5h-51.5C208.1,483.3,207,483.9,206.3,484.8z"/>
			<path fill="#6EC38C" d="M216.3,467.7l-9.6,12.2c-0.9,1.2-1.1,2.7-0.4,4c2.3,4.4,9.1,13.6,25.5,14.9c16.8,1.3,27.5-9.1,31.5-14
				c1.1-1.3,1.1-3.2,0.1-4.6l-8.4-11.5c-0.7-0.9-1.8-1.5-2.9-1.5l-32.8,0.1C218.2,467.3,217.1,466.8,216.3,467.7z"/>
			<path fill="#B8D887" d="M213.4,471.5c0,0,23.2,12.9,43.8,0l-3.1-4.2h-18.8h-18.5L213.4,471.5z"/>
			<path opacity="0.54" fill="#D4B080" d="M248,535.3v3.1c-9.9,10.5-25.3,0-25.3,0v-3.1C222.7,535.3,238.1,545.9,248,535.3z"/>
			<path fill="#129280" d="M206.4,483.9c0,0,26.1,18.6,57,1l5,5.9c0,0-19.2,26.6-67.1,0.8L206.4,483.9z"/>
			<path fill="#0EA797" d="M230.4,441.5L217,464.4c-1.6,2.7-0.3,6.2,2.6,7.1c6.2,2.1,17.4,4.2,31-0.1c3.1-1,4.4-4.6,2.6-7.3
				l-14.5-22.7C236.9,438.2,232.3,438.3,230.4,441.5z"/>
		</g>
		<g>
			<ellipse fill="#0EA797" cx="134.8" cy="854.8" rx="19.8" ry="6.7"/>
			<path fill="#8D7755" d="M122.1,833.3v19.5c0,0,13.5,11.2,25.3,0v-21.2L122.1,833.3z"/>
			<path opacity="0.54" fill="#D4B080" d="M122.1,836.9c0,0,15.4,10.5,25.3,0v-5.3l-25.3-1.3V836.9z"/>
			<path opacity="0.54" fill="#D4B080" d="M122.1,840c0,0,15.4,10.5,25.3,0v-5.3l-25.3-1.3V840z"/>
			<path fill="#6EC38C" d="M105.7,795.5l-14.8,20.1c-1.3,1.7-0.9,4.2,0.9,5.4c11.6,7.9,52.3,31.7,86.1-0.8c1.4-1.4,1.6-3.6,0.4-5.1
				l-15-19.7c-0.7-1-1.9-1.5-3.1-1.5h-51.5C107.6,793.9,106.4,794.5,105.7,795.5z"/>
			<path fill="#6EC38C" d="M115.8,778.4l-9.6,12.2c-0.9,1.2-1.1,2.7-0.4,4c2.3,4.4,9.1,13.6,25.5,14.9c16.8,1.3,27.5-9.1,31.5-14
				c1.1-1.3,1.1-3.2,0.1-4.6l-8.4-11.5c-0.7-0.9-1.8-1.5-2.9-1.5l-32.8,0.1C117.6,778,116.5,777.5,115.8,778.4z"/>
			<path fill="#B8D887" d="M112.8,782.2c0,0,23.2,12.9,43.8,0l-3.1-4.2h-18.8h-18.5L112.8,782.2z"/>
			<path opacity="0.54" fill="#D4B080" d="M147.4,846v3.1c-9.9,10.5-25.3,0-25.3,0V846C122.1,846,137.5,856.5,147.4,846z"/>
			<path fill="#129280" d="M105.8,794.6c0,0,26.1,18.6,57,1l5,5.9c0,0-19.2,26.6-67.1,0.8L105.8,794.6z"/>
			<path fill="#0EA797" d="M129.9,752.1L116.4,775c-1.6,2.7-0.3,6.2,2.6,7.1c6.2,2.1,17.4,4.2,31-0.1c3.1-1,4.4-4.6,2.6-7.3
				L138.3,752C136.3,748.9,131.7,749,129.9,752.1z"/>
		</g>
		<g>
			<ellipse fill="#0EA797" cx="243.3" cy="845.1" rx="13.1" ry="4.4"/>
			<path fill="#8D7755" d="M235,830.9v12.9c0,0,8.9,7.4,16.7,0v-14L235,830.9z"/>
			<path opacity="0.54" fill="#D4B080" d="M235,833.3c0,0,10.2,7,16.7,0v-3.5l-16.7-0.9V833.3z"/>
			<path opacity="0.54" fill="#D4B080" d="M235,835.3c0,0,10.2,7,16.7,0v-3.5l-16.7-0.9V835.3z"/>
			<path fill="#6EC38C" d="M224.1,806l-9.8,13.3c-0.9,1.2-0.6,2.8,0.6,3.6c7.7,5.3,34.6,20.9,56.9-0.5c0.9-0.9,1.1-2.4,0.3-3.4
				l-9.9-13c-0.5-0.6-1.2-1-2-1h-34C225.3,804.9,224.6,805.3,224.1,806z"/>
			<path fill="#6EC38C" d="M230.8,794.6l-6.3,8c-0.6,0.8-0.7,1.8-0.2,2.7c1.5,2.9,6,9,16.9,9.9c11.1,0.9,18.2-6,20.8-9.2
				c0.7-0.9,0.8-2.1,0.1-3l-5.6-7.6c-0.4-0.6-1.2-1-1.9-1l-21.7,0C232,794.4,231.2,794,230.8,794.6z"/>
			<path fill="#B8D887" d="M228.8,797.2c0,0,15.3,8.5,28.9,0l-2-2.8h-12.4H231L228.8,797.2z"/>
			<path opacity="0.54" fill="#D4B080" d="M251.7,839.3v2c-6.5,7-16.7,0-16.7,0v-2C235,839.3,245.1,846.3,251.7,839.3z"/>
			<path fill="#129280" d="M224.2,805.4c0,0,17.3,12.3,37.7,0.6l3.3,3.9c0,0-12.7,17.6-44.4,0.5L224.2,805.4z"/>
			<path fill="#0EA797" d="M240.1,777.3l-8.9,15.1c-1,1.8-0.2,4.1,1.7,4.7c4.1,1.4,11.5,2.8,20.5-0.1c2-0.6,2.9-3,1.7-4.8l-9.6-15
				C244.3,775.1,241.3,775.2,240.1,777.3z"/>
		</g>
		<g>
			<ellipse fill="#0EA797" cx="622.6" cy="476.9" rx="19.8" ry="6.7"/>
			<path fill="#8D7755" d="M610,455.4v19.5c0,0,13.5,11.2,25.3,0v-21.2L610,455.4z"/>
			<path opacity="0.54" fill="#D4B080" d="M610,459c0,0,15.4,10.5,25.3,0v-5.3l-25.3-1.3V459z"/>
			<path opacity="0.54" fill="#D4B080" d="M610,462.1c0,0,15.4,10.5,25.3,0v-5.3l-25.3-1.3V462.1z"/>
			<path fill="#6EC38C" d="M593.5,417.6l-14.8,20.1c-1.3,1.7-0.9,4.2,0.9,5.4c11.6,7.9,52.3,31.7,86.1-0.8c1.4-1.4,1.6-3.6,0.4-5.1
				l-15-19.7c-0.7-1-1.9-1.5-3.1-1.5h-51.5C595.4,416,594.2,416.6,593.5,417.6z"/>
			<path fill="#6EC38C" d="M603.6,400.5l-9.6,12.2c-0.9,1.2-1.1,2.7-0.4,4c2.3,4.4,9.1,13.6,25.5,14.9c16.8,1.3,27.5-9.1,31.5-14
				c1.1-1.3,1.1-3.2,0.1-4.6l-8.4-11.5c-0.7-0.9-1.8-1.5-2.9-1.5l-32.8,0.1C605.5,400.1,604.3,399.6,603.6,400.5z"/>
			<path fill="#B8D887" d="M600.6,404.3c0,0,23.2,12.9,43.8,0l-3.1-4.2h-18.8h-18.5L600.6,404.3z"/>
			<path opacity="0.54" fill="#D4B080" d="M635.2,468.1v3.1c-9.9,10.5-25.3,0-25.3,0v-3.1C610,468.1,625.3,478.6,635.2,468.1z"/>
			<path fill="#129280" d="M593.7,416.7c0,0,26.1,18.6,57,1l5,5.9c0,0-19.2,26.6-67.1,0.8L593.7,416.7z"/>
			<path fill="#0EA797" d="M617.7,374.2l-13.4,22.9c-1.6,2.7-0.3,6.2,2.6,7.1c6.2,2.1,17.4,4.2,31-0.1c3.1-1,4.4-4.6,2.6-7.3
				l-14.5-22.7C624.1,371,619.6,371.1,617.7,374.2z"/>
		</g>
		<g>
			<ellipse fill="#0EA797" cx="798.8" cy="486.7" rx="19.8" ry="6.7"/>
			<path fill="#8D7755" d="M786.1,465.2v19.5c0,0,13.5,11.2,25.3,0v-21.2L786.1,465.2z"/>
			<path opacity="0.54" fill="#D4B080" d="M786.1,468.8c0,0,15.4,10.5,25.3,0v-5.3l-25.3-1.3V468.8z"/>
			<path opacity="0.54" fill="#D4B080" d="M786.1,471.9c0,0,15.4,10.5,25.3,0v-5.3l-25.3-1.3V471.9z"/>
			<path fill="#6EC38C" d="M769.7,427.4l-14.8,20.1c-1.3,1.7-0.9,4.2,0.9,5.4c11.6,7.9,52.3,31.7,86.1-0.8c1.4-1.4,1.6-3.6,0.4-5.1
				l-15-19.7c-0.7-1-1.9-1.5-3.1-1.5h-51.5C771.6,425.9,770.4,426.4,769.7,427.4z"/>
			<path fill="#6EC38C" d="M779.8,410.3l-9.6,12.2c-0.9,1.2-1.1,2.7-0.4,4c2.3,4.4,9.1,13.6,25.5,14.9c16.8,1.3,27.5-9.1,31.5-14
				c1.1-1.3,1.1-3.2,0.1-4.6l-8.4-11.5c-0.7-0.9-1.8-1.5-2.9-1.5l-32.8,0.1C781.6,409.9,780.5,409.4,779.8,410.3z"/>
			<path fill="#B8D887" d="M776.8,414.1c0,0,23.2,12.9,43.8,0l-3.1-4.2h-18.8h-18.5L776.8,414.1z"/>
			<path opacity="0.54" fill="#D4B080" d="M811.4,477.9v3.1c-9.9,10.5-25.3,0-25.3,0v-3.1C786.1,477.9,801.5,488.4,811.4,477.9z"/>
			<path fill="#129280" d="M769.8,426.5c0,0,26.1,18.6,57,1l5,5.9c0,0-19.2,26.6-67.1,0.8L769.8,426.5z"/>
			<path fill="#0EA797" d="M793.9,384.1l-13.4,22.9c-1.6,2.7-0.3,6.2,2.6,7.1c6.2,2.1,17.4,4.2,31-0.1c3.1-1,4.4-4.6,2.6-7.3
				l-14.5-22.7C800.3,380.8,795.7,380.9,793.9,384.1z"/>
		</g>
		<g>
			<ellipse fill="#0EA797" cx="1356.9" cy="522.6" rx="19.8" ry="6.7"/>
			<path fill="#8D7755" d="M1344.3,501.1v19.5c0,0,13.5,11.2,25.3,0v-21.2L1344.3,501.1z"/>
			<path opacity="0.54" fill="#D4B080" d="M1344.3,504.7c0,0,15.4,10.5,25.3,0v-5.3l-25.3-1.3V504.7z"/>
			<path opacity="0.54" fill="#D4B080" d="M1344.3,507.8c0,0,15.4,10.5,25.3,0v-5.3l-25.3-1.3V507.8z"/>
			<path fill="#6EC38C" d="M1327.8,463.4l-14.8,20.1c-1.3,1.7-0.9,4.2,0.9,5.4c11.6,7.9,52.3,31.7,86.1-0.8c1.4-1.4,1.6-3.6,0.4-5.1
				l-15-19.7c-0.7-1-1.9-1.5-3.1-1.5h-51.5C1329.7,461.8,1328.6,462.4,1327.8,463.4z"/>
			<path fill="#6EC38C" d="M1337.9,446.3l-9.6,12.2c-0.9,1.2-1.1,2.7-0.4,4c2.3,4.4,9.1,13.6,25.5,14.9c16.8,1.3,27.5-9.1,31.5-14
				c1.1-1.3,1.1-3.2,0.1-4.6l-8.4-11.5c-0.7-0.9-1.8-1.5-2.9-1.5l-32.8,0.1C1339.8,445.8,1338.6,445.3,1337.9,446.3z"/>
			<path fill="#B8D887" d="M1334.9,450.1c0,0,23.2,12.9,43.8,0l-3.1-4.2h-18.8h-18.5L1334.9,450.1z"/>
			<path opacity="0.54" fill="#D4B080" d="M1369.5,513.8v3.1c-9.9,10.5-25.3,0-25.3,0v-3.1C1344.3,513.8,1359.6,524.4,1369.5,513.8z
				"/>
			<path fill="#129280" d="M1328,462.5c0,0,26.1,18.6,57,1l5,5.9c0,0-19.2,26.6-67.1,0.8L1328,462.5z"/>
			<path fill="#0EA797" d="M1352,420l-13.4,22.9c-1.6,2.7-0.3,6.2,2.6,7.1c6.2,2.1,17.4,4.2,31-0.1c3.1-1,4.4-4.6,2.6-7.3
				l-14.5-22.7C1358.4,416.7,1353.9,416.8,1352,420z"/>
		</g>
		<g>
			<ellipse fill="#0EA797" cx="869.7" cy="262.6" rx="19.8" ry="6.7"/>
			<path fill="#8D7755" d="M857,241.1v19.5c0,0,13.5,11.2,25.3,0v-21.2L857,241.1z"/>
			<path opacity="0.54" fill="#D4B080" d="M857,244.7c0,0,15.4,10.5,25.3,0v-5.3l-25.3-1.3V244.7z"/>
			<path opacity="0.54" fill="#D4B080" d="M857,247.8c0,0,15.4,10.5,25.3,0v-5.3l-25.3-1.3V247.8z"/>
			<path fill="#6EC38C" d="M840.6,203.3l-14.8,20.1c-1.3,1.7-0.9,4.2,0.9,5.4c11.6,7.9,52.3,31.7,86.1-0.8c1.4-1.4,1.6-3.6,0.4-5.1
				l-15-19.7c-0.7-1-1.9-1.5-3.1-1.5h-51.5C842.5,201.8,841.3,202.3,840.6,203.3z"/>
			<path fill="#6EC38C" d="M850.7,186.2l-9.6,12.2c-0.9,1.2-1.1,2.7-0.4,4c2.3,4.4,9.1,13.6,25.5,14.9c16.8,1.3,27.5-9.1,31.5-14
				c1.1-1.3,1.1-3.2,0.1-4.6l-8.4-11.5c-0.7-0.9-1.8-1.5-2.9-1.5l-32.8,0.1C852.5,185.8,851.4,185.3,850.7,186.2z"/>
			<path fill="#B8D887" d="M847.7,190c0,0,23.2,12.9,43.8,0l-3.1-4.2h-18.8H851L847.7,190z"/>
			<path opacity="0.54" fill="#D4B080" d="M882.3,253.8v3.1c-9.9,10.5-25.3,0-25.3,0v-3.1C857,253.8,872.4,264.3,882.3,253.8z"/>
			<path fill="#129280" d="M840.7,202.4c0,0,26.1,18.6,57,1l5,5.9c0,0-19.2,26.6-67.1,0.8L840.7,202.4z"/>
			<path fill="#0EA797" d="M864.8,160l-13.4,22.9c-1.6,2.7-0.3,6.2,2.6,7.1c6.2,2.1,17.4,4.2,31-0.1c3.1-1,4.4-4.6,2.6-7.3
				l-14.5-22.7C871.2,156.7,866.6,156.8,864.8,160z"/>
		</g>
		<g>
			<ellipse opacity="0.49" fill="#B8D887" cx="622.2" cy="115.9" rx="37.6" ry="14.9"/>
			<g>
				<ellipse fill="#0EA797" cx="622.4" cy="115.9" rx="26.5" ry="8.9"/>
				<path fill="#8D7755" d="M605.5,87.2v26c0,0,18.1,14.9,33.7,0V84.9L605.5,87.2z"/>
				<path opacity="0.54" fill="#D4B080" d="M605.5,92c0,0,20.5,14.1,33.7,0v-7.1l-33.7-1.8V92z"/>
				<path opacity="0.54" fill="#D4B080" d="M605.5,96.1c0,0,20.5,14.1,33.7,0V89l-33.7-1.8V96.1z"/>
				<path fill="#6EC38C" d="M583.6,36.8l-19.8,26.8c-1.7,2.3-1.2,5.6,1.2,7.3c15.4,10.6,69.8,42.3,114.9-1.1
					c1.9-1.8,2.1-4.7,0.5-6.8l-20-26.2c-1-1.3-2.5-2-4.1-2h-68.7C586.1,34.7,584.5,35.5,583.6,36.8z"/>
				<path fill="#6EC38C" d="M597,14l-12.8,16.2c-1.2,1.5-1.4,3.7-0.5,5.4c3.1,5.8,12.1,18.2,34,19.9c22.4,1.7,36.7-12.2,42-18.6
					c1.5-1.8,1.5-4.3,0.2-6.1l-11.2-15.3c-0.9-1.2-2.3-2-3.9-2l-43.8,0.1C599.5,13.4,598,12.8,597,14z"/>
				<path fill="#B8D887" d="M593,19.1c0,0,30.9,17.2,58.4,0l-4.1-5.6h-25.1h-24.7L593,19.1z"/>
				<path opacity="0.54" fill="#D4B080" d="M639.2,104.2v4.1c-13.2,14.1-33.7,0-33.7,0v-4.1C605.5,104.2,626,118.2,639.2,104.2z"/>
				<path fill="#129280" d="M583.8,35.6c0,0,34.9,24.8,76.1,1.3l6.7,7.9c0,0-25.6,35.5-89.6,1L583.8,35.6z"/>
				<path fill="#0EA797" d="M615.8-21L597.9,9.5c-2.1,3.6-0.4,8.2,3.5,9.5c8.3,2.8,23.2,5.7,41.4-0.1c4.1-1.3,5.8-6.2,3.5-9.8
					L627-21.2C624.4-25.4,618.3-25.3,615.8-21z"/>
			</g>
		</g>
		<g>
			<ellipse fill="#0EA797" cx="64.2" cy="199.4" rx="26.5" ry="8.9"/>
			<path fill="#8D7755" d="M47.3,170.7v26c0,0,18.1,14.9,33.7,0v-28.3L47.3,170.7z"/>
			<path opacity="0.54" fill="#D4B080" d="M47.3,175.5c0,0,20.5,14.1,33.7,0v-7.1l-33.7-1.8V175.5z"/>
			<path opacity="0.54" fill="#D4B080" d="M47.3,179.6c0,0,20.5,14.1,33.7,0v-7.1l-33.7-1.8V179.6z"/>
			<path fill="#6EC38C" d="M25.4,120.3L5.6,147.1c-1.7,2.3-1.2,5.6,1.2,7.3c15.4,10.6,69.8,42.3,114.9-1.1c1.9-1.8,2.1-4.7,0.5-6.8
				l-20-26.2c-1-1.3-2.5-2-4.1-2H29.5C27.9,118.2,26.3,119,25.4,120.3z"/>
			<path fill="#6EC38C" d="M38.8,97.4L26,113.7c-1.2,1.5-1.4,3.7-0.5,5.4c3.1,5.8,12.1,18.2,34,19.9c22.4,1.7,36.7-12.2,42-18.6
				c1.5-1.8,1.5-4.3,0.2-6.1L90.5,98.9c-0.9-1.2-2.3-2-3.9-2l-43.8,0.1C41.3,96.9,39.8,96.2,38.8,97.4z"/>
			<path fill="#B8D887" d="M34.8,102.5c0,0,30.9,17.2,58.4,0l-4.1-5.6H64H39.2L34.8,102.5z"/>
			<path opacity="0.54" fill="#D4B080" d="M81,187.6v4.1c-13.2,14.1-33.7,0-33.7,0v-4.1C47.3,187.6,67.8,201.7,81,187.6z"/>
			<path fill="#129280" d="M25.5,119.1c0,0,34.9,24.8,76.1,1.3l6.7,7.9c0,0-25.6,35.5-89.6,1L25.5,119.1z"/>
			<path fill="#0EA797" d="M57.6,62.4L39.7,92.9c-2.1,3.6-0.4,8.2,3.5,9.5c8.3,2.8,23.2,5.7,41.4-0.1c4.1-1.3,5.8-6.2,3.5-9.8
				L68.8,62.2C66.2,58.1,60.1,58.2,57.6,62.4z"/>
		</g>
		<polygon fill="#6EC38C" points="707.4,308.1 137.9,308.1 134.6,299.3 702.8,299.3 706,305.3 		"/>
		<polygon fill="#6EC38C" points="738.3,362.1 170,362.1 165.4,353.3 733.7,353.3 736.8,359.3 		"/>
		<polygon fill="#B8D887" points="1300.5,358.3 732.3,358.3 706,308.1 1274.3,308.1 1299.1,355.6 		"/>
		<polygon fill="#6EC38C" points="1274.3,308.1 704.7,308.1 701.4,299.3 1269.7,299.3 1272.8,305.3 		"/>
		<polygon fill="#6EC38C" points="1305.1,362.1 736.9,362.1 732.3,353.3 1300.5,353.3 1303.7,359.3 		"/>
		<path fill="#D9D8D7" d="M141.8,976.7v3.2c0,0,0.6,1,2.7,1.1c2.1,0.1,2.7-1.5,2.7-1.5v-2.8C147.1,976.7,145,978.8,141.8,976.7z"/>
		<g>
			<ellipse opacity="0.23" fill="#777777" cx="677.2" cy="303" rx="28.9" ry="9.1"/>
			<path fill="#07504E" d="M691.5,283.1c-15.6,15.6-28.7,0-28.7,0S678.1,271.9,691.5,283.1z"/>
			<path fill="#038181" d="M691.5,283.1v17.3c0,0-13.1,9.4-28.7,0v-17.3C662.8,283.1,676.8,295.7,691.5,283.1z"/>
			<path fill="#07504E" d="M676.9,281.9L676.9,281.9c-1,0-1.8-0.8-1.8-1.8V162.8c0-1,0.8-1.8,1.8-1.8h0c1,0,1.8,0.8,1.8,1.8v117.3
				C678.6,281.1,677.8,281.9,676.9,281.9z"/>
			<path fill="#07504E" d="M685,178.7h-17.1c-4.4,0-8-3.6-8-8v-4.2c0-4.4,3.6-8,8-8H685c4.4,0,8,3.6,8,8v4.2
				C693,175.1,689.4,178.7,685,178.7z"/>
			<path fill="#038181" d="M685.3,178.7h-17.7c-2,0-3.6-1.6-3.6-3.6v-2.9c0-2,1.6-3.6,3.6-3.6h17.7c2,0,3.6,1.6,3.6,3.6v2.9
				C688.9,177,687.3,178.7,685.3,178.7z"/>
			<path fill="#BF973C" d="M683,177.3c0,3.7-3,6.6-6.6,6.6s-6.6-3-6.6-6.6"/>
			<path fill="#07504E" d="M684.6,178.5h-16.5c-1.3,0-2.3-1-2.3-2.3v-0.3c0-1.3,1-2.3,2.3-2.3h16.5c1.3,0,2.3,1,2.3,2.3v0.3
				C687,177.5,685.9,178.5,684.6,178.5z"/>
		</g>
		<g>
			<ellipse opacity="0.23" fill="#777777" cx="1417.7" cy="880.5" rx="28.9" ry="9.1"/>
			<path fill="#07504E" d="M1432,860.5c-15.6,15.6-28.7,0-28.7,0S1418.6,849.4,1432,860.5z"/>
			<path fill="#038181" d="M1432,860.5v17.3c0,0-13.1,9.4-28.7,0v-17.3C1403.3,860.5,1417.4,873.2,1432,860.5z"/>
			<path fill="#07504E" d="M1417.4,859.3L1417.4,859.3c-1,0-1.8-0.8-1.8-1.8V740.3c0-1,0.8-1.8,1.8-1.8l0,0c1,0,1.8,0.8,1.8,1.8
				v117.3C1419.2,858.5,1418.4,859.3,1417.4,859.3z"/>
			<path fill="#07504E" d="M1425.5,756.1h-17.1c-4.4,0-8-3.6-8-8v-4.2c0-4.4,3.6-8,8-8h17.1c4.4,0,8,3.6,8,8v4.2
				C1433.5,752.5,1429.9,756.1,1425.5,756.1z"/>
			<path fill="#038181" d="M1425.8,756.1h-17.7c-2,0-3.6-1.6-3.6-3.6v-2.9c0-2,1.6-3.6,3.6-3.6h17.7c2,0,3.6,1.6,3.6,3.6v2.9
				C1429.4,754.5,1427.8,756.1,1425.8,756.1z"/>
			<path fill="#BF973C" d="M1423.5,754.7c0,3.7-3,6.6-6.6,6.6c-3.7,0-6.6-3-6.6-6.6"/>
			<path fill="#07504E" d="M1425.2,756h-16.5c-1.3,0-2.3-1-2.3-2.3v-0.3c0-1.3,1-2.3,2.3-2.3h16.5c1.3,0,2.3,1,2.3,2.3v0.3
				C1427.5,754.9,1426.4,756,1425.2,756z"/>
		</g>
		<g>
			<ellipse opacity="0.23" fill="#777777" cx="943.5" cy="880.5" rx="28.9" ry="9.1"/>
			<path fill="#07504E" d="M957.9,860.5c-15.6,15.6-28.7,0-28.7,0S944.5,849.4,957.9,860.5z"/>
			<path fill="#038181" d="M957.9,860.5v17.3c0,0-13.1,9.4-28.7,0v-17.3C929.2,860.5,943.2,873.2,957.9,860.5z"/>
			<path fill="#07504E" d="M943.2,859.3L943.2,859.3c-1,0-1.8-0.8-1.8-1.8V740.3c0-1,0.8-1.8,1.8-1.8l0,0c1,0,1.8,0.8,1.8,1.8v117.3
				C945,858.5,944.2,859.3,943.2,859.3z"/>
			<path fill="#07504E" d="M951.3,756.1h-17.1c-4.4,0-8-3.6-8-8v-4.2c0-4.4,3.6-8,8-8h17.1c4.4,0,8,3.6,8,8v4.2
				C959.3,752.5,955.7,756.1,951.3,756.1z"/>
			<path fill="#038181" d="M951.6,756.1h-17.7c-2,0-3.6-1.6-3.6-3.6v-2.9c0-2,1.6-3.6,3.6-3.6h17.7c2,0,3.6,1.6,3.6,3.6v2.9
				C955.3,754.5,953.6,756.1,951.6,756.1z"/>
			<path fill="#BF973C" d="M949.4,754.7c0,3.7-3,6.6-6.6,6.6s-6.6-3-6.6-6.6"/>
			<path fill="#07504E" d="M951,756h-16.5c-1.3,0-2.3-1-2.3-2.3v-0.3c0-1.3,1-2.3,2.3-2.3H951c1.3,0,2.3,1,2.3,2.3v0.3
				C953.3,754.9,952.3,756,951,756z"/>
		</g>
		<g>
			<ellipse opacity="0.23" fill="#777777" cx="846.1" cy="303" rx="28.9" ry="9.1"/>
			<path fill="#07504E" d="M860.4,283.1c-15.6,15.6-28.7,0-28.7,0S847,271.9,860.4,283.1z"/>
			<path fill="#038181" d="M860.4,283.1v17.3c0,0-13.1,9.4-28.7,0v-17.3C831.7,283.1,845.7,295.7,860.4,283.1z"/>
			<path fill="#07504E" d="M845.8,281.9L845.8,281.9c-1,0-1.8-0.8-1.8-1.8V162.8c0-1,0.8-1.8,1.8-1.8l0,0c1,0,1.8,0.8,1.8,1.8v117.3
				C847.5,281.1,846.7,281.9,845.8,281.9z"/>
			<path fill="#07504E" d="M853.8,178.7h-17.1c-4.4,0-8-3.6-8-8v-4.2c0-4.4,3.6-8,8-8h17.1c4.4,0,8,3.6,8,8v4.2
				C861.9,175.1,858.3,178.7,853.8,178.7z"/>
			<path fill="#038181" d="M854.2,178.7h-17.7c-2,0-3.6-1.6-3.6-3.6v-2.9c0-2,1.6-3.6,3.6-3.6h17.7c2,0,3.6,1.6,3.6,3.6v2.9
				C857.8,177,856.1,178.7,854.2,178.7z"/>
			<path fill="#BF973C" d="M851.9,177.3c0,3.7-3,6.6-6.6,6.6s-6.6-3-6.6-6.6"/>
			<path fill="#07504E" d="M853.5,178.5h-16.5c-1.3,0-2.3-1-2.3-2.3v-0.3c0-1.3,1-2.3,2.3-2.3h16.5c1.3,0,2.3,1,2.3,2.3v0.3
				C855.8,177.5,854.8,178.5,853.5,178.5z"/>
		</g>
		<g>
			<ellipse opacity="0.23" fill="#777777" cx="1014.9" cy="303" rx="28.9" ry="9.1"/>
			<path fill="#07504E" d="M1029.3,283.1c-15.6,15.6-28.7,0-28.7,0S1015.9,271.9,1029.3,283.1z"/>
			<path fill="#038181" d="M1029.3,283.1v17.3c0,0-13.1,9.4-28.7,0v-17.3C1000.6,283.1,1014.6,295.7,1029.3,283.1z"/>
			<path fill="#07504E" d="M1014.7,281.9L1014.7,281.9c-1,0-1.8-0.8-1.8-1.8V162.8c0-1,0.8-1.8,1.8-1.8l0,0c1,0,1.8,0.8,1.8,1.8
				v117.3C1016.4,281.1,1015.6,281.9,1014.7,281.9z"/>
			<path fill="#07504E" d="M1022.7,178.7h-17.1c-4.4,0-8-3.6-8-8v-4.2c0-4.4,3.6-8,8-8h17.1c4.4,0,8,3.6,8,8v4.2
				C1030.8,175.1,1027.2,178.7,1022.7,178.7z"/>
			<path fill="#038181" d="M1023,178.7h-17.7c-2,0-3.6-1.6-3.6-3.6v-2.9c0-2,1.6-3.6,3.6-3.6h17.7c2,0,3.6,1.6,3.6,3.6v2.9
				C1026.7,177,1025,178.7,1023,178.7z"/>
			<path fill="#BF973C" d="M1020.8,177.3c0,3.7-3,6.6-6.6,6.6s-6.6-3-6.6-6.6"/>
			<path fill="#07504E" d="M1022.4,178.5h-16.5c-1.3,0-2.3-1-2.3-2.3v-0.3c0-1.3,1-2.3,2.3-2.3h16.5c1.3,0,2.3,1,2.3,2.3v0.3
				C1024.7,177.5,1023.7,178.5,1022.4,178.5z"/>
		</g>
		<polyline fill="none" points="391.6,606.8 376.1,606.8 287.8,606.8 272.4,606.8 173.5,606.8 		"/>
		<polyline fill="none" points="264.9,353.3 280.4,353.3 368.7,353.3 384.1,353.3 		"/>
		
			<line fill="none" stroke="#FFFFFF" stroke-width="2" stroke-miterlimit="10" stroke-dasharray="12" x1="152.3" y1="333.2" x2="1285.7" y2="333.2"/>
		<polygon fill="#B8D887" points="1548.5,312.5 1548.5,358.3 1004.2,358.3 1001.5,353.3 977.9,308.1 1546.2,308.1 		"/>
		<polygon fill="#6EC38C" points="1546.2,308.1 976.6,308.1 973.3,299.3 1541.6,299.3 1544.7,305.3 		"/>
		<polygon fill="#6EC38C" points="1548.5,353.3 1548.5,362.1 1003.9,362.1 999.3,353.3 		"/>
		
			<line fill="none" stroke="#FFFFFF" stroke-width="2" stroke-miterlimit="10" stroke-dasharray="12" x1="991" y1="333.2" x2="1528.3" y2="333.2"/>
		<polygon fill="#B8D887" points="552.6,615.8 -15.6,615.8 -41.9,565.6 526.4,565.6 551.2,613.1 		"/>
		<polygon fill="#6EC38C" points="526.4,565.6 -43.1,565.6 -46.4,556.8 521.8,556.8 524.9,562.8 		"/>
		<polygon fill="#6EC38C" points="557.2,624.6 -11,624.6 -15.6,615.8 552.6,615.8 555.8,621.9 		"/>
		<polygon fill="#B8D887" points="1119.5,615.8 551.2,615.8 525,565.6 1093.2,565.6 1118,613.1 		"/>
		<polygon fill="#6EC38C" points="1093.2,565.6 523.7,565.6 520.4,556.8 1088.6,556.8 1091.8,562.8 		"/>
		<polygon fill="#6EC38C" points="1124.1,624.6 555.8,624.6 551.2,615.8 1119.5,615.8 1122.6,621.9 		"/>
		<polyline opacity="0.6" fill="none" stroke="#FFFFFF" stroke-width="2" stroke-miterlimit="10" stroke-dasharray="12" points="
			1104.7,590.7 198.7,590.7 -356.8,590.7 		"/>
		<polygon fill="#B8D887" points="1548.5,565.6 1548.5,615.8 1101.2,615.8 1088,590.7 1074.9,565.6 		"/>
		<polygon fill="#6EC38C" points="1548.5,556.8 1548.5,565.6 1073.6,565.6 1070.3,556.8 		"/>
		<polygon fill="#6EC38C" points="1548.5,615.8 1548.5,624.6 1105.8,624.6 1101.2,615.8 		"/>
		<polygon fill="#6EC38C" points="185.5,565.6 -356.8,565.6 -356.8,556.8 180.9,556.8 184.1,562.8 		"/>
		<polygon fill="#6EC38C" points="216.4,624.6 -351.9,624.6 -356.5,615.8 211.8,615.8 214.9,621.9 		"/>
		<polygon fill="#B8D887" points="224.6,941.6 -343.7,941.6 -356.8,916.5 -356.8,916.4 -356.8,916.4 -356.8,891.3 198.3,891.3 
			211.5,916.4 223.1,938.8 		"/>
		<polygon fill="#B8D887" points="565.4,941.6 -2.8,941.6 -29,891.3 539.2,891.3 564,938.8 		"/>
		<polygon fill="#6EC38C" points="539.2,891.3 -30.3,891.3 -33.6,882.5 534.6,882.5 537.8,888.6 		"/>
		<polygon fill="#6EC38C" points="570,950.4 1.8,950.4 -2.8,941.6 565.4,941.6 568.6,947.6 		"/>
		<polygon fill="#B8D887" points="1132.3,941.6 564,941.6 537.8,891.3 1106,891.3 1130.8,938.8 		"/>
		<polygon fill="#6EC38C" points="1106,891.3 536.5,891.3 533.2,882.5 1101.4,882.5 1104.6,888.6 		"/>
		<polygon fill="#6EC38C" points="1136.9,950.4 568.6,950.4 564,941.6 1132.3,941.6 1135.4,947.6 		"/>
		<polygon fill="#B8D887" points="1548.5,891.3 1548.5,941.6 1114,941.6 1087.7,891.3 		"/>
		<polygon fill="#6EC38C" points="1548.5,882.5 1548.5,891.3 1086.4,891.3 1083.1,882.5 		"/>
		<polygon fill="#6EC38C" points="1548.5,941.6 1548.5,950.4 1118.6,950.4 1114,941.6 		"/>
		<polygon fill="#6EC38C" points="198.3,891.3 -356.8,891.3 -356.8,882.5 193.7,882.5 196.9,888.6 		"/>
		<polygon fill="#6EC38C" points="229.2,950.4 -339.1,950.4 -343.7,941.6 224.6,941.6 227.7,947.6 		"/>
		<polygon fill="#B8D887" points="308,372.4 265.2,342.9 370.6,345.2 390.8,352.8 438.1,385.3 		"/>
		<polygon fill="#B8D887" points="591.3,569.9 549.6,539.5 654,542.8 679.1,552.5 721.4,582.9 		"/>
		<g>
			<g>
				<line fill="none" stroke="#FFFFFF" stroke-width="2" stroke-miterlimit="10" x1="651.2" y1="573" x2="646.3" y2="569.6"/>
				
					<line fill="none" stroke="#FFFFFF" stroke-width="2" stroke-miterlimit="10" stroke-dasharray="12.3602,12.3602" x1="636.1" y1="562.5" x2="356.7" y2="369"/>
				<line fill="none" stroke="#FFFFFF" stroke-width="2" stroke-miterlimit="10" x1="351.6" y1="365.5" x2="346.7" y2="362.1"/>
			</g>
		</g>
		<polygon fill="#B8D887" points="544.7,892.2 443.6,892.2 80.5,615.8 181.5,615.8 		"/>
		<polygon fill="#B8D887" points="588.6,892.2 487.5,892.2 124.4,615.8 225.5,615.8 		"/>
		<polygon fill="#6EC38C" points="588.6,892.2 570.9,892.2 207.8,615.8 225.5,615.8 		"/>
		<polygon fill="#6EC38C" points="443.6,892.2 425.9,892.2 62.8,615.8 80.5,615.8 		"/>
		<g>
			<g>
				<line fill="none" stroke="#FFFFFF" stroke-width="2" stroke-miterlimit="10" x1="505" y1="892.2" x2="500.3" y2="888.5"/>
				
					<line fill="none" stroke="#FFFFFF" stroke-width="2" stroke-miterlimit="10" stroke-dasharray="12.1747,12.1747" x1="490.6" y1="881.2" x2="166" y2="634.2"/>
				<line fill="none" stroke="#FFFFFF" stroke-width="2" stroke-miterlimit="10" x1="161.1" y1="630.5" x2="156.4" y2="626.9"/>
			</g>
		</g>
		<polygon fill="#B8D887" points="1375.5,892.2 1274.5,892.2 911.4,615.8 1012.4,615.8 		"/>
		<polygon fill="#B8D887" points="1419.4,892.2 1318.4,892.2 955.3,615.8 1056.3,615.8 		"/>
		<polygon fill="#6EC38C" points="1419.4,892.2 1401.7,892.2 1038.6,615.8 1056.3,615.8 		"/>
		<polygon fill="#6EC38C" points="1274.5,892.2 1256.8,892.2 893.7,615.8 911.4,615.8 		"/>
		<g>
			<g>
				<line fill="none" stroke="#FFFFFF" stroke-width="2" stroke-miterlimit="10" x1="1335.9" y1="892.2" x2="1331.1" y2="888.5"/>
				
					<line fill="none" stroke="#FFFFFF" stroke-width="2" stroke-miterlimit="10" stroke-dasharray="12.1747,12.1747" x1="1321.5" y1="881.2" x2="996.9" y2="634.2"/>
				<line fill="none" stroke="#FFFFFF" stroke-width="2" stroke-miterlimit="10" x1="992" y1="630.5" x2="987.2" y2="626.9"/>
			</g>
		</g>
		<g>
			<rect x="-251.8" y="624.4" fill="#D0EBE7" width="303.9" height="112.9"/>
			<path fill="#FEE06B" d="M41.7,860.5h-283.3c-8.5,0-15.5-7-15.5-15.5V731.2H57.1V845C57.1,853.5,50.2,860.5,41.7,860.5z"/>
			<rect x="-257.1" y="755.6" fill="#EE806C" width="314.2" height="9.3"/>
			<path opacity="0.69" fill="#BAE1DB" d="M42.3,620.3h-283.5c-8.7,0-15.9,7.1-15.9,15.9v78.7h11.9v-66.1c0-8.7,7.1-15.9,15.9-15.9
				H32.4c8.7,0,15.9,7.1,15.9,15.9v66.1h9.9v-78.7C58.1,627.4,51,620.3,42.3,620.3z"/>
			<path fill="#A8DBD3" d="M42.3,628h-283.5c-8.7,0-15.9,7.1-15.9,15.9v70.9h11.9v-58.4c0-8.7,7.1-15.9,15.9-15.9H32.4
				c8.7,0,15.9,7.1,15.9,15.9v58.4h9.9v-70.9C58.1,635.2,51,628,42.3,628z"/>
			<path opacity="0.69" fill="#F79A1F" d="M-67.1,860.5h-66.7v-55c0-2.6,2.1-4.7,4.7-4.7h57.4c2.6,0,4.7,2.1,4.7,4.7V860.5z"/>
			<g>
				<path opacity="0.69" fill="#F0633E" d="M-14.9,790.1h-31c-2,0-3.7,1.7-3.7,3.7v47.8c0,2,1.7,3.7,3.7,3.7h31c2,0,3.7-1.7,3.7-3.7
					v-47.8C-11.2,791.7-12.8,790.1-14.9,790.1z M-13.7,839.9c0,1.7-1.4,3.2-3.2,3.2h-27c-1.7,0-3.2-1.4-3.2-3.2v-44.4
					c0-1.7,1.4-3.2,3.2-3.2h27c1.7,0,3.2,1.4,3.2,3.2V839.9z"/>
				<path opacity="0.69" fill="#F3A768" d="M-13.7,795.5v44.4c0,1.7-1.4,3.2-3.2,3.2h-27c-1.7,0-3.2-1.4-3.2-3.2v-44.4
					c0-1.7,1.4-3.2,3.2-3.2h27C-15.1,792.3-13.7,793.7-13.7,795.5z"/>
				<path opacity="0.28" fill="#FFFFFF" d="M-47,795.5l30.2,47.6H-44c-1.7,0-3-1.3-3-3V795.5z"/>
				<path opacity="0.28" fill="#FFFFFF" d="M-20.8,843.1H-44c-1.7,0-3-1.3-3-3v-38.5L-20.8,843.1z"/>
			</g>
			<g>
				<path opacity="0.69" fill="#F0633E" d="M38,790.1H7c-2,0-3.7,1.7-3.7,3.7v47.8c0,2,1.7,3.7,3.7,3.7h31c2,0,3.7-1.7,3.7-3.7
					v-47.8C41.7,791.7,40,790.1,38,790.1z M39.1,839.9c0,1.7-1.4,3.2-3.2,3.2H9c-1.7,0-3.2-1.4-3.2-3.2v-44.4c0-1.7,1.4-3.2,3.2-3.2
					h27c1.7,0,3.2,1.4,3.2,3.2V839.9z"/>
				<path opacity="0.69" fill="#F3A768" d="M39.1,795.5v44.4c0,1.7-1.4,3.2-3.2,3.2H9c-1.7,0-3.2-1.4-3.2-3.2v-44.4
					c0-1.7,1.4-3.2,3.2-3.2h27C37.7,792.3,39.1,793.7,39.1,795.5z"/>
				<path opacity="0.28" fill="#FFFFFF" d="M5.8,795.5L36,843.1H8.8c-1.7,0-3-1.3-3-3V795.5z"/>
				<path opacity="0.28" fill="#FFFFFF" d="M32.1,843.1H8.8c-1.7,0-3-1.3-3-3v-38.5L32.1,843.1z"/>
			</g>
			<g>
				<path opacity="0.69" fill="#F0633E" d="M-207.6,789.1h-31c-2,0-3.7,1.7-3.7,3.7v47.8c0,2,1.7,3.7,3.7,3.7h31
					c2,0,3.7-1.7,3.7-3.7v-47.8C-203.9,790.8-205.6,789.1-207.6,789.1z M-206.5,838.9c0,1.7-1.4,3.2-3.2,3.2h-27
					c-1.7,0-3.2-1.4-3.2-3.2v-44.4c0-1.7,1.4-3.2,3.2-3.2h27c1.7,0,3.2,1.4,3.2,3.2V838.9z"/>
				<path opacity="0.69" fill="#F3A768" d="M-206.5,794.5v44.4c0,1.7-1.4,3.2-3.2,3.2h-27c-1.7,0-3.2-1.4-3.2-3.2v-44.4
					c0-1.7,1.4-3.2,3.2-3.2h27C-207.9,791.3-206.5,792.8-206.5,794.5z"/>
				<path opacity="0.28" fill="#FFFFFF" d="M-239.8,794.5l30.2,47.6h-27.2c-1.7,0-3-1.3-3-3V794.5z"/>
				<path opacity="0.28" fill="#FFFFFF" d="M-213.5,842.1h-23.3c-1.7,0-3-1.3-3-3v-38.5L-213.5,842.1z"/>
			</g>
			<g>
				<path opacity="0.69" fill="#F0633E" d="M-154.8,789.1h-31c-2,0-3.7,1.7-3.7,3.7v47.8c0,2,1.7,3.7,3.7,3.7h31
					c2,0,3.7-1.7,3.7-3.7v-47.8C-151.1,790.8-152.7,789.1-154.8,789.1z M-153.6,838.9c0,1.7-1.4,3.2-3.2,3.2h-27
					c-1.7,0-3.2-1.4-3.2-3.2v-44.4c0-1.7,1.4-3.2,3.2-3.2h27c1.7,0,3.2,1.4,3.2,3.2V838.9z"/>
				<path opacity="0.69" fill="#F3A768" d="M-153.6,794.5v44.4c0,1.7-1.4,3.2-3.2,3.2h-27c-1.7,0-3.2-1.4-3.2-3.2v-44.4
					c0-1.7,1.4-3.2,3.2-3.2h27C-155,791.3-153.6,792.8-153.6,794.5z"/>
				<path opacity="0.28" fill="#FFFFFF" d="M-186.9,794.5l30.2,47.6h-27.2c-1.7,0-3-1.3-3-3V794.5z"/>
				<path opacity="0.28" fill="#FFFFFF" d="M-160.7,842.1H-184c-1.7,0-3-1.3-3-3v-38.5L-160.7,842.1z"/>
			</g>
			<path opacity="0.69" fill="#FBBD16" d="M-71.2,860.5h-58.7v-50.7c0-2.3,1.9-4.2,4.2-4.2h50.2c2.3,0,4.2,1.9,4.2,4.2V860.5z"/>
			<rect x="-101.3" y="805.6" fill="#0A4B7E" width="1.6" height="54.9"/>
			<circle fill="#0A4B7E" cx="-93.2" cy="837.6" r="1.9"/>
			<circle fill="#0A4B7E" cx="-109.2" cy="837.6" r="1.9"/>
			<g opacity="0.18">
				<rect x="-247.4" y="625.2" fill="none" stroke="#064C7D" stroke-miterlimit="10" width="299.5" height="112"/>
				<line fill="none" stroke="#064C7D" stroke-miterlimit="10" x1="-247.4" y1="699.9" x2="52.1" y2="699.9"/>
				<line fill="none" stroke="#064C7D" stroke-miterlimit="10" x1="-247.4" y1="662.5" x2="52.1" y2="662.5"/>
				<line fill="none" stroke="#064C7D" stroke-miterlimit="10" x1="9.3" y1="625.2" x2="9.3" y2="737.2"/>
				<line fill="none" stroke="#064C7D" stroke-miterlimit="10" x1="-33.5" y1="625.2" x2="-33.5" y2="737.2"/>
				<line fill="none" stroke="#064C7D" stroke-miterlimit="10" x1="-76.3" y1="625.2" x2="-76.3" y2="737.2"/>
				<line fill="none" stroke="#064C7D" stroke-miterlimit="10" x1="-119.1" y1="625.2" x2="-119.1" y2="737.2"/>
				<line fill="none" stroke="#064C7D" stroke-miterlimit="10" x1="-161.8" y1="625.2" x2="-161.8" y2="737.2"/>
				<line fill="none" stroke="#064C7D" stroke-miterlimit="10" x1="-204.6" y1="625.2" x2="-204.6" y2="737.2"/>
			</g>
			<path fill="#EE806C" d="M42.3,616.1h-283.5c-8.7,0-15.9,7.1-15.9,15.9v95.8c0,8.7,7.1,15.9,15.9,15.9H42.3
				c8.7,0,15.9-7.1,15.9-15.9V632C58.1,623.3,51,616.1,42.3,616.1z M48.2,715.9c0,8.7-7.1,15.9-15.9,15.9h-261.7
				c-8.7,0-15.9-7.1-15.9-15.9v-71.4c0-8.7,7.1-15.9,15.9-15.9H32.4c8.7,0,15.9,7.1,15.9,15.9V715.9z"/>
		</g>
		<g>
			<ellipse opacity="0.23" fill="#777777" cx="1198.2" cy="541.8" rx="11.8" ry="3.7"/>
			<ellipse opacity="0.23" fill="#777777" cx="1226.6" cy="541.8" rx="11.8" ry="3.7"/>
			<path fill="#FED38B" d="M1205.6,522.3v16.3c0,2.1-1.7,3.8-3.8,3.8h-3v-20.1H1205.6z"/>
			<path fill="#EE6E5A" d="M1203.5,522.3v15.9c0,2.3-1.9,4.2-4.2,4.2h-3.4c-2.3,0-4.2-1.9-4.2-4.2v-15.9H1203.5z"/>
			<path fill="#FED38B" d="M1234.1,522.3v16.3c0,2.1-1.7,3.8-3.8,3.8h-3v-20.1H1234.1z"/>
			<path fill="#EE6E5A" d="M1232,522.3v15.9c0,2.3-1.9,4.2-4.2,4.2h-3.4c-2.3,0-4.2-1.9-4.2-4.2v-15.9H1232z"/>
			<path opacity="0.4" fill="#FFFFFF" d="M1205.6,522.3v3.3h-11.7c-0.8,0-1.5-0.1-2.2-0.4v-2.9H1205.6z"/>
			<path opacity="0.4" fill="#FFFFFF" d="M1234.1,522.3v2.9c-0.7,0.3-1.4,0.4-2.1,0.4c0,0-0.1,0-0.1,0h-11.7v-3.3H1234.1z"/>
			<path fill="#EE6E5A" d="M1231.9,524.1h-38c-3.4,0-6.1-2.7-6.1-6.1v-40.3h50.3V518C1238,521.4,1235.3,524.1,1231.9,524.1z"/>
			<path fill="#EE6E5A" d="M1238,477.7l-50.2-0.1l0,0c0-2.3,1.9-4.2,4.2-4.2l41.8,0C1236.1,473.5,1238,475.4,1238,477.7L1238,477.7z
				"/>
			<path fill="#FED38B" d="M1222.6,519.1h-19.7c-4.7,0-8.5-3.8-8.5-8.5v-19.4c0-4.7,3.8-8.5,8.5-8.5h19.7c4.7,0,8.5,3.8,8.5,8.5
				v19.4C1231,515.3,1227.2,519.1,1222.6,519.1z"/>
			<path fill="#FED38B" d="M1238,477.7l-50.2-0.1c0-0.8,0.2-1.5,0.6-2.1h49.1C1237.8,476.2,1238,476.9,1238,477.7z"/>
			<path opacity="0.32" fill="#FFFFFF" d="M1194.4,491.2l28.1,27.9h-19.8c-4.6,0-8.3-3.7-8.3-8.3V491.2z"/>
		</g>
		<ellipse opacity="0.23" fill="#777777" cx="746.8" cy="248.2" rx="13.5" ry="4.3"/>
		<path fill="#8D7755" d="M747.9,248.2h-2.2c-1.2,0-2.1-0.9-2.1-2.1v-50c0-1.2,0.9-2.1,2.1-2.1h2.2c1.2,0,2.1,0.9,2.1,2.1v50
			C750,247.3,749,248.2,747.9,248.2z"/>
		<path fill="#F68B20" d="M786.1,180.1v6.6c0-2.2-1.8-4-4-4h-70.8c-2.2,0-4,1.8-4,4v-6.6c0-2.2,1.8-4,4-4h70.8
			C784.4,176.1,786.1,177.9,786.1,180.1z"/>
		<path fill="#777777" d="M786.1,186.7v30.4c0,2.2-1.8,4-4,4h-70.8c-2.2,0-4-1.8-4-4v-30.4c0-2.2,1.8-4,4-4h70.8
			C784.4,182.7,786.1,184.5,786.1,186.7z"/>
		<path fill="#FBBD16" d="M786.1,186.7v30.4c0,2.2-1.8,4-4,4h-70.8c-2.2,0-4-1.8-4-4v-30.4c0-2.2,1.8-4,4-4h70.8
			C784.4,182.7,786.1,184.5,786.1,186.7z"/>
		<g opacity="0.85">
			<path fill="#FFFFFF" d="M770.4,208.7v3.5c0,0,2.4,2,4.5,0v-3.8L770.4,208.7z"/>
			<path opacity="0.54" fill="#FFFFFF" d="M770.4,209.4c0,0,2.8,1.9,4.5,0v-1l-4.5-0.2V209.4z"/>
			<path opacity="0.54" fill="#FFFFFF" d="M770.4,209.9c0,0,2.8,1.9,4.5,0v-1l-4.5-0.2V209.9z"/>
			<path fill="#FFFFFF" d="M767.5,201.9l-2.7,3.6c-0.2,0.3-0.2,0.8,0.2,1c2.1,1.4,9.4,5.7,15.5-0.1c0.3-0.2,0.3-0.6,0.1-0.9
				l-2.7-3.5c-0.1-0.2-0.3-0.3-0.5-0.3H768C767.8,201.7,767.6,201.8,767.5,201.9z"/>
			<path fill="#FFFFFF" d="M769.3,198.9l-1.7,2.2c-0.2,0.2-0.2,0.5-0.1,0.7c0.4,0.8,1.6,2.4,4.6,2.7c3,0.2,4.9-1.6,5.7-2.5
				c0.2-0.2,0.2-0.6,0-0.8l-1.5-2.1c-0.1-0.2-0.3-0.3-0.5-0.3l-5.9,0C769.6,198.8,769.4,198.7,769.3,198.9z"/>
			<path fill="#FFFFFF" d="M768.7,199.6c0,0,4.2,2.3,7.9,0l-0.6-0.8h-3.4h-3.3L768.7,199.6z"/>
			<path opacity="0.54" fill="#FFFFFF" d="M774.9,211v0.6c-1.8,1.9-4.5,0-4.5,0V211C770.4,211,773.2,212.9,774.9,211z"/>
			<path fill="#FFFFFF" d="M767.5,201.8c0,0,4.7,3.3,10.2,0.2l0.9,1.1c0,0-3.4,4.8-12.1,0.1L767.5,201.8z"/>
			<path fill="#FFFFFF" d="M771.8,194.2l-2.4,4.1c-0.3,0.5-0.1,1.1,0.5,1.3c1.1,0.4,3.1,0.8,5.6,0c0.6-0.2,0.8-0.8,0.5-1.3l-2.6-4.1
				C772.9,193.6,772.1,193.6,771.8,194.2z"/>
		</g>
		<g opacity="0.85">
			<path fill="#FFFFFF" d="M745.4,209.7v3.5c0,0,2.4,2,4.5,0v-3.8L745.4,209.7z"/>
			<path opacity="0.54" fill="#FFFFFF" d="M745.4,210.4c0,0,2.8,1.9,4.5,0v-1l-4.5-0.2V210.4z"/>
			<path opacity="0.54" fill="#FFFFFF" d="M745.4,210.9c0,0,2.8,1.9,4.5,0v-1l-4.5-0.2V210.9z"/>
			<path fill="#FFFFFF" d="M742.5,202.9l-2.7,3.6c-0.2,0.3-0.2,0.8,0.2,1c2.1,1.4,9.4,5.7,15.5-0.1c0.3-0.2,0.3-0.6,0.1-0.9
				l-2.7-3.5c-0.1-0.2-0.3-0.3-0.5-0.3H743C742.8,202.7,742.6,202.8,742.5,202.9z"/>
			<path fill="#FFFFFF" d="M744.3,199.9l-1.7,2.2c-0.2,0.2-0.2,0.5-0.1,0.7c0.4,0.8,1.6,2.4,4.6,2.7c3,0.2,4.9-1.6,5.7-2.5
				c0.2-0.2,0.2-0.6,0-0.8l-1.5-2.1c-0.1-0.2-0.3-0.3-0.5-0.3l-5.9,0C744.6,199.8,744.4,199.7,744.3,199.9z"/>
			<path fill="#FFFFFF" d="M743.8,200.6c0,0,4.2,2.3,7.9,0l-0.6-0.8h-3.4h-3.3L743.8,200.6z"/>
			<path opacity="0.54" fill="#FFFFFF" d="M750,212v0.6c-1.8,1.9-4.5,0-4.5,0V212C745.4,212,748.2,213.9,750,212z"/>
			<path fill="#FFFFFF" d="M742.5,202.8c0,0,4.7,3.3,10.2,0.2l0.9,1.1c0,0-3.4,4.8-12.1,0.1L742.5,202.8z"/>
			<path fill="#FFFFFF" d="M746.8,195.2l-2.4,4.1c-0.3,0.5-0.1,1.1,0.5,1.3c1.1,0.4,3.1,0.8,5.6,0c0.6-0.2,0.8-0.8,0.5-1.3l-2.6-4.1
				C748,194.6,747.2,194.6,746.8,195.2z"/>
		</g>
		<g opacity="0.85">
			<path fill="#FFFFFF" d="M721.4,208.7v3.5c0,0,2.4,2,4.5,0v-3.8L721.4,208.7z"/>
			<path opacity="0.54" fill="#FFFFFF" d="M721.4,209.3c0,0,2.8,1.9,4.5,0v-1l-4.5-0.2V209.3z"/>
			<path opacity="0.54" fill="#FFFFFF" d="M721.4,209.9c0,0,2.8,1.9,4.5,0v-1l-4.5-0.2V209.9z"/>
			<path fill="#FFFFFF" d="M718.4,201.9l-2.7,3.6c-0.2,0.3-0.2,0.8,0.2,1c2.1,1.4,9.4,5.7,15.5-0.1c0.3-0.2,0.3-0.6,0.1-0.9
				l-2.7-3.5c-0.1-0.2-0.3-0.3-0.5-0.3H719C718.8,201.6,718.6,201.7,718.4,201.9z"/>
			<path fill="#FFFFFF" d="M720.3,198.8l-1.7,2.2c-0.2,0.2-0.2,0.5-0.1,0.7c0.4,0.8,1.6,2.4,4.6,2.7c3,0.2,4.9-1.6,5.7-2.5
				c0.2-0.2,0.2-0.6,0-0.8l-1.5-2.1c-0.1-0.2-0.3-0.3-0.5-0.3l-5.9,0C720.6,198.7,720.4,198.6,720.3,198.8z"/>
			<path fill="#FFFFFF" d="M719.7,199.5c0,0,4.2,2.3,7.9,0l-0.6-0.8h-3.4h-3.3L719.7,199.5z"/>
			<path opacity="0.54" fill="#FFFFFF" d="M725.9,210.9v0.6c-1.8,1.9-4.5,0-4.5,0v-0.6C721.4,210.9,724.2,212.8,725.9,210.9z"/>
			<path fill="#FFFFFF" d="M718.5,201.7c0,0,4.7,3.3,10.2,0.2l0.9,1.1c0,0-3.4,4.8-12.1,0.1L718.5,201.7z"/>
			<path fill="#FFFFFF" d="M722.8,194.1l-2.4,4.1c-0.3,0.5-0.1,1.1,0.5,1.3c1.1,0.4,3.1,0.8,5.6,0c0.6-0.2,0.8-0.8,0.5-1.3l-2.6-4.1
				C723.9,193.5,723.1,193.5,722.8,194.1z"/>
		</g>
		<g>
			<path fill="#FBBD16" d="M730.2,208.2c-7,3.4-12.4-0.1-12.6-0.3l0.3-0.3c0.2,0.2,5.3,3.4,12.4,0V208.2z"/>
		</g>
		<g>
			<path fill="#FBBD16" d="M754.2,209.2c-7,3.4-12.4-0.1-12.6-0.3l0.3-0.3c0.2,0.2,5.3,3.4,12.4,0V209.2z"/>
		</g>
		<g>
			<path fill="#FBBD16" d="M779,208.2c-7,3.4-12.4-0.1-12.6-0.3l0.3-0.3c0.2,0.2,5.3,3.4,12.4,0V208.2z"/>
		</g>
		<ellipse opacity="0.23" fill="#777777" cx="746.9" cy="247.7" rx="7.2" ry="2.3"/>
		<g>
			<ellipse fill="#0EA797" cx="299" cy="449.1" rx="19.8" ry="6.7"/>
			<path fill="#8D7755" d="M286.4,427.6v19.5c0,0,13.5,11.2,25.3,0v-21.2L286.4,427.6z"/>
			<path opacity="0.54" fill="#D4B080" d="M286.4,431.2c0,0,15.4,10.5,25.3,0v-5.3l-25.3-1.3V431.2z"/>
			<path opacity="0.54" fill="#D4B080" d="M286.4,434.3c0,0,15.4,10.5,25.3,0V429l-25.3-1.3V434.3z"/>
			<path fill="#6EC38C" d="M270,389.9l-14.8,20.1c-1.3,1.7-0.9,4.2,0.9,5.4c11.6,7.9,52.3,31.7,86.1-0.8c1.4-1.4,1.6-3.6,0.4-5.1
				l-15-19.7c-0.7-1-1.9-1.5-3.1-1.5h-51.5C271.8,388.3,270.7,388.9,270,389.9z"/>
			<path fill="#6EC38C" d="M280,372.7l-9.6,12.2c-0.9,1.2-1.1,2.7-0.4,4c2.3,4.4,9.1,13.6,25.5,14.9c16.8,1.3,27.5-9.1,31.5-14
				c1.1-1.3,1.1-3.2,0.1-4.6l-8.4-11.5c-0.7-0.9-1.8-1.5-2.9-1.5l-32.8,0.1C281.9,372.3,280.8,371.8,280,372.7z"/>
			<path fill="#B8D887" d="M277,376.6c0,0,23.2,12.9,43.8,0l-3.1-4.2h-18.8h-18.5L277,376.6z"/>
			<path opacity="0.54" fill="#D4B080" d="M311.7,440.3v3.1c-9.9,10.5-25.3,0-25.3,0v-3.1C286.4,440.3,301.8,450.9,311.7,440.3z"/>
			<path fill="#129280" d="M270.1,388.9c0,0,26.1,18.6,57,1l5,5.9c0,0-19.2,26.6-67.1,0.8L270.1,388.9z"/>
			<path fill="#0EA797" d="M294.1,346.5l-13.4,22.9c-1.6,2.7-0.3,6.2,2.6,7.1c6.2,2.1,17.4,4.2,31-0.1c3.1-1,4.4-4.6,2.6-7.3
				l-14.5-22.7C300.6,343.2,296,343.3,294.1,346.5z"/>
		</g>
		<g>
			<ellipse opacity="0.23" fill="#777777" cx="718.4" cy="558.2" rx="28.9" ry="9.1"/>
			<path fill="#07504E" d="M732.7,538.3c-15.6,15.6-28.7,0-28.7,0S719.3,527.1,732.7,538.3z"/>
			<path fill="#038181" d="M732.7,538.3v17.3c0,0-13.1,9.4-28.7,0v-17.3C704,538.3,718.1,551,732.7,538.3z"/>
			<path fill="#07504E" d="M718.1,537.1L718.1,537.1c-1,0-1.8-0.8-1.8-1.8V418c0-1,0.8-1.8,1.8-1.8l0,0c1,0,1.8,0.8,1.8,1.8v117.3
				C719.9,536.3,719.1,537.1,718.1,537.1z"/>
			<path fill="#07504E" d="M726.2,433.9h-17.1c-4.4,0-8-3.6-8-8v-4.2c0-4.4,3.6-8,8-8h17.1c4.4,0,8,3.6,8,8v4.2
				C734.2,430.3,730.6,433.9,726.2,433.9z"/>
			<path fill="#038181" d="M726.5,433.9h-17.7c-2,0-3.6-1.6-3.6-3.6v-2.9c0-2,1.6-3.6,3.6-3.6h17.7c2,0,3.6,1.6,3.6,3.6v2.9
				C730.1,432.2,728.5,433.9,726.5,433.9z"/>
			<path fill="#BF973C" d="M724.2,432.5c0,3.7-3,6.6-6.6,6.6s-6.6-3-6.6-6.6"/>
			<path fill="#07504E" d="M725.9,433.7h-16.5c-1.3,0-2.3-1-2.3-2.3v-0.3c0-1.3,1-2.3,2.3-2.3h16.5c1.3,0,2.3,1,2.3,2.3v0.3
				C728.2,432.7,727.1,433.7,725.9,433.7z"/>
		</g>
		<g>
			<ellipse opacity="0.23" fill="#777777" cx="873.3" cy="558.2" rx="28.9" ry="9.1"/>
			<path fill="#07504E" d="M887.7,538.3c-15.6,15.6-28.7,0-28.7,0S874.3,527.1,887.7,538.3z"/>
			<path fill="#038181" d="M887.7,538.3v17.3c0,0-13.1,9.4-28.7,0v-17.3C859,538.3,873,551,887.7,538.3z"/>
			<path fill="#07504E" d="M873.1,537.1L873.1,537.1c-1,0-1.8-0.8-1.8-1.8V418c0-1,0.8-1.8,1.8-1.8h0c1,0,1.8,0.8,1.8,1.8v117.3
				C874.8,536.3,874,537.1,873.1,537.1z"/>
			<path fill="#07504E" d="M881.1,433.9H864c-4.4,0-8-3.6-8-8v-4.2c0-4.4,3.6-8,8-8h17.1c4.4,0,8,3.6,8,8v4.2
				C889.2,430.3,885.6,433.9,881.1,433.9z"/>
			<path fill="#038181" d="M881.4,433.9h-17.7c-2,0-3.6-1.6-3.6-3.6v-2.9c0-2,1.6-3.6,3.6-3.6h17.7c2,0,3.6,1.6,3.6,3.6v2.9
				C885.1,432.2,883.4,433.9,881.4,433.9z"/>
			<path fill="#BF973C" d="M879.2,432.5c0,3.7-3,6.6-6.6,6.6s-6.6-3-6.6-6.6"/>
			<path fill="#07504E" d="M880.8,433.7h-16.5c-1.3,0-2.3-1-2.3-2.3v-0.3c0-1.3,1-2.3,2.3-2.3h16.5c1.3,0,2.3,1,2.3,2.3v0.3
				C883.1,432.7,882.1,433.7,880.8,433.7z"/>
		</g>
		<g>
			<ellipse opacity="0.23" fill="#777777" cx="1289.3" cy="558.2" rx="28.9" ry="9.1"/>
			<path fill="#07504E" d="M1303.7,538.3c-15.6,15.6-28.7,0-28.7,0S1290.3,527.1,1303.7,538.3z"/>
			<path fill="#038181" d="M1303.7,538.3v17.3c0,0-13.1,9.4-28.7,0v-17.3C1275,538.3,1289,551,1303.7,538.3z"/>
			<path fill="#07504E" d="M1289.1,537.1L1289.1,537.1c-1,0-1.8-0.8-1.8-1.8V418c0-1,0.8-1.8,1.8-1.8l0,0c1,0,1.8,0.8,1.8,1.8v117.3
				C1290.8,536.3,1290,537.1,1289.1,537.1z"/>
			<path fill="#07504E" d="M1297.1,433.9H1280c-4.4,0-8-3.6-8-8v-4.2c0-4.4,3.6-8,8-8h17.1c4.4,0,8,3.6,8,8v4.2
				C1305.2,430.3,1301.5,433.9,1297.1,433.9z"/>
			<path fill="#038181" d="M1297.4,433.9h-17.7c-2,0-3.6-1.6-3.6-3.6v-2.9c0-2,1.6-3.6,3.6-3.6h17.7c2,0,3.6,1.6,3.6,3.6v2.9
				C1301.1,432.2,1299.4,433.9,1297.4,433.9z"/>
			<path fill="#BF973C" d="M1295.2,432.5c0,3.7-3,6.6-6.6,6.6c-3.7,0-6.6-3-6.6-6.6"/>
			<path fill="#07504E" d="M1296.8,433.7h-16.5c-1.3,0-2.3-1-2.3-2.3v-0.3c0-1.3,1-2.3,2.3-2.3h16.5c1.3,0,2.3,1,2.3,2.3v0.3
				C1299.1,432.7,1298.1,433.7,1296.8,433.7z"/>
		</g>
		<g>
			<ellipse opacity="0.23" fill="#777777" cx="1440.5" cy="558.2" rx="28.9" ry="9.1"/>
			<path fill="#07504E" d="M1454.8,538.3c-15.6,15.6-28.7,0-28.7,0S1441.4,527.1,1454.8,538.3z"/>
			<path fill="#038181" d="M1454.8,538.3v17.3c0,0-13.1,9.4-28.7,0v-17.3C1426.1,538.3,1440.2,551,1454.8,538.3z"/>
			<path fill="#07504E" d="M1440.2,537.1L1440.2,537.1c-1,0-1.8-0.8-1.8-1.8V418c0-1,0.8-1.8,1.8-1.8l0,0c1,0,1.8,0.8,1.8,1.8v117.3
				C1442,536.3,1441.2,537.1,1440.2,537.1z"/>
			<path fill="#07504E" d="M1448.3,433.9h-17.1c-4.4,0-8-3.6-8-8v-4.2c0-4.4,3.6-8,8-8h17.1c4.4,0,8,3.6,8,8v4.2
				C1456.3,430.3,1452.7,433.9,1448.3,433.9z"/>
			<path fill="#038181" d="M1448.6,433.9h-17.7c-2,0-3.6-1.6-3.6-3.6v-2.9c0-2,1.6-3.6,3.6-3.6h17.7c2,0,3.6,1.6,3.6,3.6v2.9
				C1452.2,432.2,1450.6,433.9,1448.6,433.9z"/>
			<path fill="#BF973C" d="M1446.3,432.5c0,3.7-3,6.6-6.6,6.6c-3.7,0-6.6-3-6.6-6.6"/>
			<path fill="#07504E" d="M1448,433.7h-16.5c-1.3,0-2.3-1-2.3-2.3v-0.3c0-1.3,1-2.3,2.3-2.3h16.5c1.3,0,2.3,1,2.3,2.3v0.3
				C1450.3,432.7,1449.2,433.7,1448,433.7z"/>
		</g>
		<g>
			<path fill="#96CDB3" d="M1151.8,538.4H941.5c-6,0-11-4.9-11-11v-57.1c0-2.4,2-4.4,4.4-4.4h223.6c2.4,0,4.4,2,4.4,4.4v57.1
				C1162.8,533.4,1157.9,538.4,1151.8,538.4z"/>
			<path fill="#FBCA60" d="M1176.1,464.9c0,3.6-2.7,7.1-6.9,7.3c-0.1,0-0.2,0-0.3,0H922.3c-6.4,0-9.6-7.8-5.1-12.3l13.3-13.3
				l6.9-6.9l6.4-6.4l6.9-6.9l6.4-6.4l6.9-6.9l6.4-6.4l6.9-6.9l6.4-6.4l6.9-6.9l4.7-4.7c0.5-0.5,1-1,1.6-1.4c2-1.4,4.4-2.2,6.9-2.2
				h83.8c0.7,0,1.5,0.1,2.2,0.2c2.4,0.4,4.6,1.6,6.4,3.4l0.5,0.5l72.7,72.7l4.8,4.8C1175.4,461.3,1176.1,463.1,1176.1,464.9z"/>
			<path fill="#F6B935" d="M1176.1,468.2c0,3.6-2.7,7.1-6.9,7.3c-0.1,0-0.2,0-0.3,0H922.3c-5,0-8-4.7-7-8.9c0.7,3,3.3,5.6,7,5.6
				h246.6c0.1,0,0.2,0,0.3,0c3.5-0.2,6-2.6,6.7-5.6C1176,467.1,1176.1,467.6,1176.1,468.2z"/>
			<g>
				<polygon opacity="0.49" fill="#FFFFFF" points="937.4,439.7 937.4,472.1 930.5,472.1 930.5,446.6 				"/>
				<polygon opacity="0.49" fill="#FFFFFF" points="950.6,426.4 950.6,472.1 943.7,472.1 943.7,433.3 				"/>
				<polygon opacity="0.49" fill="#FFFFFF" points="963.9,413.2 963.9,472.1 957,472.1 957,420 				"/>
				<polygon opacity="0.49" fill="#FFFFFF" points="977.1,399.9 977.1,472.1 970.3,472.1 970.3,406.8 				"/>
				<polygon opacity="0.49" fill="#FFFFFF" points="990.4,386.6 990.4,472.1 983.5,472.1 983.5,393.5 				"/>
				<path opacity="0.49" fill="#FFFFFF" d="M1003.7,378.3v93.8h-6.9v-91.6C998.8,379.1,1001.2,378.4,1003.7,378.3z"/>
				<rect x="1010" y="378.4" opacity="0.49" fill="#FFFFFF" width="6.9" height="93.8"/>
				<rect x="1023.3" y="378.4" opacity="0.49" fill="#FFFFFF" width="6.9" height="93.8"/>
				<rect x="1036.6" y="378.4" opacity="0.49" fill="#FFFFFF" width="6.9" height="93.8"/>
				<rect x="1049.8" y="378.4" opacity="0.49" fill="#FFFFFF" width="6.9" height="93.8"/>
				<rect x="1063.1" y="378.4" opacity="0.49" fill="#FFFFFF" width="6.9" height="93.8"/>
				<rect x="1076.4" y="378.4" opacity="0.49" fill="#FFFFFF" width="6.9" height="93.8"/>
				<path opacity="0.49" fill="#FFFFFF" d="M1096.5,382.4v89.8h-6.9v-93.6c2.4,0.4,4.6,1.6,6.4,3.4L1096.5,382.4z"/>
				<polygon opacity="0.49" fill="#FFFFFF" points="1109.8,395.6 1109.8,472.1 1102.9,472.1 1102.9,388.8 				"/>
				<polygon opacity="0.49" fill="#FFFFFF" points="1123,408.9 1123,472.1 1116.2,472.1 1116.2,402 				"/>
				<polygon opacity="0.49" fill="#FFFFFF" points="1136.3,422.2 1136.3,472.1 1129.4,472.1 1129.4,415.3 				"/>
				<polygon opacity="0.49" fill="#FFFFFF" points="1149.6,435.4 1149.6,472.1 1142.7,472.1 1142.7,428.6 				"/>
				<polygon opacity="0.49" fill="#FFFFFF" points="1162.8,448.7 1162.8,472.1 1155.9,472.1 1155.9,441.8 				"/>
				<path opacity="0.49" fill="#FFFFFF" d="M1176.1,464.9c0,3.6-2.7,7.1-6.9,7.3v-17.1l4.8,4.8
					C1175.4,461.3,1176.1,463.1,1176.1,464.9z"/>
			</g>
			<path fill="#F15C4C" d="M1069.2,538.4h-47.3v-38.9c0-1.8,1.5-3.3,3.3-3.3h40.6c1.8,0,3.3,1.5,3.3,3.3V538.4z"/>
			<path fill="#FBCA60" d="M1066.4,538.4h-41.5v-35.9c0-1.6,1.3-3,3-3h35.6c1.6,0,3,1.3,3,3V538.4z"/>
			<rect x="1045" y="499.5" fill="#0A4B7E" width="1.1" height="38.9"/>
			<circle fill="#0A4B7E" cx="1050.8" cy="522.2" r="1.3"/>
			<circle fill="#0A4B7E" cx="1039.5" cy="522.2" r="1.3"/>
			<path fill="#1F7A74" d="M1146.6,523.5h-27.6c-1.9,0-3.4-1.5-3.4-3.4v-27.6c0-1.9,1.5-3.4,3.4-3.4h27.6c1.9,0,3.4,1.5,3.4,3.4
				v27.6C1150,522,1148.5,523.5,1146.6,523.5z"/>
			<path fill="#259877" d="M1143.7,519.8h-21.6c-1.5,0-2.6-1.2-2.6-2.6v-21.6c0-1.5,1.2-2.6,2.6-2.6h21.6c1.5,0,2.6,1.2,2.6,2.6
				v21.6C1146.3,518.6,1145.1,519.8,1143.7,519.8z"/>
			<path fill="#1F7A74" d="M977.7,523.5h-27.6c-1.9,0-3.4-1.5-3.4-3.4v-27.6c0-1.9,1.5-3.4,3.4-3.4h27.6c1.9,0,3.4,1.5,3.4,3.4v27.6
				C981,522,979.5,523.5,977.7,523.5z"/>
			<path fill="#259877" d="M974.7,519.8h-21.6c-1.5,0-2.6-1.2-2.6-2.6v-21.6c0-1.5,1.2-2.6,2.6-2.6h21.6c1.5,0,2.6,1.2,2.6,2.6v21.6
				C977.3,518.6,976.1,519.8,974.7,519.8z"/>
			<path fill="#FFD54F" d="M1073.4,368.1v8.2h-13.3v-8.6c0-1.3,1.1-2.4,2.4-2.4h8.1C1072.2,365.3,1073.4,366.5,1073.4,368.1z"/>
			<path fill="#F69321" d="M1073.4,371.4v4.9h-13.3V371c0-1.3,1.1-2.4,2.4-2.4h8.1C1072.2,368.6,1073.4,369.8,1073.4,371.4z"/>
			<rect x="1003.7" y="377.4" opacity="0.49" fill="#FFFFFF" width="20.2" height="0.9"/>
			<path opacity="0.34" fill="#FFFFFF" d="M953.1,492.9l24.1,25.2l0,0c0,0.9-0.8,1.7-1.7,1.7h-22.4c-1.5,0-2.6-1.2-2.6-2.6v-21.6
				C950.4,494.1,951.6,492.9,953.1,492.9L953.1,492.9z"/>
			<path opacity="0.34" fill="#FFFFFF" d="M1122.1,492.9l24.1,25.2l0,0c0,0.9-0.8,1.7-1.7,1.7h-22.4c-1.5,0-2.6-1.2-2.6-2.6v-21.6
				C1119.5,494.1,1120.7,492.9,1122.1,492.9L1122.1,492.9z"/>
			<path fill="#FFD54F" d="M1076.9,378.5h-20.2v-4.7c0-1.1,0.9-1.9,1.9-1.9h16.3c1.1,0,1.9,0.9,1.9,1.9V378.5z"/>
			<rect x="1056.7" y="376.8" fill="#F69321" width="20.2" height="1.7"/>
		</g>
		<g>
			<ellipse fill="#0EA797" cx="531.1" cy="412.9" rx="16.3" ry="5.5"/>
			<path fill="#8D7755" d="M520.7,395.2v16c0,0,11.2,9.2,20.8,0v-17.5L520.7,395.2z"/>
			<path opacity="0.54" fill="#D4B080" d="M520.7,398.1c0,0,12.7,8.7,20.8,0v-4.4l-20.8-1.1V398.1z"/>
			<path opacity="0.54" fill="#D4B080" d="M520.7,400.7c0,0,12.7,8.7,20.8,0v-4.4l-20.8-1.1V400.7z"/>
			<path fill="#6EC38C" d="M507.2,364L495,380.6c-1.1,1.4-0.7,3.5,0.7,4.5c9.5,6.5,43.1,26.1,70.9-0.7c1.2-1.1,1.3-2.9,0.3-4.2
				L554.6,364c-0.6-0.8-1.5-1.2-2.5-1.2h-42.4C508.7,362.8,507.8,363.2,507.2,364z"/>
			<path fill="#6EC38C" d="M515.5,350l-7.9,10c-0.7,1-0.9,2.3-0.3,3.3c1.9,3.6,7.5,11.2,21,12.3c13.8,1.1,22.6-7.5,25.9-11.5
				c0.9-1.1,0.9-2.6,0.1-3.8l-6.9-9.5c-0.6-0.8-1.4-1.2-2.4-1.3l-27,0C517,349.6,516.1,349.2,515.5,350z"/>
			<path fill="#B8D887" d="M513,353.1c0,0,19.1,10.6,36,0l-2.5-3.5H531h-15.3L513,353.1z"/>
			<path opacity="0.54" fill="#D4B080" d="M541.5,405.6v2.5c-8.2,8.7-20.8,0-20.8,0v-2.5C520.7,405.6,533.4,414.3,541.5,405.6z"/>
			<path fill="#129280" d="M507.3,363.3c0,0,21.5,15.3,46.9,0.8l4.1,4.8c0,0-15.8,21.9-55.3,0.6L507.3,363.3z"/>
			<path fill="#0EA797" d="M527.1,328.3L516,347.2c-1.3,2.2-0.3,5.1,2.2,5.9c5.1,1.7,14.3,3.5,25.5-0.1c2.5-0.8,3.6-3.8,2.2-6
				L534,328.2C532.4,325.7,528.6,325.7,527.1,328.3z"/>
		</g>
		<g>
			<ellipse fill="#0EA797" cx="567.9" cy="242.9" rx="26.5" ry="8.9"/>
			<path fill="#8D7755" d="M551,214.2v26c0,0,18.1,14.9,33.7,0v-28.3L551,214.2z"/>
			<path opacity="0.54" fill="#D4B080" d="M551,219c0,0,20.5,14.1,33.7,0v-7.1l-33.7-1.8V219z"/>
			<path opacity="0.54" fill="#D4B080" d="M551,223.1c0,0,20.5,14.1,33.7,0v-7.1l-33.7-1.8V223.1z"/>
			<path fill="#6EC38C" d="M529.1,163.8l-19.8,26.8c-1.7,2.3-1.2,5.6,1.2,7.3c15.4,10.6,69.8,42.3,114.9-1.1
				c1.9-1.8,2.1-4.7,0.5-6.8l-20-26.2c-1-1.3-2.5-2-4.1-2h-68.7C531.6,161.7,530,162.5,529.1,163.8z"/>
			<path fill="#6EC38C" d="M542.5,141l-12.8,16.2c-1.2,1.5-1.4,3.7-0.5,5.4c3.1,5.8,12.1,18.2,34,19.9c22.4,1.7,36.7-12.2,42-18.6
				c1.5-1.8,1.5-4.3,0.2-6.1l-11.2-15.3c-0.9-1.2-2.3-2-3.9-2l-43.8,0.1C545,140.4,543.5,139.8,542.5,141z"/>
			<path fill="#B8D887" d="M538.5,146.1c0,0,30.9,17.2,58.4,0l-4.1-5.6h-25.1h-24.7L538.5,146.1z"/>
			<path opacity="0.54" fill="#D4B080" d="M584.7,231.2v4.1c-13.2,14.1-33.7,0-33.7,0v-4.1C551,231.2,571.5,245.2,584.7,231.2z"/>
			<path fill="#129280" d="M529.2,162.6c0,0,34.9,24.8,76.1,1.3l6.7,7.9c0,0-25.6,35.5-89.6,1L529.2,162.6z"/>
			<path fill="#0EA797" d="M561.3,106l-17.9,30.5c-2.1,3.6-0.4,8.2,3.5,9.5c8.3,2.8,23.2,5.7,41.4-0.1c4.1-1.3,5.8-6.2,3.5-9.8
				l-19.3-30.3C569.9,101.7,563.8,101.8,561.3,106z"/>
		</g>
		<g>
			<ellipse opacity="0.49" fill="#B8D887" cx="486" cy="725.3" rx="37.6" ry="14.9"/>
			<ellipse fill="#0EA797" cx="486.3" cy="725.1" rx="26.5" ry="8.9"/>
			<path fill="#8D7755" d="M469.4,696.4v26c0,0,18.1,14.9,33.7,0v-28.3L469.4,696.4z"/>
			<path opacity="0.54" fill="#D4B080" d="M469.4,701.2c0,0,20.5,14.1,33.7,0v-7.1l-33.7-1.8V701.2z"/>
			<path opacity="0.54" fill="#D4B080" d="M469.4,705.3c0,0,20.5,14.1,33.7,0v-7.1l-33.7-1.8V705.3z"/>
			<path fill="#6EC38C" d="M447.5,646l-19.8,26.8c-1.7,2.3-1.2,5.6,1.2,7.3c15.4,10.6,69.8,42.3,114.9-1.1c1.9-1.8,2.1-4.7,0.5-6.8
				l-20-26.2c-1-1.3-2.5-2-4.1-2h-68.7C450,643.9,448.5,644.7,447.5,646z"/>
			<path fill="#6EC38C" d="M460.9,623.1l-12.8,16.2c-1.2,1.5-1.4,3.7-0.5,5.4c3.1,5.8,12.1,18.2,34,19.9c22.4,1.7,36.7-12.2,42-18.6
				c1.5-1.8,1.5-4.3,0.2-6.1l-11.2-15.3c-0.9-1.2-2.3-2-3.9-2l-43.8,0.1C463.4,622.6,461.9,621.9,460.9,623.1z"/>
			<path fill="#B8D887" d="M456.9,628.2c0,0,30.9,17.2,58.4,0l-4.1-5.6h-25.1h-24.7L456.9,628.2z"/>
			<path opacity="0.54" fill="#D4B080" d="M503.1,713.3v4.1c-13.2,14.1-33.7,0-33.7,0v-4.1C469.4,713.3,489.9,727.4,503.1,713.3z"/>
			<path fill="#129280" d="M447.7,644.8c0,0,34.9,24.8,76.1,1.3l6.7,7.9c0,0-25.6,35.5-89.6,1L447.7,644.8z"/>
			<path fill="#0EA797" d="M479.7,588.1l-17.9,30.5c-2.1,3.6-0.4,8.2,3.5,9.5c8.3,2.8,23.2,5.7,41.4-0.1c4.1-1.3,5.8-6.2,3.5-9.8
				l-19.3-30.3C488.3,583.8,482.2,583.9,479.7,588.1z"/>
		</g>
		<g>
			<ellipse opacity="0.49" fill="#B8D887" cx="846" cy="762.7" rx="37.6" ry="14.9"/>
			<ellipse fill="#0EA797" cx="846.3" cy="762.4" rx="26.5" ry="8.9"/>
			<path fill="#8D7755" d="M829.4,733.7v26c0,0,18.1,14.9,33.7,0v-28.3L829.4,733.7z"/>
			<path opacity="0.54" fill="#D4B080" d="M829.4,738.5c0,0,20.5,14.1,33.7,0v-7.1l-33.7-1.8V738.5z"/>
			<path opacity="0.54" fill="#D4B080" d="M829.4,742.6c0,0,20.5,14.1,33.7,0v-7.1l-33.7-1.8V742.6z"/>
			<path fill="#6EC38C" d="M807.5,683.3l-19.8,26.8c-1.7,2.3-1.2,5.6,1.2,7.3c15.4,10.6,69.8,42.3,114.9-1.1
				c1.9-1.8,2.1-4.7,0.5-6.8l-20-26.2c-1-1.3-2.5-2-4.1-2h-68.7C810,681.2,808.5,682,807.5,683.3z"/>
			<path fill="#6EC38C" d="M820.9,660.5l-12.8,16.2c-1.2,1.5-1.4,3.7-0.5,5.4c3.1,5.8,12.1,18.2,34,19.9c22.4,1.7,36.7-12.2,42-18.6
				c1.5-1.8,1.5-4.3,0.2-6.1l-11.2-15.3c-0.9-1.2-2.3-2-3.9-2l-43.8,0.1C823.4,659.9,821.9,659.2,820.9,660.5z"/>
			<path fill="#B8D887" d="M816.9,665.6c0,0,30.9,17.2,58.4,0l-4.1-5.6h-25.1h-24.7L816.9,665.6z"/>
			<path opacity="0.54" fill="#D4B080" d="M863.2,750.6v4.1c-13.2,14.1-33.7,0-33.7,0v-4.1C829.4,750.6,849.9,764.7,863.2,750.6z"/>
			<path fill="#129280" d="M807.7,682.1c0,0,34.9,24.8,76.1,1.3l6.7,7.9c0,0-25.6,35.5-89.6,1L807.7,682.1z"/>
			<path fill="#0EA797" d="M839.8,625.5L821.8,656c-2.1,3.6-0.4,8.2,3.5,9.5c8.3,2.8,23.2,5.7,41.4-0.1c4.1-1.3,5.8-6.2,3.5-9.8
				l-19.3-30.3C848.3,621.1,842.2,621.2,839.8,625.5z"/>
		</g>
		<g>
			<ellipse opacity="0.49" fill="#B8D887" cx="665.8" cy="847.4" rx="37.6" ry="14.9"/>
			<ellipse fill="#0EA797" cx="666.1" cy="847.1" rx="26.5" ry="8.9"/>
			<path fill="#8D7755" d="M649.2,818.4v26c0,0,18.1,14.9,33.7,0v-28.3L649.2,818.4z"/>
			<path opacity="0.54" fill="#D4B080" d="M649.2,823.2c0,0,20.5,14.1,33.7,0v-7.1l-33.7-1.8V823.2z"/>
			<path opacity="0.54" fill="#D4B080" d="M649.2,827.3c0,0,20.5,14.1,33.7,0v-7.1l-33.7-1.8V827.3z"/>
			<path fill="#6EC38C" d="M627.3,768l-19.8,26.8c-1.7,2.3-1.2,5.6,1.2,7.3c15.4,10.6,69.8,42.3,114.9-1.1c1.9-1.8,2.1-4.7,0.5-6.8
				l-20-26.2c-1-1.3-2.5-2-4.1-2h-68.7C629.8,765.9,628.2,766.7,627.3,768z"/>
			<path fill="#6EC38C" d="M640.7,745.2L628,761.4c-1.2,1.5-1.4,3.7-0.5,5.4c3.1,5.8,12.1,18.2,34,19.9c22.4,1.7,36.7-12.2,42-18.6
				c1.5-1.8,1.5-4.3,0.2-6.1l-11.2-15.3c-0.9-1.2-2.3-2-3.9-2l-43.8,0.1C643.2,744.6,641.7,744,640.7,745.2z"/>
			<path fill="#B8D887" d="M636.7,750.3c0,0,30.9,17.2,58.4,0l-4.1-5.6h-25.1h-24.7L636.7,750.3z"/>
			<path opacity="0.54" fill="#D4B080" d="M682.9,835.4v4.1c-13.2,14.1-33.7,0-33.7,0v-4.1C649.2,835.4,669.7,849.4,682.9,835.4z"/>
			<path fill="#129280" d="M627.5,766.8c0,0,34.9,24.8,76.1,1.3l6.7,7.9c0,0-25.6,35.5-89.6,1L627.5,766.8z"/>
			<path fill="#0EA797" d="M659.5,710.2l-17.9,30.5c-2.1,3.6-0.4,8.2,3.5,9.5c8.3,2.8,23.2,5.7,41.4-0.1c4.1-1.3,5.8-6.2,3.5-9.8
				L670.7,710C668.1,705.8,662,705.9,659.5,710.2z"/>
		</g>
		<g>
			<ellipse opacity="0.49" fill="#B8D887" cx="1029.2" cy="845.8" rx="37.6" ry="14.9"/>
			<ellipse fill="#0EA797" cx="1029.5" cy="845.5" rx="26.5" ry="8.9"/>
			<path fill="#8D7755" d="M1012.7,816.8v26c0,0,18.1,14.9,33.7,0v-28.3L1012.7,816.8z"/>
			<path opacity="0.54" fill="#D4B080" d="M1012.7,821.6c0,0,20.5,14.1,33.7,0v-7.1l-33.7-1.8V821.6z"/>
			<path opacity="0.54" fill="#D4B080" d="M1012.7,825.7c0,0,20.5,14.1,33.7,0v-7.1l-33.7-1.8V825.7z"/>
			<path fill="#6EC38C" d="M990.7,766.4L971,793.2c-1.7,2.3-1.2,5.6,1.2,7.3c15.4,10.6,69.8,42.3,114.9-1.1c1.9-1.8,2.1-4.7,0.5-6.8
				l-20-26.2c-1-1.3-2.5-2-4.1-2h-68.7C993.2,764.3,991.7,765.1,990.7,766.4z"/>
			<path fill="#6EC38C" d="M1004.2,743.6l-12.8,16.2c-1.2,1.5-1.4,3.7-0.5,5.4c3.1,5.8,12.1,18.2,34,19.9
				c22.4,1.7,36.7-12.2,42-18.6c1.5-1.8,1.5-4.3,0.2-6.1l-11.2-15.3c-0.9-1.2-2.3-2-3.9-2l-43.8,0.1
				C1006.7,743,1005.2,742.3,1004.2,743.6z"/>
			<path fill="#B8D887" d="M1000.2,748.7c0,0,30.9,17.2,58.4,0l-4.1-5.6h-25.1h-24.7L1000.2,748.7z"/>
			<path opacity="0.54" fill="#D4B080" d="M1046.4,833.7v4.1c-13.2,14.1-33.7,0-33.7,0v-4.1C1012.7,833.7,1033.2,847.8,1046.4,833.7
				z"/>
			<path fill="#129280" d="M990.9,765.2c0,0,34.9,24.8,76.1,1.3l6.7,7.9c0,0-25.6,35.5-89.6,1L990.9,765.2z"/>
			<path fill="#0EA797" d="M1023,708.6l-17.9,30.5c-2.1,3.6-0.4,8.2,3.5,9.5c8.3,2.8,23.2,5.7,41.4-0.1c4.1-1.3,5.8-6.2,3.5-9.8
				l-19.3-30.3C1031.6,704.2,1025.5,704.3,1023,708.6z"/>
		</g>
		<polyline fill="none" stroke="#FFFFFF" stroke-width="2" stroke-miterlimit="10" stroke-dasharray="12" points="1528.3,916.4 
			211.5,916.4 -356.8,916.4 -356.8,916.4 -359,916.4 		"/>
		<rect x="-356.8" y="-73" fill="#0EA797" width="20.2" height="1071.7"/>
		<rect x="-356.8" y="978.5" fill="#0EA797" width="1904.8" height="20.2"/>
		<rect x="1528.3" y="-73" fill="#0EA797" width="20.2" height="1071.7"/>
		<rect x="-356.9" y="-73" fill="#0EA797" width="1905.4" height="20.2"/>
		<g>
			<rect x="-133.6" y="284.5" fill="#D0EBE7" width="303.9" height="112.9"/>
			<path fill="#FEE06B" d="M159.9,520.6h-283.3c-8.5,0-15.5-7-15.5-15.5V391.3h314.2v113.8C175.3,513.6,168.4,520.6,159.9,520.6z"/>
			<rect x="-138.9" y="415.7" fill="#EE806C" width="314.2" height="9.3"/>
			<path opacity="0.69" fill="#BAE1DB" d="M160.5,280.4H-123c-8.7,0-15.9,7.1-15.9,15.9v78.7h11.9v-66.1c0-8.7,7.1-15.9,15.9-15.9
				h261.7c8.7,0,15.9,7.1,15.9,15.9v66.1h9.9v-78.7C176.4,287.5,169.2,280.4,160.5,280.4z"/>
			<path fill="#A8DBD3" d="M160.5,288.1H-123c-8.7,0-15.9,7.1-15.9,15.9v70.9h11.9v-58.4c0-8.7,7.1-15.9,15.9-15.9h261.7
				c8.7,0,15.9,7.1,15.9,15.9v58.4h9.9V304C176.4,295.3,169.2,288.1,160.5,288.1z"/>
			<path opacity="0.69" fill="#F79A1F" d="M51.1,520.6h-66.7v-55c0-2.6,2.1-4.7,4.7-4.7h57.4c2.6,0,4.7,2.1,4.7,4.7V520.6z"/>
			<g>
				<path opacity="0.69" fill="#F0633E" d="M103.4,450.2h-31c-2,0-3.7,1.7-3.7,3.7v47.8c0,2,1.7,3.7,3.7,3.7h31c2,0,3.7-1.7,3.7-3.7
					v-47.8C107.1,451.8,105.4,450.2,103.4,450.2z M104.5,500c0,1.7-1.4,3.2-3.2,3.2h-27c-1.7,0-3.2-1.4-3.2-3.2v-44.4
					c0-1.7,1.4-3.2,3.2-3.2h27c1.7,0,3.2,1.4,3.2,3.2V500z"/>
				<path opacity="0.69" fill="#F3A768" d="M104.5,455.6V500c0,1.7-1.4,3.2-3.2,3.2h-27c-1.7,0-3.2-1.4-3.2-3.2v-44.4
					c0-1.7,1.4-3.2,3.2-3.2h27C103.1,452.4,104.5,453.8,104.5,455.6z"/>
				<path opacity="0.28" fill="#FFFFFF" d="M71.2,455.6l30.2,47.6H74.2c-1.7,0-3-1.3-3-3V455.6z"/>
				<path opacity="0.28" fill="#FFFFFF" d="M97.5,503.2H74.2c-1.7,0-3-1.3-3-3v-38.5L97.5,503.2z"/>
			</g>
			<g>
				<path opacity="0.69" fill="#F0633E" d="M156.2,450.2h-31c-2,0-3.7,1.7-3.7,3.7v47.8c0,2,1.7,3.7,3.7,3.7h31c2,0,3.7-1.7,3.7-3.7
					v-47.8C159.9,451.8,158.2,450.2,156.2,450.2z M157.4,500c0,1.7-1.4,3.2-3.2,3.2h-27c-1.7,0-3.2-1.4-3.2-3.2v-44.4
					c0-1.7,1.4-3.2,3.2-3.2h27c1.7,0,3.2,1.4,3.2,3.2V500z"/>
				<path opacity="0.69" fill="#F3A768" d="M157.4,455.6V500c0,1.7-1.4,3.2-3.2,3.2h-27c-1.7,0-3.2-1.4-3.2-3.2v-44.4
					c0-1.7,1.4-3.2,3.2-3.2h27C155.9,452.4,157.4,453.8,157.4,455.6z"/>
				<path opacity="0.28" fill="#FFFFFF" d="M124,455.6l30.2,47.6H127c-1.7,0-3-1.3-3-3V455.6z"/>
				<path opacity="0.28" fill="#FFFFFF" d="M150.3,503.2H127c-1.7,0-3-1.3-3-3v-38.5L150.3,503.2z"/>
			</g>
			<g>
				<path opacity="0.69" fill="#F0633E" d="M-89.4,449.2h-31c-2,0-3.7,1.7-3.7,3.7v47.8c0,2,1.7,3.7,3.7,3.7h31c2,0,3.7-1.7,3.7-3.7
					v-47.8C-85.7,450.9-87.4,449.2-89.4,449.2z M-88.2,499c0,1.7-1.4,3.2-3.2,3.2h-27c-1.7,0-3.2-1.4-3.2-3.2v-44.4
					c0-1.7,1.4-3.2,3.2-3.2h27c1.7,0,3.2,1.4,3.2,3.2V499z"/>
				<path opacity="0.69" fill="#F3A768" d="M-88.2,454.6V499c0,1.7-1.4,3.2-3.2,3.2h-27c-1.7,0-3.2-1.4-3.2-3.2v-44.4
					c0-1.7,1.4-3.2,3.2-3.2h27C-89.7,451.4-88.2,452.9-88.2,454.6z"/>
				<path opacity="0.28" fill="#FFFFFF" d="M-121.6,454.6l30.2,47.6h-27.2c-1.7,0-3-1.3-3-3V454.6z"/>
				<path opacity="0.28" fill="#FFFFFF" d="M-95.3,502.2h-23.3c-1.7,0-3-1.3-3-3v-38.5L-95.3,502.2z"/>
			</g>
			<g>
				<path opacity="0.69" fill="#F0633E" d="M-36.6,449.2h-31c-2,0-3.7,1.7-3.7,3.7v47.8c0,2,1.7,3.7,3.7,3.7h31c2,0,3.7-1.7,3.7-3.7
					v-47.8C-32.8,450.9-34.5,449.2-36.6,449.2z M-35.4,499c0,1.7-1.4,3.2-3.2,3.2h-27c-1.7,0-3.2-1.4-3.2-3.2v-44.4
					c0-1.7,1.4-3.2,3.2-3.2h27c1.7,0,3.2,1.4,3.2,3.2V499z"/>
				<path opacity="0.69" fill="#F3A768" d="M-35.4,454.6V499c0,1.7-1.4,3.2-3.2,3.2h-27c-1.7,0-3.2-1.4-3.2-3.2v-44.4
					c0-1.7,1.4-3.2,3.2-3.2h27C-36.8,451.4-35.4,452.9-35.4,454.6z"/>
				<path opacity="0.28" fill="#FFFFFF" d="M-68.7,454.6l30.2,47.6h-27.2c-1.7,0-3-1.3-3-3V454.6z"/>
				<path opacity="0.28" fill="#FFFFFF" d="M-42.4,502.2h-23.3c-1.7,0-3-1.3-3-3v-38.5L-42.4,502.2z"/>
			</g>
			<path opacity="0.69" fill="#FBBD16" d="M47,520.6h-58.7v-50.7c0-2.3,1.9-4.2,4.2-4.2h50.2c2.3,0,4.2,1.9,4.2,4.2V520.6z"/>
			<rect x="16.9" y="465.7" fill="#0A4B7E" width="1.6" height="54.9"/>
			<circle fill="#0A4B7E" cx="25" cy="497.7" r="1.9"/>
			<circle fill="#0A4B7E" cx="9.1" cy="497.7" r="1.9"/>
			<g opacity="0.18">
				<rect x="-129.2" y="285.3" fill="none" stroke="#064C7D" stroke-miterlimit="10" width="299.5" height="112"/>
				<line fill="none" stroke="#064C7D" stroke-miterlimit="10" x1="-129.2" y1="360" x2="170.3" y2="360"/>
				<line fill="none" stroke="#064C7D" stroke-miterlimit="10" x1="-129.2" y1="322.6" x2="170.3" y2="322.6"/>
				<line fill="none" stroke="#064C7D" stroke-miterlimit="10" x1="127.5" y1="285.3" x2="127.5" y2="397.3"/>
				<line fill="none" stroke="#064C7D" stroke-miterlimit="10" x1="84.7" y1="285.3" x2="84.7" y2="397.3"/>
				<line fill="none" stroke="#064C7D" stroke-miterlimit="10" x1="41.9" y1="285.3" x2="41.9" y2="397.3"/>
				<line fill="none" stroke="#064C7D" stroke-miterlimit="10" x1="-0.8" y1="285.3" x2="-0.8" y2="397.3"/>
				<line fill="none" stroke="#064C7D" stroke-miterlimit="10" x1="-43.6" y1="285.3" x2="-43.6" y2="397.3"/>
				<line fill="none" stroke="#064C7D" stroke-miterlimit="10" x1="-86.4" y1="285.3" x2="-86.4" y2="397.3"/>
			</g>
			<path fill="#EE806C" d="M160.5,276.2H-123c-8.7,0-15.9,7.1-15.9,15.9v95.8c0,8.7,7.1,15.9,15.9,15.9h283.5
				c8.7,0,15.9-7.1,15.9-15.9v-95.8C176.3,283.4,169.2,276.2,160.5,276.2z M166.4,376c0,8.7-7.1,15.9-15.9,15.9h-261.7
				c-8.7,0-15.9-7.1-15.9-15.9v-71.4c0-8.7,7.1-15.9,15.9-15.9h261.7c8.7,0,15.9,7.1,15.9,15.9V376z"/>
		</g>
		<path fill="#A7DEF0" d="M-22.9,113.7h-266.6c-7.2,0-13.2-5.9-13.2-13.2V-11.1c0-7.2,5.9-13.2,13.2-13.2h266.6
			c7.2,0,13.2,5.9,13.2,13.2v111.6C-9.8,107.8-15.7,113.7-22.9,113.7z"/>
		<path opacity="0.28" fill="#2BAAD6" d="M-18.2,118h-266.6c-7.2,0-13.2-5.9-13.2-13.2V-6.9c0-7.2,5.9-13.2,13.2-13.2h266.6
			C-11-20-5-14.1-5-6.9v111.6C-5,112-11,118-18.2,118z"/>
		<path fill="#2BAAD6" d="M-23,113.8h-258.4c-6.9,0-12.6-5.7-12.6-12.6V-4.1c0-6.9,5.7-12.6,12.6-12.6H-23c6.9,0,12.6,5.7,12.6,12.6
			v105.2C-10.4,108.1-16.1,113.8-23,113.8z"/>
		<polygon opacity="0.3" fill="#A7DEF0" points="-294.1,101.2 -23,-16.7 -8.9,-16.7 -7.8,100.5 -14.3,110.2 -28.3,113.8 
			-295.2,114.6 		"/>
		<g>
			<path fill="#08486C" d="M-20.2-27.7h-272.1c-8.5,0-15.5,6.9-15.5,15.5v114c0,8.5,6.9,15.5,15.5,15.5h272.1
				c8.5,0,15.5-6.9,15.5-15.5v-114C-4.7-20.8-11.6-27.7-20.2-27.7z M-11.8,100.5c0,6.2-5,11.2-11.2,11.2h-266.6
				c-6.2,0-11.2-5-11.2-11.2V-11.1c0-6.2,5-11.2,11.2-11.2H-23c6.2,0,11.2,5,11.2,11.2V100.5z"/>
		</g>
		<path fill="#2BAAD6" d="M-294.1-4.1c0,0,6.7,16.9,20.7,15.9c13.9-1,19.9-15.9,38.2-15.9"/>
	</g>
</g>
</svg>
