<?xml version="1.0" encoding="utf-8"?>
<!-- Generator: Adobe Illustrator 18.0.0, SVG Export Plug-In . SVG Version: 6.00 Build 0)  -->
<!DOCTYPE svg PUBLIC "-//W3C//DTD SVG 1.1//EN" "http://www.w3.org/Graphics/SVG/1.1/DTD/svg11.dtd">
<svg version="1.1" id="Layer_1" xmlns="http://www.w3.org/2000/svg" xmlns:xlink="http://www.w3.org/1999/xlink" x="0px" y="0px"
	 viewBox="0 0 32 32" enable-background="new 0 0 32 32" xml:space="preserve">
<g>
	<g>
		<path fill="#FFFFFF" d="M30.5,30.5C30.4,30.5,30.4,30.5,30.5,30.5c-1.2,1.1-3,1.1-4.1,0l-8.9-9c-1.1-1.1,3-5.3,4.2-4.1l8.9,9
			C31.6,27.5,31.6,29.4,30.5,30.5L30.5,30.5z"/>
		<g>
			<path fill="none" d="M19.3,19.2"/>
		</g>
		<path fill="#FFFFFF" d="M12.2,0.6C9.1,0.6,6.2,1.8,4,4v0C1.9,6.1,0.7,9,0.7,12c0,3.1,1.2,5.9,3.3,8.1s5,3.4,8.1,3.4
			c3.1,0,5.9-1.2,8.1-3.4c2.2-2.2,3.4-5,3.4-8.1C23.6,5.8,18.5,0.6,12.2,0.6z M18.2,18.1c-1.6,1.6-3.8,2.5-6,2.5
			c-4.7,0-8.5-3.8-8.5-8.5c0-2.3,0.9-4.4,2.5-6c1.6-1.6,3.8-2.5,6-2.5c2.3,0,4.4,0.9,6,2.5c1.6,1.6,2.5,3.8,2.5,6
			C20.7,14.3,19.8,16.5,18.2,18.1z"/>
		<g>
			<path fill="#FFFFFF" d="M22.6,22.6c-0.6,0.6-1.5,0.6-2.1,0l-1.8-1.9c-0.6-0.6-0.6-1.5,0-2.1c0,0,0,0,0,0c0.6-0.6,1.5-0.6,2.1,0
				l1.8,1.9C23.2,21.1,23.2,22.1,22.6,22.6C22.6,22.6,22.6,22.6,22.6,22.6z"/>
		</g>
		<text transform="matrix(1 0 0 1 8.8303 16.3963)" fill="#FFFFFF" font-family="'Roboto-Black'" font-size="12.6058">+</text>
	</g>
</g>
</svg>
