<?xml version="1.0" encoding="utf-8"?>
<!-- Generator: Adobe Illustrator 18.0.0, SVG Export Plug-In . SVG Version: 6.00 Build 0)  -->
<!DOCTYPE svg PUBLIC "-//W3C//DTD SVG 1.1//EN" "http://www.w3.org/Graphics/SVG/1.1/DTD/svg11.dtd">
<svg version="1.1" id="Layer_1" xmlns="http://www.w3.org/2000/svg" xmlns:xlink="http://www.w3.org/1999/xlink" x="0px" y="0px"
	 viewBox="0 0 40 40" enable-background="new 0 0 40 40" xml:space="preserve">
<circle fill="none" stroke="#FFFFFF" stroke-miterlimit="10" cx="19.7" cy="19.4" r="18.5"/>
<g>
	<g>
		<path fill="#FFFFFF" d="M26.4,12.1H12.9c-0.6,0-1.2,0.5-1.2,1.1v13.5c0,0.6,0.5,1.1,1.2,1.1h13.5c0.6,0,1.2-0.5,1.2-1.1V13.3
			C27.6,12.7,27.1,12.1,26.4,12.1z M16.4,25.6h-2.4v-7.6h2.4V25.6z M15.3,17c-0.8,0-1.4-0.6-1.4-1.4s0.6-1.4,1.4-1.4
			c0.8,0,1.4,0.6,1.4,1.4S16,17,15.3,17z M25.2,25.6h-2.3V22c0-0.9,0-2-1.2-2c-1.2,0-1.4,1-1.4,1.9v3.7h-2.3v-7.6h2.3v1h0
			c0.3-0.6,1.1-1.2,2.2-1.2c2.4,0,2.8,1.6,2.8,3.6V25.6z"/>
	</g>
</g>
</svg>
