<?xml version="1.0" encoding="utf-8"?>
<!-- Generator: Adobe Illustrator 18.0.0, SVG Export Plug-In . SVG Version: 6.00 Build 0)  -->
<!DOCTYPE svg PUBLIC "-//W3C//DTD SVG 1.1//EN" "http://www.w3.org/Graphics/SVG/1.1/DTD/svg11.dtd">
<svg version="1.1" id="Layer_1" xmlns="http://www.w3.org/2000/svg" xmlns:xlink="http://www.w3.org/1999/xlink" x="0px" y="0px"
	 viewBox="0 0 32 32" enable-background="new 0 0 32 32" xml:space="preserve">
<path fill="#F34A53" d="M28.4,9.6H3.6C2.8,9.6,2.1,8.9,2.1,8V3.8c0-0.9,0.7-1.6,1.6-1.6h24.7c0.9,0,1.6,0.7,1.6,1.6V8
	C29.9,8.9,29.2,9.6,28.4,9.6z"/>
<path fill="#F2C12E" d="M28.4,19.8H3.6c-0.9,0-1.6-0.7-1.6-1.6V14c0-0.9,0.7-1.6,1.6-1.6h24.7c0.9,0,1.6,0.7,1.6,1.6v4.3
	C29.9,19.1,29.2,19.8,28.4,19.8z"/>
<path fill="#F29D35" d="M28.4,30H3.6c-0.9,0-1.6-0.7-1.6-1.6v-4.3c0-0.9,0.7-1.6,1.6-1.6h24.7c0.9,0,1.6,0.7,1.6,1.6v4.3
	C29.9,29.3,29.2,30,28.4,30z"/>
</svg>
