<?xml version="1.0" encoding="utf-8"?>
<!-- Generator: Adobe Illustrator 18.0.0, SVG Export Plug-In . SVG Version: 6.00 Build 0)  -->
<!DOCTYPE svg PUBLIC "-//W3C//DTD SVG 1.1//EN" "http://www.w3.org/Graphics/SVG/1.1/DTD/svg11.dtd">
<svg version="1.1" id="Layer_1" xmlns="http://www.w3.org/2000/svg" xmlns:xlink="http://www.w3.org/1999/xlink" x="0px" y="0px"
	 viewBox="0 0 521.7 334.7" enable-background="new 0 0 521.7 334.7" xml:space="preserve">
<g>
	<g opacity="0.5">
		<g opacity="0.19">
			<path fill="#FFFFFF" d="M17.3,36.8L0.6,20c-0.7-0.7-0.7-2,0-2.7L17.3,0.6c0.7-0.7,2-0.7,2.7,0l16.8,16.8c0.7,0.7,0.7,2,0,2.7
				L20,36.8C19.3,37.5,18,37.5,17.3,36.8z"/>
			<path fill="#FFFFFF" d="M54.6,36.8L37.9,20c-0.7-0.7-0.7-2,0-2.7L54.6,0.6c0.7-0.7,2-0.7,2.7,0l16.8,16.8c0.7,0.7,0.7,2,0,2.7
				L57.3,36.8C56.6,37.5,55.4,37.5,54.6,36.8z"/>
			<path fill="#FFFFFF" d="M17.3,74.1L0.6,57.3c-0.7-0.7-0.7-2,0-2.7l16.8-16.8c0.7-0.7,2-0.7,2.7,0l16.8,16.8c0.7,0.7,0.7,2,0,2.7
				L20,74.1C19.3,74.8,18,74.8,17.3,74.1z"/>
			<path fill="#FFFFFF" d="M54.6,74.1L37.9,57.3c-0.7-0.7-0.7-2,0-2.7l16.8-16.8c0.7-0.7,2-0.7,2.7,0l16.8,16.8c0.7,0.7,0.7,2,0,2.7
				L57.3,74.1C56.6,74.8,55.4,74.8,54.6,74.1z"/>
		</g>
		<g opacity="0.19">
			<path fill="#FFFFFF" d="M91.9,36.8L75.2,20c-0.7-0.7-0.7-2,0-2.7L91.9,0.6c0.7-0.7,2-0.7,2.7,0l16.8,16.8c0.7,0.7,0.7,2,0,2.7
				L94.6,36.8C93.9,37.5,92.7,37.5,91.9,36.8z"/>
			<path fill="#FFFFFF" d="M129.2,36.8L112.5,20c-0.7-0.7-0.7-2,0-2.7l16.8-16.8c0.7-0.7,2-0.7,2.7,0l16.8,16.8c0.7,0.7,0.7,2,0,2.7
				l-16.8,16.8C131.2,37.5,130,37.5,129.2,36.8z"/>
			<path fill="#FFFFFF" d="M91.9,74.1L75.2,57.3c-0.7-0.7-0.7-2,0-2.7l16.8-16.8c0.7-0.7,2-0.7,2.7,0l16.8,16.8c0.7,0.7,0.7,2,0,2.7
				L94.6,74.1C93.9,74.8,92.7,74.8,91.9,74.1z"/>
			<path fill="#FFFFFF" d="M129.2,74.1l-16.8-16.8c-0.7-0.7-0.7-2,0-2.7l16.8-16.8c0.7-0.7,2-0.7,2.7,0l16.8,16.8
				c0.7,0.7,0.7,2,0,2.7l-16.8,16.8C131.2,74.8,130,74.8,129.2,74.1z"/>
		</g>
		<g opacity="0.19">
			<path fill="#FFFFFF" d="M17.3,110.9L0.6,94.1c-0.7-0.7-0.7-2,0-2.7l16.8-16.8c0.7-0.7,2-0.7,2.7,0l16.8,16.8c0.7,0.7,0.7,2,0,2.7
				L20,110.9C19.3,111.6,18,111.6,17.3,110.9z"/>
			<path fill="#FFFFFF" d="M54.6,110.9L37.9,94.1c-0.7-0.7-0.7-2,0-2.7l16.8-16.8c0.7-0.7,2-0.7,2.7,0l16.8,16.8
				c0.7,0.7,0.7,2,0,2.7l-16.8,16.8C56.6,111.6,55.4,111.6,54.6,110.9z"/>
			<path fill="#FFFFFF" d="M17.3,148.2L0.6,131.4c-0.7-0.7-0.7-2,0-2.7L17.3,112c0.7-0.7,2-0.7,2.7,0l16.8,16.8c0.7,0.7,0.7,2,0,2.7
				L20,148.2C19.3,148.9,18,148.9,17.3,148.2z"/>
			<path fill="#FFFFFF" d="M54.6,148.2l-16.8-16.8c-0.7-0.7-0.7-2,0-2.7L54.6,112c0.7-0.7,2-0.7,2.7,0l16.8,16.8
				c0.7,0.7,0.7,2,0,2.7l-16.8,16.8C56.6,148.9,55.4,148.9,54.6,148.2z"/>
		</g>
		<g opacity="0.19">
			<path fill="#FFFFFF" d="M91.9,110.9L75.2,94.1c-0.7-0.7-0.7-2,0-2.7l16.8-16.8c0.7-0.7,2-0.7,2.7,0l16.8,16.8
				c0.7,0.7,0.7,2,0,2.7l-16.8,16.8C93.9,111.6,92.7,111.6,91.9,110.9z"/>
			<path fill="#FFFFFF" d="M129.2,110.9l-16.8-16.8c-0.7-0.7-0.7-2,0-2.7l16.8-16.8c0.7-0.7,2-0.7,2.7,0l16.8,16.8
				c0.7,0.7,0.7,2,0,2.7l-16.8,16.8C131.2,111.6,130,111.6,129.2,110.9z"/>
			<path fill="#FFFFFF" d="M91.9,148.2l-16.8-16.8c-0.7-0.7-0.7-2,0-2.7L91.9,112c0.7-0.7,2-0.7,2.7,0l16.8,16.8
				c0.7,0.7,0.7,2,0,2.7l-16.8,16.8C93.9,148.9,92.7,148.9,91.9,148.2z"/>
			<path fill="#FFFFFF" d="M129.2,148.2l-16.8-16.8c-0.7-0.7-0.7-2,0-2.7l16.8-16.8c0.7-0.7,2-0.7,2.7,0l16.8,16.8
				c0.7,0.7,0.7,2,0,2.7l-16.8,16.8C131.2,148.9,130,148.9,129.2,148.2z"/>
		</g>
		<g opacity="0.19">
			<path fill="#FFFFFF" d="M17.3,185.5L0.6,168.7c-0.7-0.7-0.7-2,0-2.7l16.8-16.8c0.7-0.7,2-0.7,2.7,0L36.8,166c0.7,0.7,0.7,2,0,2.7
				L20,185.5C19.3,186.2,18,186.2,17.3,185.5z"/>
			<path fill="#FFFFFF" d="M54.6,185.5l-16.8-16.8c-0.7-0.7-0.7-2,0-2.7l16.8-16.8c0.7-0.7,2-0.7,2.7,0L74.1,166
				c0.7,0.7,0.7,2,0,2.7l-16.8,16.8C56.6,186.2,55.4,186.2,54.6,185.5z"/>
			<path fill="#FFFFFF" d="M17.3,222.8L0.6,206c-0.7-0.7-0.7-2,0-2.7l16.8-16.8c0.7-0.7,2-0.7,2.7,0l16.8,16.8c0.7,0.7,0.7,2,0,2.7
				L20,222.8C19.3,223.5,18,223.5,17.3,222.8z"/>
			<path fill="#FFFFFF" d="M54.6,222.8L37.9,206c-0.7-0.7-0.7-2,0-2.7l16.8-16.8c0.7-0.7,2-0.7,2.7,0l16.8,16.8c0.7,0.7,0.7,2,0,2.7
				l-16.8,16.8C56.6,223.5,55.4,223.5,54.6,222.8z"/>
		</g>
		<g opacity="0.19">
			<path fill="#FFFFFF" d="M91.9,185.5l-16.8-16.8c-0.7-0.7-0.7-2,0-2.7l16.8-16.8c0.7-0.7,2-0.7,2.7,0l16.8,16.8
				c0.7,0.7,0.7,2,0,2.7l-16.8,16.8C93.9,186.2,92.7,186.2,91.9,185.5z"/>
			<path fill="#FFFFFF" d="M129.2,185.5l-16.8-16.8c-0.7-0.7-0.7-2,0-2.7l16.8-16.8c0.7-0.7,2-0.7,2.7,0l16.8,16.8
				c0.7,0.7,0.7,2,0,2.7l-16.8,16.8C131.2,186.2,130,186.2,129.2,185.5z"/>
			<path fill="#FFFFFF" d="M91.9,222.8L75.2,206c-0.7-0.7-0.7-2,0-2.7l16.8-16.8c0.7-0.7,2-0.7,2.7,0l16.8,16.8c0.7,0.7,0.7,2,0,2.7
				l-16.8,16.8C93.9,223.5,92.7,223.5,91.9,222.8z"/>
			<path fill="#FFFFFF" d="M129.2,222.8L112.5,206c-0.7-0.7-0.7-2,0-2.7l16.8-16.8c0.7-0.7,2-0.7,2.7,0l16.8,16.8
				c0.7,0.7,0.7,2,0,2.7l-16.8,16.8C131.2,223.5,130,223.5,129.2,222.8z"/>
		</g>
		<g opacity="0.19">
			<path fill="#FFFFFF" d="M17.3,259.6L0.6,242.8c-0.7-0.7-0.7-2,0-2.7l16.8-16.8c0.7-0.7,2-0.7,2.7,0l16.8,16.8
				c0.7,0.7,0.7,2,0,2.7L20,259.6C19.3,260.3,18,260.3,17.3,259.6z"/>
			<path fill="#FFFFFF" d="M54.6,259.6l-16.8-16.8c-0.7-0.7-0.7-2,0-2.7l16.8-16.8c0.7-0.7,2-0.7,2.7,0l16.8,16.8
				c0.7,0.7,0.7,2,0,2.7l-16.8,16.8C56.6,260.3,55.4,260.3,54.6,259.6z"/>
			<path fill="#FFFFFF" d="M17.3,296.9L0.6,280.1c-0.7-0.7-0.7-2,0-2.7l16.8-16.8c0.7-0.7,2-0.7,2.7,0l16.8,16.8
				c0.7,0.7,0.7,2,0,2.7L20,296.9C19.3,297.6,18,297.6,17.3,296.9z"/>
			<path fill="#FFFFFF" d="M54.6,296.9l-16.8-16.8c-0.7-0.7-0.7-2,0-2.7l16.8-16.8c0.7-0.7,2-0.7,2.7,0l16.8,16.8
				c0.7,0.7,0.7,2,0,2.7l-16.8,16.8C56.6,297.6,55.4,297.6,54.6,296.9z"/>
		</g>
		<g opacity="0.19">
			<path fill="#FFFFFF" d="M91.9,259.6l-16.8-16.8c-0.7-0.7-0.7-2,0-2.7l16.8-16.8c0.7-0.7,2-0.7,2.7,0l16.8,16.8
				c0.7,0.7,0.7,2,0,2.7l-16.8,16.8C93.9,260.3,92.7,260.3,91.9,259.6z"/>
			<path fill="#FFFFFF" d="M129.2,259.6l-16.8-16.8c-0.7-0.7-0.7-2,0-2.7l16.8-16.8c0.7-0.7,2-0.7,2.7,0l16.8,16.8
				c0.7,0.7,0.7,2,0,2.7l-16.8,16.8C131.2,260.3,130,260.3,129.2,259.6z"/>
			<path fill="#FFFFFF" d="M91.9,296.9l-16.8-16.8c-0.7-0.7-0.7-2,0-2.7l16.8-16.8c0.7-0.7,2-0.7,2.7,0l16.8,16.8
				c0.7,0.7,0.7,2,0,2.7l-16.8,16.8C93.9,297.6,92.7,297.6,91.9,296.9z"/>
			<path fill="#FFFFFF" d="M129.2,296.9l-16.8-16.8c-0.7-0.7-0.7-2,0-2.7l16.8-16.8c0.7-0.7,2-0.7,2.7,0l16.8,16.8
				c0.7,0.7,0.7,2,0,2.7l-16.8,16.8C131.2,297.6,130,297.6,129.2,296.9z"/>
		</g>
		<g opacity="0.19">
			<path fill="#FFFFFF" d="M17.3,334.2L0.6,317.4c-0.7-0.7-0.7-2,0-2.7L17.3,298c0.7-0.7,2-0.7,2.7,0l16.8,16.8c0.7,0.7,0.7,2,0,2.7
				L20,334.2C19.3,334.9,18,334.9,17.3,334.2z"/>
			<path fill="#FFFFFF" d="M54.6,334.2l-16.8-16.8c-0.7-0.7-0.7-2,0-2.7L54.6,298c0.7-0.7,2-0.7,2.7,0l16.8,16.8
				c0.7,0.7,0.7,2,0,2.7l-16.8,16.8C56.6,334.9,55.4,334.9,54.6,334.2z"/>
		</g>
		<g opacity="0.19">
			<path fill="#FFFFFF" d="M91.9,334.2l-16.8-16.8c-0.7-0.7-0.7-2,0-2.7L91.9,298c0.7-0.7,2-0.7,2.7,0l16.8,16.8
				c0.7,0.7,0.7,2,0,2.7l-16.8,16.8C93.9,334.9,92.7,334.9,91.9,334.2z"/>
			<path fill="#FFFFFF" d="M129.2,334.2l-16.8-16.8c-0.7-0.7-0.7-2,0-2.7l16.8-16.8c0.7-0.7,2-0.7,2.7,0l16.8,16.8
				c0.7,0.7,0.7,2,0,2.7l-16.8,16.8C131.2,334.9,130,334.9,129.2,334.2z"/>
		</g>
	</g>
	<g opacity="0.5">
		<g opacity="0.19">
			<path fill="#FFFFFF" d="M166.5,36.8L149.8,20c-0.7-0.7-0.7-2,0-2.7l16.8-16.8c0.7-0.7,2-0.7,2.7,0L186,17.3c0.7,0.7,0.7,2,0,2.7
				l-16.8,16.8C168.5,37.5,167.3,37.5,166.5,36.8z"/>
			<path fill="#FFFFFF" d="M203.8,36.8L187.1,20c-0.7-0.7-0.7-2,0-2.7l16.8-16.8c0.7-0.7,2-0.7,2.7,0l16.8,16.8c0.7,0.7,0.7,2,0,2.7
				l-16.8,16.8C205.8,37.5,204.6,37.5,203.8,36.8z"/>
			<path fill="#FFFFFF" d="M166.5,74.1l-16.8-16.8c-0.7-0.7-0.7-2,0-2.7l16.8-16.8c0.7-0.7,2-0.7,2.7,0L186,54.6
				c0.7,0.7,0.7,2,0,2.7l-16.8,16.8C168.5,74.8,167.3,74.8,166.5,74.1z"/>
			<path fill="#FFFFFF" d="M203.8,74.1l-16.8-16.8c-0.7-0.7-0.7-2,0-2.7l16.8-16.8c0.7-0.7,2-0.7,2.7,0l16.8,16.8
				c0.7,0.7,0.7,2,0,2.7l-16.8,16.8C205.8,74.8,204.6,74.8,203.8,74.1z"/>
		</g>
		<g opacity="0.19">
			<path fill="#FFFFFF" d="M241.2,36.8L224.4,20c-0.7-0.7-0.7-2,0-2.7l16.8-16.8c0.7-0.7,2-0.7,2.7,0l16.8,16.8c0.7,0.7,0.7,2,0,2.7
				l-16.8,16.8C243.1,37.5,241.9,37.5,241.2,36.8z"/>
			<path fill="#FFFFFF" d="M241.2,74.1l-16.8-16.8c-0.7-0.7-0.7-2,0-2.7l16.8-16.8c0.7-0.7,2-0.7,2.7,0l16.8,16.8
				c0.7,0.7,0.7,2,0,2.7l-16.8,16.8C243.1,74.8,241.9,74.8,241.2,74.1z"/>
		</g>
		<g opacity="0.19">
			<path fill="#FFFFFF" d="M166.5,110.9l-16.8-16.8c-0.7-0.7-0.7-2,0-2.7l16.8-16.8c0.7-0.7,2-0.7,2.7,0L186,91.4
				c0.7,0.7,0.7,2,0,2.7l-16.8,16.8C168.5,111.6,167.3,111.6,166.5,110.9z"/>
			<path fill="#FFFFFF" d="M203.8,110.9l-16.8-16.8c-0.7-0.7-0.7-2,0-2.7l16.8-16.8c0.7-0.7,2-0.7,2.7,0l16.8,16.8
				c0.7,0.7,0.7,2,0,2.7l-16.8,16.8C205.8,111.6,204.6,111.6,203.8,110.9z"/>
			<path fill="#FFFFFF" d="M166.5,148.2l-16.8-16.8c-0.7-0.7-0.7-2,0-2.7l16.8-16.8c0.7-0.7,2-0.7,2.7,0l16.8,16.8
				c0.7,0.7,0.7,2,0,2.7l-16.8,16.8C168.5,148.9,167.3,148.9,166.5,148.2z"/>
			<path fill="#FFFFFF" d="M203.8,148.2l-16.8-16.8c-0.7-0.7-0.7-2,0-2.7l16.8-16.8c0.7-0.7,2-0.7,2.7,0l16.8,16.8
				c0.7,0.7,0.7,2,0,2.7l-16.8,16.8C205.8,148.9,204.6,148.9,203.8,148.2z"/>
		</g>
		<g opacity="0.19">
			<path fill="#FFFFFF" d="M241.2,110.9l-16.8-16.8c-0.7-0.7-0.7-2,0-2.7l16.8-16.8c0.7-0.7,2-0.7,2.7,0l16.8,16.8
				c0.7,0.7,0.7,2,0,2.7l-16.8,16.8C243.1,111.6,241.9,111.6,241.2,110.9z"/>
			<path fill="#FFFFFF" d="M241.2,148.2l-16.8-16.8c-0.7-0.7-0.7-2,0-2.7l16.8-16.8c0.7-0.7,2-0.7,2.7,0l16.8,16.8
				c0.7,0.7,0.7,2,0,2.7l-16.8,16.8C243.1,148.9,241.9,148.9,241.2,148.2z"/>
		</g>
		<g opacity="0.19">
			<path fill="#FFFFFF" d="M166.5,185.5l-16.8-16.8c-0.7-0.7-0.7-2,0-2.7l16.8-16.8c0.7-0.7,2-0.7,2.7,0L186,166
				c0.7,0.7,0.7,2,0,2.7l-16.8,16.8C168.5,186.2,167.3,186.2,166.5,185.5z"/>
			<path fill="#FFFFFF" d="M203.8,185.5l-16.8-16.8c-0.7-0.7-0.7-2,0-2.7l16.8-16.8c0.7-0.7,2-0.7,2.7,0l16.8,16.8
				c0.7,0.7,0.7,2,0,2.7l-16.8,16.8C205.8,186.2,204.6,186.2,203.8,185.5z"/>
			<path fill="#FFFFFF" d="M166.5,222.8L149.8,206c-0.7-0.7-0.7-2,0-2.7l16.8-16.8c0.7-0.7,2-0.7,2.7,0l16.8,16.8
				c0.7,0.7,0.7,2,0,2.7l-16.8,16.8C168.5,223.5,167.3,223.5,166.5,222.8z"/>
			<path fill="#FFFFFF" d="M203.8,222.8L187.1,206c-0.7-0.7-0.7-2,0-2.7l16.8-16.8c0.7-0.7,2-0.7,2.7,0l16.8,16.8
				c0.7,0.7,0.7,2,0,2.7l-16.8,16.8C205.8,223.5,204.6,223.5,203.8,222.8z"/>
		</g>
		<g opacity="0.19">
			<path fill="#FFFFFF" d="M241.2,185.5l-16.8-16.8c-0.7-0.7-0.7-2,0-2.7l16.8-16.8c0.7-0.7,2-0.7,2.7,0l16.8,16.8
				c0.7,0.7,0.7,2,0,2.7l-16.8,16.8C243.1,186.2,241.9,186.2,241.2,185.5z"/>
			<path fill="#FFFFFF" d="M241.2,222.8L224.4,206c-0.7-0.7-0.7-2,0-2.7l16.8-16.8c0.7-0.7,2-0.7,2.7,0l16.8,16.8
				c0.7,0.7,0.7,2,0,2.7l-16.8,16.8C243.1,223.5,241.9,223.5,241.2,222.8z"/>
		</g>
		<g opacity="0.19">
			<path fill="#FFFFFF" d="M166.5,259.6l-16.8-16.8c-0.7-0.7-0.7-2,0-2.7l16.8-16.8c0.7-0.7,2-0.7,2.7,0l16.8,16.8
				c0.7,0.7,0.7,2,0,2.7l-16.8,16.8C168.5,260.3,167.3,260.3,166.5,259.6z"/>
			<path fill="#FFFFFF" d="M203.8,259.6l-16.8-16.8c-0.7-0.7-0.7-2,0-2.7l16.8-16.8c0.7-0.7,2-0.7,2.7,0l16.8,16.8
				c0.7,0.7,0.7,2,0,2.7l-16.8,16.8C205.8,260.3,204.6,260.3,203.8,259.6z"/>
			<path fill="#FFFFFF" d="M166.5,296.9l-16.8-16.8c-0.7-0.7-0.7-2,0-2.7l16.8-16.8c0.7-0.7,2-0.7,2.7,0l16.8,16.8
				c0.7,0.7,0.7,2,0,2.7l-16.8,16.8C168.5,297.6,167.3,297.6,166.5,296.9z"/>
			<path fill="#FFFFFF" d="M203.8,296.9l-16.8-16.8c-0.7-0.7-0.7-2,0-2.7l16.8-16.8c0.7-0.7,2-0.7,2.7,0l16.8,16.8
				c0.7,0.7,0.7,2,0,2.7l-16.8,16.8C205.8,297.6,204.6,297.6,203.8,296.9z"/>
		</g>
		<g opacity="0.19">
			<path fill="#FFFFFF" d="M241.2,259.6l-16.8-16.8c-0.7-0.7-0.7-2,0-2.7l16.8-16.8c0.7-0.7,2-0.7,2.7,0l16.8,16.8
				c0.7,0.7,0.7,2,0,2.7l-16.8,16.8C243.1,260.3,241.9,260.3,241.2,259.6z"/>
			<path fill="#FFFFFF" d="M241.2,296.9l-16.8-16.8c-0.7-0.7-0.7-2,0-2.7l16.8-16.8c0.7-0.7,2-0.7,2.7,0l16.8,16.8
				c0.7,0.7,0.7,2,0,2.7l-16.8,16.8C243.1,297.6,241.9,297.6,241.2,296.9z"/>
		</g>
		<g opacity="0.19">
			<path fill="#FFFFFF" d="M166.5,334.2l-16.8-16.8c-0.7-0.7-0.7-2,0-2.7l16.8-16.8c0.7-0.7,2-0.7,2.7,0l16.8,16.8
				c0.7,0.7,0.7,2,0,2.7l-16.8,16.8C168.5,334.9,167.3,334.9,166.5,334.2z"/>
			<path fill="#FFFFFF" d="M203.8,334.2l-16.8-16.8c-0.7-0.7-0.7-2,0-2.7l16.8-16.8c0.7-0.7,2-0.7,2.7,0l16.8,16.8
				c0.7,0.7,0.7,2,0,2.7l-16.8,16.8C205.8,334.9,204.6,334.9,203.8,334.2z"/>
		</g>
		<g opacity="0.19">
			<path fill="#FFFFFF" d="M241.2,334.2l-16.8-16.8c-0.7-0.7-0.7-2,0-2.7l16.8-16.8c0.7-0.7,2-0.7,2.7,0l16.8,16.8
				c0.7,0.7,0.7,2,0,2.7l-16.8,16.8C243.1,334.9,241.9,334.9,241.2,334.2z"/>
		</g>
	</g>
</g>
<g>
	<g opacity="0.5">
		<g opacity="0.19">
			<path fill="#FFFFFF" d="M278.5,36.8L261.7,20c-0.7-0.7-0.7-2,0-2.7l16.8-16.8c0.7-0.7,2-0.7,2.7,0l16.8,16.8c0.7,0.7,0.7,2,0,2.7
				l-16.8,16.8C280.4,37.5,279.2,37.5,278.5,36.8z"/>
			<path fill="#FFFFFF" d="M315.8,36.8L299,20c-0.7-0.7-0.7-2,0-2.7l16.8-16.8c0.7-0.7,2-0.7,2.7,0l16.8,16.8c0.7,0.7,0.7,2,0,2.7
				l-16.8,16.8C317.7,37.5,316.5,37.5,315.8,36.8z"/>
			<path fill="#FFFFFF" d="M278.5,74.1l-16.8-16.8c-0.7-0.7-0.7-2,0-2.7l16.8-16.8c0.7-0.7,2-0.7,2.7,0l16.8,16.8
				c0.7,0.7,0.7,2,0,2.7l-16.8,16.8C280.4,74.8,279.2,74.8,278.5,74.1z"/>
			<path fill="#FFFFFF" d="M315.8,74.1L299,57.3c-0.7-0.7-0.7-2,0-2.7l16.8-16.8c0.7-0.7,2-0.7,2.7,0l16.8,16.8c0.7,0.7,0.7,2,0,2.7
				l-16.8,16.8C317.7,74.8,316.5,74.8,315.8,74.1z"/>
		</g>
		<g opacity="0.19">
			<path fill="#FFFFFF" d="M353.1,36.8L336.3,20c-0.7-0.7-0.7-2,0-2.7l16.8-16.8c0.7-0.7,2-0.7,2.7,0l16.8,16.8c0.7,0.7,0.7,2,0,2.7
				l-16.8,16.8C355,37.5,353.8,37.5,353.1,36.8z"/>
			<path fill="#FFFFFF" d="M390.4,36.8L373.6,20c-0.7-0.7-0.7-2,0-2.7l16.8-16.8c0.7-0.7,2-0.7,2.7,0l16.8,16.8c0.7,0.7,0.7,2,0,2.7
				l-16.8,16.8C392.3,37.5,391.1,37.5,390.4,36.8z"/>
			<path fill="#FFFFFF" d="M353.1,74.1l-16.8-16.8c-0.7-0.7-0.7-2,0-2.7l16.8-16.8c0.7-0.7,2-0.7,2.7,0l16.8,16.8
				c0.7,0.7,0.7,2,0,2.7l-16.8,16.8C355,74.8,353.8,74.8,353.1,74.1z"/>
			<path fill="#FFFFFF" d="M390.4,74.1l-16.8-16.8c-0.7-0.7-0.7-2,0-2.7l16.8-16.8c0.7-0.7,2-0.7,2.7,0l16.8,16.8
				c0.7,0.7,0.7,2,0,2.7l-16.8,16.8C392.3,74.8,391.1,74.8,390.4,74.1z"/>
		</g>
		<g opacity="0.19">
			<path fill="#FFFFFF" d="M278.5,110.9l-16.8-16.8c-0.7-0.7-0.7-2,0-2.7l16.8-16.8c0.7-0.7,2-0.7,2.7,0l16.8,16.8
				c0.7,0.7,0.7,2,0,2.7l-16.8,16.8C280.4,111.6,279.2,111.6,278.5,110.9z"/>
			<path fill="#FFFFFF" d="M315.8,110.9L299,94.1c-0.7-0.7-0.7-2,0-2.7l16.8-16.8c0.7-0.7,2-0.7,2.7,0l16.8,16.8
				c0.7,0.7,0.7,2,0,2.7l-16.8,16.8C317.7,111.6,316.5,111.6,315.8,110.9z"/>
			<path fill="#FFFFFF" d="M278.5,148.2l-16.8-16.8c-0.7-0.7-0.7-2,0-2.7l16.8-16.8c0.7-0.7,2-0.7,2.7,0l16.8,16.8
				c0.7,0.7,0.7,2,0,2.7l-16.8,16.8C280.4,148.9,279.2,148.9,278.5,148.2z"/>
			<path fill="#FFFFFF" d="M315.8,148.2L299,131.4c-0.7-0.7-0.7-2,0-2.7l16.8-16.8c0.7-0.7,2-0.7,2.7,0l16.8,16.8
				c0.7,0.7,0.7,2,0,2.7l-16.8,16.8C317.7,148.9,316.5,148.9,315.8,148.2z"/>
		</g>
		<g opacity="0.19">
			<path fill="#FFFFFF" d="M353.1,110.9l-16.8-16.8c-0.7-0.7-0.7-2,0-2.7l16.8-16.8c0.7-0.7,2-0.7,2.7,0l16.8,16.8
				c0.7,0.7,0.7,2,0,2.7l-16.8,16.8C355,111.6,353.8,111.6,353.1,110.9z"/>
			<path fill="#FFFFFF" d="M390.4,110.9l-16.8-16.8c-0.7-0.7-0.7-2,0-2.7l16.8-16.8c0.7-0.7,2-0.7,2.7,0l16.8,16.8
				c0.7,0.7,0.7,2,0,2.7l-16.8,16.8C392.3,111.6,391.1,111.6,390.4,110.9z"/>
			<path fill="#FFFFFF" d="M353.1,148.2l-16.8-16.8c-0.7-0.7-0.7-2,0-2.7l16.8-16.8c0.7-0.7,2-0.7,2.7,0l16.8,16.8
				c0.7,0.7,0.7,2,0,2.7l-16.8,16.8C355,148.9,353.8,148.9,353.1,148.2z"/>
			<path fill="#FFFFFF" d="M390.4,148.2l-16.8-16.8c-0.7-0.7-0.7-2,0-2.7l16.8-16.8c0.7-0.7,2-0.7,2.7,0l16.8,16.8
				c0.7,0.7,0.7,2,0,2.7l-16.8,16.8C392.3,148.9,391.1,148.9,390.4,148.2z"/>
		</g>
		<g opacity="0.19">
			<path fill="#FFFFFF" d="M278.5,185.5l-16.8-16.8c-0.7-0.7-0.7-2,0-2.7l16.8-16.8c0.7-0.7,2-0.7,2.7,0l16.8,16.8
				c0.7,0.7,0.7,2,0,2.7l-16.8,16.8C280.4,186.2,279.2,186.2,278.5,185.5z"/>
			<path fill="#FFFFFF" d="M315.8,185.5L299,168.7c-0.7-0.7-0.7-2,0-2.7l16.8-16.8c0.7-0.7,2-0.7,2.7,0l16.8,16.8
				c0.7,0.7,0.7,2,0,2.7l-16.8,16.8C317.7,186.2,316.5,186.2,315.8,185.5z"/>
			<path fill="#FFFFFF" d="M278.5,222.8L261.7,206c-0.7-0.7-0.7-2,0-2.7l16.8-16.8c0.7-0.7,2-0.7,2.7,0l16.8,16.8
				c0.7,0.7,0.7,2,0,2.7l-16.8,16.8C280.4,223.5,279.2,223.5,278.5,222.8z"/>
			<path fill="#FFFFFF" d="M315.8,222.8L299,206c-0.7-0.7-0.7-2,0-2.7l16.8-16.8c0.7-0.7,2-0.7,2.7,0l16.8,16.8c0.7,0.7,0.7,2,0,2.7
				l-16.8,16.8C317.7,223.5,316.5,223.5,315.8,222.8z"/>
		</g>
		<g opacity="0.19">
			<path fill="#FFFFFF" d="M353.1,185.5l-16.8-16.8c-0.7-0.7-0.7-2,0-2.7l16.8-16.8c0.7-0.7,2-0.7,2.7,0l16.8,16.8
				c0.7,0.7,0.7,2,0,2.7l-16.8,16.8C355,186.2,353.8,186.2,353.1,185.5z"/>
			<path fill="#FFFFFF" d="M390.4,185.5l-16.8-16.8c-0.7-0.7-0.7-2,0-2.7l16.8-16.8c0.7-0.7,2-0.7,2.7,0l16.8,16.8
				c0.7,0.7,0.7,2,0,2.7l-16.8,16.8C392.3,186.2,391.1,186.2,390.4,185.5z"/>
			<path fill="#FFFFFF" d="M353.1,222.8L336.3,206c-0.7-0.7-0.7-2,0-2.7l16.8-16.8c0.7-0.7,2-0.7,2.7,0l16.8,16.8
				c0.7,0.7,0.7,2,0,2.7l-16.8,16.8C355,223.5,353.8,223.5,353.1,222.8z"/>
			<path fill="#FFFFFF" d="M390.4,222.8L373.6,206c-0.7-0.7-0.7-2,0-2.7l16.8-16.8c0.7-0.7,2-0.7,2.7,0l16.8,16.8
				c0.7,0.7,0.7,2,0,2.7l-16.8,16.8C392.3,223.5,391.1,223.5,390.4,222.8z"/>
		</g>
		<g opacity="0.19">
			<path fill="#FFFFFF" d="M278.5,259.6l-16.8-16.8c-0.7-0.7-0.7-2,0-2.7l16.8-16.8c0.7-0.7,2-0.7,2.7,0l16.8,16.8
				c0.7,0.7,0.7,2,0,2.7l-16.8,16.8C280.4,260.3,279.2,260.3,278.5,259.6z"/>
			<path fill="#FFFFFF" d="M315.8,259.6L299,242.8c-0.7-0.7-0.7-2,0-2.7l16.8-16.8c0.7-0.7,2-0.7,2.7,0l16.8,16.8
				c0.7,0.7,0.7,2,0,2.7l-16.8,16.8C317.7,260.3,316.5,260.3,315.8,259.6z"/>
			<path fill="#FFFFFF" d="M278.5,296.9l-16.8-16.8c-0.7-0.7-0.7-2,0-2.7l16.8-16.8c0.7-0.7,2-0.7,2.7,0l16.8,16.8
				c0.7,0.7,0.7,2,0,2.7l-16.8,16.8C280.4,297.6,279.2,297.6,278.5,296.9z"/>
			<path fill="#FFFFFF" d="M315.8,296.9L299,280.1c-0.7-0.7-0.7-2,0-2.7l16.8-16.8c0.7-0.7,2-0.7,2.7,0l16.8,16.8
				c0.7,0.7,0.7,2,0,2.7l-16.8,16.8C317.7,297.6,316.5,297.6,315.8,296.9z"/>
		</g>
		<g opacity="0.19">
			<path fill="#FFFFFF" d="M353.1,259.6l-16.8-16.8c-0.7-0.7-0.7-2,0-2.7l16.8-16.8c0.7-0.7,2-0.7,2.7,0l16.8,16.8
				c0.7,0.7,0.7,2,0,2.7l-16.8,16.8C355,260.3,353.8,260.3,353.1,259.6z"/>
			<path fill="#FFFFFF" d="M390.4,259.6l-16.8-16.8c-0.7-0.7-0.7-2,0-2.7l16.8-16.8c0.7-0.7,2-0.7,2.7,0l16.8,16.8
				c0.7,0.7,0.7,2,0,2.7l-16.8,16.8C392.3,260.3,391.1,260.3,390.4,259.6z"/>
			<path fill="#FFFFFF" d="M353.1,296.9l-16.8-16.8c-0.7-0.7-0.7-2,0-2.7l16.8-16.8c0.7-0.7,2-0.7,2.7,0l16.8,16.8
				c0.7,0.7,0.7,2,0,2.7l-16.8,16.8C355,297.6,353.8,297.6,353.1,296.9z"/>
			<path fill="#FFFFFF" d="M390.4,296.9l-16.8-16.8c-0.7-0.7-0.7-2,0-2.7l16.8-16.8c0.7-0.7,2-0.7,2.7,0l16.8,16.8
				c0.7,0.7,0.7,2,0,2.7l-16.8,16.8C392.3,297.6,391.1,297.6,390.4,296.9z"/>
		</g>
		<g opacity="0.19">
			<path fill="#FFFFFF" d="M278.5,334.2l-16.8-16.8c-0.7-0.7-0.7-2,0-2.7l16.8-16.8c0.7-0.7,2-0.7,2.7,0l16.8,16.8
				c0.7,0.7,0.7,2,0,2.7l-16.8,16.8C280.4,334.9,279.2,334.9,278.5,334.2z"/>
			<path fill="#FFFFFF" d="M315.8,334.2L299,317.4c-0.7-0.7-0.7-2,0-2.7l16.8-16.8c0.7-0.7,2-0.7,2.7,0l16.8,16.8
				c0.7,0.7,0.7,2,0,2.7l-16.8,16.8C317.7,334.9,316.5,334.9,315.8,334.2z"/>
		</g>
		<g opacity="0.19">
			<path fill="#FFFFFF" d="M353.1,334.2l-16.8-16.8c-0.7-0.7-0.7-2,0-2.7l16.8-16.8c0.7-0.7,2-0.7,2.7,0l16.8,16.8
				c0.7,0.7,0.7,2,0,2.7l-16.8,16.8C355,334.9,353.8,334.9,353.1,334.2z"/>
			<path fill="#FFFFFF" d="M390.4,334.2l-16.8-16.8c-0.7-0.7-0.7-2,0-2.7l16.8-16.8c0.7-0.7,2-0.7,2.7,0l16.8,16.8
				c0.7,0.7,0.7,2,0,2.7l-16.8,16.8C392.3,334.9,391.1,334.9,390.4,334.2z"/>
		</g>
	</g>
	<g opacity="0.5">
		<g opacity="0.19">
			<path fill="#FFFFFF" d="M427.7,36.8L410.9,20c-0.7-0.7-0.7-2,0-2.7l16.8-16.8c0.7-0.7,2-0.7,2.7,0l16.8,16.8c0.7,0.7,0.7,2,0,2.7
				l-16.8,16.8C429.6,37.5,428.4,37.5,427.7,36.8z"/>
			<path fill="#FFFFFF" d="M465,36.8L448.2,20c-0.7-0.7-0.7-2,0-2.7L465,0.6c0.7-0.7,2-0.7,2.7,0l16.8,16.8c0.7,0.7,0.7,2,0,2.7
				l-16.8,16.8C466.9,37.5,465.7,37.5,465,36.8z"/>
			<path fill="#FFFFFF" d="M427.7,74.1l-16.8-16.8c-0.7-0.7-0.7-2,0-2.7l16.8-16.8c0.7-0.7,2-0.7,2.7,0l16.8,16.8
				c0.7,0.7,0.7,2,0,2.7l-16.8,16.8C429.6,74.8,428.4,74.8,427.7,74.1z"/>
			<path fill="#FFFFFF" d="M465,74.1l-16.8-16.8c-0.7-0.7-0.7-2,0-2.7L465,37.9c0.7-0.7,2-0.7,2.7,0l16.8,16.8c0.7,0.7,0.7,2,0,2.7
				l-16.8,16.8C466.9,74.8,465.7,74.8,465,74.1z"/>
		</g>
		<g opacity="0.19">
			<path fill="#FFFFFF" d="M502.3,36.8L485.6,20c-0.7-0.7-0.7-2,0-2.7l16.8-16.8c0.7-0.7,2-0.7,2.7,0l16.8,16.8c0.7,0.7,0.7,2,0,2.7
				L505,36.8C504.3,37.5,503,37.5,502.3,36.8z"/>
			<path fill="#FFFFFF" d="M502.3,74.1l-16.8-16.8c-0.7-0.7-0.7-2,0-2.7l16.8-16.8c0.7-0.7,2-0.7,2.7,0l16.8,16.8
				c0.7,0.7,0.7,2,0,2.7L505,74.1C504.3,74.8,503,74.8,502.3,74.1z"/>
		</g>
		<g opacity="0.19">
			<path fill="#FFFFFF" d="M427.7,110.9l-16.8-16.8c-0.7-0.7-0.7-2,0-2.7l16.8-16.8c0.7-0.7,2-0.7,2.7,0l16.8,16.8
				c0.7,0.7,0.7,2,0,2.7l-16.8,16.8C429.6,111.6,428.4,111.6,427.7,110.9z"/>
			<path fill="#FFFFFF" d="M465,110.9l-16.8-16.8c-0.7-0.7-0.7-2,0-2.7L465,74.7c0.7-0.7,2-0.7,2.7,0l16.8,16.8c0.7,0.7,0.7,2,0,2.7
				l-16.8,16.8C466.9,111.6,465.7,111.6,465,110.9z"/>
			<path fill="#FFFFFF" d="M427.7,148.2l-16.8-16.8c-0.7-0.7-0.7-2,0-2.7l16.8-16.8c0.7-0.7,2-0.7,2.7,0l16.8,16.8
				c0.7,0.7,0.7,2,0,2.7l-16.8,16.8C429.6,148.9,428.4,148.9,427.7,148.2z"/>
			<path fill="#FFFFFF" d="M465,148.2l-16.8-16.8c-0.7-0.7-0.7-2,0-2.7L465,112c0.7-0.7,2-0.7,2.7,0l16.8,16.8c0.7,0.7,0.7,2,0,2.7
				l-16.8,16.8C466.9,148.9,465.7,148.9,465,148.2z"/>
		</g>
		<g opacity="0.19">
			<path fill="#FFFFFF" d="M502.3,110.9l-16.8-16.8c-0.7-0.7-0.7-2,0-2.7l16.8-16.8c0.7-0.7,2-0.7,2.7,0l16.8,16.8
				c0.7,0.7,0.7,2,0,2.7L505,110.9C504.3,111.6,503,111.6,502.3,110.9z"/>
			<path fill="#FFFFFF" d="M502.3,148.2l-16.8-16.8c-0.7-0.7-0.7-2,0-2.7l16.8-16.8c0.7-0.7,2-0.7,2.7,0l16.8,16.8
				c0.7,0.7,0.7,2,0,2.7L505,148.2C504.3,148.9,503,148.9,502.3,148.2z"/>
		</g>
		<g opacity="0.19">
			<path fill="#FFFFFF" d="M427.7,185.5l-16.8-16.8c-0.7-0.7-0.7-2,0-2.7l16.8-16.8c0.7-0.7,2-0.7,2.7,0l16.8,16.8
				c0.7,0.7,0.7,2,0,2.7l-16.8,16.8C429.6,186.2,428.4,186.2,427.7,185.5z"/>
			<path fill="#FFFFFF" d="M465,185.5l-16.8-16.8c-0.7-0.7-0.7-2,0-2.7l16.8-16.8c0.7-0.7,2-0.7,2.7,0l16.8,16.8
				c0.7,0.7,0.7,2,0,2.7l-16.8,16.8C466.9,186.2,465.7,186.2,465,185.5z"/>
			<path fill="#FFFFFF" d="M427.7,222.8L410.9,206c-0.7-0.7-0.7-2,0-2.7l16.8-16.8c0.7-0.7,2-0.7,2.7,0l16.8,16.8
				c0.7,0.7,0.7,2,0,2.7l-16.8,16.8C429.6,223.5,428.4,223.5,427.7,222.8z"/>
			<path fill="#FFFFFF" d="M465,222.8L448.2,206c-0.7-0.7-0.7-2,0-2.7l16.8-16.8c0.7-0.7,2-0.7,2.7,0l16.8,16.8c0.7,0.7,0.7,2,0,2.7
				l-16.8,16.8C466.9,223.5,465.7,223.5,465,222.8z"/>
		</g>
		<g opacity="0.19">
			<path fill="#FFFFFF" d="M502.3,185.5l-16.8-16.8c-0.7-0.7-0.7-2,0-2.7l16.8-16.8c0.7-0.7,2-0.7,2.7,0l16.8,16.8
				c0.7,0.7,0.7,2,0,2.7L505,185.5C504.3,186.2,503,186.2,502.3,185.5z"/>
			<path fill="#FFFFFF" d="M502.3,222.8L485.6,206c-0.7-0.7-0.7-2,0-2.7l16.8-16.8c0.7-0.7,2-0.7,2.7,0l16.8,16.8
				c0.7,0.7,0.7,2,0,2.7L505,222.8C504.3,223.5,503,223.5,502.3,222.8z"/>
		</g>
		<g opacity="0.19">
			<path fill="#FFFFFF" d="M427.7,259.6l-16.8-16.8c-0.7-0.7-0.7-2,0-2.7l16.8-16.8c0.7-0.7,2-0.7,2.7,0l16.8,16.8
				c0.7,0.7,0.7,2,0,2.7l-16.8,16.8C429.6,260.3,428.4,260.3,427.7,259.6z"/>
			<path fill="#FFFFFF" d="M465,259.6l-16.8-16.8c-0.7-0.7-0.7-2,0-2.7l16.8-16.8c0.7-0.7,2-0.7,2.7,0l16.8,16.8
				c0.7,0.7,0.7,2,0,2.7l-16.8,16.8C466.9,260.3,465.7,260.3,465,259.6z"/>
			<path fill="#FFFFFF" d="M427.7,296.9l-16.8-16.8c-0.7-0.7-0.7-2,0-2.7l16.8-16.8c0.7-0.7,2-0.7,2.7,0l16.8,16.8
				c0.7,0.7,0.7,2,0,2.7l-16.8,16.8C429.6,297.6,428.4,297.6,427.7,296.9z"/>
			<path fill="#FFFFFF" d="M465,296.9l-16.8-16.8c-0.7-0.7-0.7-2,0-2.7l16.8-16.8c0.7-0.7,2-0.7,2.7,0l16.8,16.8
				c0.7,0.7,0.7,2,0,2.7l-16.8,16.8C466.9,297.6,465.7,297.6,465,296.9z"/>
		</g>
		<g opacity="0.19">
			<path fill="#FFFFFF" d="M502.3,259.6l-16.8-16.8c-0.7-0.7-0.7-2,0-2.7l16.8-16.8c0.7-0.7,2-0.7,2.7,0l16.8,16.8
				c0.7,0.7,0.7,2,0,2.7L505,259.6C504.3,260.3,503,260.3,502.3,259.6z"/>
			<path fill="#FFFFFF" d="M502.3,296.9l-16.8-16.8c-0.7-0.7-0.7-2,0-2.7l16.8-16.8c0.7-0.7,2-0.7,2.7,0l16.8,16.8
				c0.7,0.7,0.7,2,0,2.7L505,296.9C504.3,297.6,503,297.6,502.3,296.9z"/>
		</g>
		<g opacity="0.19">
			<path fill="#FFFFFF" d="M427.7,334.2l-16.8-16.8c-0.7-0.7-0.7-2,0-2.7l16.8-16.8c0.7-0.7,2-0.7,2.7,0l16.8,16.8
				c0.7,0.7,0.7,2,0,2.7l-16.8,16.8C429.6,334.9,428.4,334.9,427.7,334.2z"/>
			<path fill="#FFFFFF" d="M465,334.2l-16.8-16.8c-0.7-0.7-0.7-2,0-2.7L465,298c0.7-0.7,2-0.7,2.7,0l16.8,16.8c0.7,0.7,0.7,2,0,2.7
				l-16.8,16.8C466.9,334.9,465.7,334.9,465,334.2z"/>
		</g>
		<g opacity="0.19">
			<path fill="#FFFFFF" d="M502.3,334.2l-16.8-16.8c-0.7-0.7-0.7-2,0-2.7l16.8-16.8c0.7-0.7,2-0.7,2.7,0l16.8,16.8
				c0.7,0.7,0.7,2,0,2.7L505,334.2C504.3,334.9,503,334.9,502.3,334.2z"/>
		</g>
	</g>
</g>
</svg>
